<svg id="Group_1103564" data-name="Group 1103564" xmlns="http://www.w3.org/2000/svg" width="122.486" height="122.486" viewBox="0 0 122.486 122.486">
  <rect id="Rectangle_402033" data-name="Rectangle 402033" width="122.486" height="122.486" rx="5" transform="translate(0)" fill="#bfa2f7"/>
  <g id="Group_1104951" data-name="Group 1104951" transform="translate(21.944 21.808)">
    <g id="Group_1104949" data-name="Group 1104949" transform="translate(1.15 4.904)">
      <path id="Path_881340" data-name="Path 881340" d="M77.528,97.724H13.766A6.269,6.269,0,0,0,7.5,103.993v31.355l7.354,6.289H79.623l4.128-6.289.046-31.355A6.269,6.269,0,0,0,77.528,97.724Z" transform="translate(-7.497 -87.507)" fill="#f9f7f8"/>
      <g id="Group_1104948" data-name="Group 1104948">
        <path id="Path_881341" data-name="Path 881341" d="M189.819,400.195V387.622H171.084v12.573l-4.366,5.411h27.468Z" transform="translate(-142.302 -332.949)" fill="#baafb9"/>
        <g id="XMLID_198_" transform="translate(0 47.842)">
          <g id="Group_1104947" data-name="Group 1104947">
            <path id="Path_881342" data-name="Path 881342" d="M189.819,387.622H171.084v12.573l-4.366,5.411h4.99L175,401.525a4.838,4.838,0,0,0,1.073-3.038v-2.257A2.626,2.626,0,0,1,178.7,393.6H189.82v-5.981Z" transform="translate(-142.302 -380.791)" fill="#aa9ea9"/>
            <path id="Path_881343" data-name="Path 881343" d="M83.751,343.074l0,3.5a6.27,6.27,0,0,1-6.269,6.247H13.766A6.27,6.27,0,0,1,7.5,346.55v-3.476H83.751Z" transform="translate(-7.497 -343.074)" fill="#baafb9"/>
          </g>
        </g>
        <path id="Path_881344" data-name="Path 881344" d="M112.545,123.2c5.367,0,13.771-2.134,23.328-12.3a10.354,10.354,0,0,0,.812-13.173H88.405a10.354,10.354,0,0,0,.812,13.173c9.557,10.168,17.96,12.3,23.328,12.3Z" transform="translate(-74.318 -87.507)" fill="#efedef"/>
        <path id="Path_881345" data-name="Path 881345" d="M150.521,42.431a7.265,7.265,0,0,1,0,9.955c-4.51,4.8-12.273,11.336-21.093,11.336s-16.583-6.538-21.093-11.336a7.265,7.265,0,0,1,0-9.955c4.51-4.8,12.273-11.336,21.093-11.336S146.012,37.633,150.521,42.431Z" transform="translate(-91.202 -31.095)" fill="#eaf6ff"/>
        <circle id="Ellipse_11768" data-name="Ellipse 11768" cx="7.802" cy="7.802" r="7.802" transform="translate(30.425 8.511)" fill="#b5adb6"/>
        <path id="Path_881346" data-name="Path 881346" d="M211.433,94.4a7.818,7.818,0,0,1,5.04-7.294,7.8,7.8,0,1,0,0,14.587A7.817,7.817,0,0,1,211.433,94.4Z" transform="translate(-175.476 -78.087)" fill="#a79ba7"/>
      </g>
    </g>
    <g id="Group_1104950" data-name="Group 1104950" transform="translate(0 0.16)">
      <path id="Path_881347" data-name="Path 881347" d="M77.412,123.879h0a1.15,1.15,0,0,0-1.15,1.148l0,2.818H12.931a1.15,1.15,0,1,0,0,2.3H76.253l0,2.345a5.129,5.129,0,0,1-5.119,5.1H7.419A5.125,5.125,0,0,1,2.3,132.472v-2.326H8.03a1.15,1.15,0,1,0,0-2.3H2.3V97.64a5.125,5.125,0,0,1,5.119-5.119,1.15,1.15,0,0,0,0-2.3A7.427,7.427,0,0,0,0,97.64v34.832a7.428,7.428,0,0,0,7.419,7.419H28.782v8.1l-3.766,4.667H23.4a1.15,1.15,0,1,0,0,2.3H55.072a1.15,1.15,0,0,0,0-2.3H53.583l-3.766-4.667v-8.1H71.131A7.434,7.434,0,0,0,78.55,132.5l.011-7.465A1.15,1.15,0,0,0,77.412,123.879Zm-29.9,23.371H43.45a1.15,1.15,0,1,0,0,2.3h4.668l2.51,3.111H27.972l2.51-3.111h7.791a1.15,1.15,0,0,0,0-2.3H31.083v-7.359H47.517Z" transform="translate(0 -76.41)"/>
      <path id="Path_881348" data-name="Path 881348" d="M138.813,33.812H127.5c-8.474-8.4-15.765-10.217-20.488-10.217s-12.014,1.82-20.488,10.217H81.032a1.15,1.15,0,0,0,0,2.3H84.4a8.434,8.434,0,0,0,.675,10.711c9.088,9.669,16.942,11.7,21.931,11.7,4.931,0,10.042-1.91,15.191-5.678a1.15,1.15,0,0,0-1.358-1.856c-4.747,3.473-9.4,5.234-13.833,5.234-4.535,0-11.73-1.9-20.255-10.973a6.128,6.128,0,0,1,0-8.379q.364-.387.725-.756h6.908a13.567,13.567,0,0,0,5.32,16.36,1.15,1.15,0,0,0,1.241-1.936A11.258,11.258,0,0,1,96.9,36.112h2.654a8.952,8.952,0,1,0,14.913,0h2.654a11.258,11.258,0,0,1-4.049,14.424,1.15,1.15,0,1,0,1.241,1.936,13.567,13.567,0,0,0,5.32-16.36h6.908q.361.37.725.757a6.128,6.128,0,0,1,0,8.379c-.889.946-1.808,1.855-2.734,2.7a1.15,1.15,0,1,0,1.554,1.7c.967-.887,1.928-1.837,2.856-2.823a8.434,8.434,0,0,0,.675-10.711h9.2a5.124,5.124,0,0,1,5.119,5.117L143.9,63.717a1.15,1.15,0,0,0,1.148,1.152h0a1.15,1.15,0,0,0,1.15-1.148l.032-22.489a7.427,7.427,0,0,0-7.419-7.42ZM113.66,41.058a6.652,6.652,0,1,1-11.094-4.946h8.884A6.636,6.636,0,0,1,113.66,41.058Zm.651-11.414a1.15,1.15,0,0,0-1.241,1.936,11.345,11.345,0,0,1,2.547,2.231h-3.361a8.924,8.924,0,0,0-10.494,0H98.4a11.342,11.342,0,0,1,2.547-2.231,1.15,1.15,0,0,0-1.241-1.936,13.593,13.593,0,0,0-4.155,4.168H89.865c7.159-6.456,13.172-7.917,17.144-7.917s9.985,1.461,17.144,7.917h-5.686a13.6,13.6,0,0,0-4.156-4.168Z" transform="translate(-67.632 -20.001)"/>
      <path id="Path_881349" data-name="Path 881349" d="M251.077,364.663V363.7a1.15,1.15,0,0,0-2.3,0v.962a1.15,1.15,0,1,0,2.3,0Z" transform="translate(-210.627 -306.979)"/>
      <path id="Path_881350" data-name="Path 881350" d="M339.487,2.46h5.1v5.1a1.15,1.15,0,1,0,2.3,0V1.31a1.15,1.15,0,0,0-1.15-1.15h-6.25a1.15,1.15,0,1,0,0,2.3Z" transform="translate(-286.453 -0.16)"/>
      <path id="Path_881351" data-name="Path 881351" d="M345.737,227.585a1.15,1.15,0,0,0,1.15-1.15v-6.25a1.15,1.15,0,1,0-2.3,0v5.1h-5.1a1.15,1.15,0,1,0,0,2.3Z" transform="translate(-286.453 -185.471)"/>
      <path id="Path_881352" data-name="Path 881352" d="M120.613,219.034a1.15,1.15,0,0,0-1.15,1.15v6.25a1.15,1.15,0,0,0,1.15,1.15h6.25a1.15,1.15,0,1,0,0-2.3h-5.1v-5.1A1.15,1.15,0,0,0,120.613,219.034Z" transform="translate(-101.144 -185.47)"/>
      <path id="Path_881353" data-name="Path 881353" d="M120.613,8.71a1.15,1.15,0,0,0,1.15-1.15V2.46h5.1a1.15,1.15,0,1,0,0-2.3h-6.25a1.15,1.15,0,0,0-1.15,1.15V7.56A1.15,1.15,0,0,0,120.613,8.71Z" transform="translate(-101.144 -0.16)"/>
    </g>
  </g>
</svg>
