<svg id="Group_1103579" data-name="Group 1103579" xmlns="http://www.w3.org/2000/svg" width="122.486" height="122.486" viewBox="0 0 122.486 122.486">
  <rect id="Rectangle_402033" data-name="Rectangle 402033" width="122.486" height="122.486" rx="5" transform="translate(0)" fill="#bfa2f7"/>
  <g id="Group_1104957" data-name="Group 1104957" transform="translate(18.282 -14.012)">
    <g id="Group_1104955" data-name="Group 1104955" transform="translate(1.26 40.069)">
      <path id="Path_881354" data-name="Path 881354" d="M91.615,267.544s-27.181-19.483-27.27-19.827-28.847.855-28.847.855L19.622,275.616l-1.3,6.824a6.127,6.127,0,0,0,4.336,1.79H89.476a6.131,6.131,0,0,0,4.4-1.855Z" transform="translate(-16.507 -213.855)" fill="#fef0ae"/>
      <g id="Group_1104954" data-name="Group 1104954" transform="translate(0 0)">
        <g id="Group_1104953" data-name="Group 1104953" transform="translate(0 19.708)">
          <g id="XMLID_142_" transform="translate(0 0)">
            <g id="Group_1104952" data-name="Group 1104952">
              <path id="Path_881355" data-name="Path 881355" d="M27.3,354.793V336.275l-7.681,13.084-1.3,6.824a6.127,6.127,0,0,0,4.336,1.789h5.354A7.38,7.38,0,0,1,27.3,354.793Z" transform="translate(-16.507 -307.306)" fill="#fee97d"/>
              <path id="Path_881356" data-name="Path 881356" d="M16.21,184.6,7.5,187.25v38.359a6.13,6.13,0,0,0,1.816,4.363l.692-.541,28.906-22.381,9.346-7.252Z" transform="translate(-7.503 -181.096)" fill="#fee97d"/>
              <path id="Path_881357" data-name="Path 881357" d="M280.813,189.183,250.3,207.03l7.079,3.748.052.084,28.908,22.381.572.475a6.124,6.124,0,0,0,1.751-4.3V191.1Z" transform="translate(-209.545 -184.907)" fill="#eef5f6"/>
              <path id="Path_881358" data-name="Path 881358" d="M289.69,189.286l-28.684,17.42,5.254,4.174,28.96,22.465.572.475a6.124,6.124,0,0,0,1.751-4.3V191.206Z" transform="translate(-218.45 -184.993)" fill="#fee97d"/>
              <path id="Path_881359" data-name="Path 881359" d="M134.434,247.718c-.089-.344-28.847.855-28.847.855l-3.036,5.172,13.668,8.615a18.634,18.634,0,0,0,19.878,0l9.819-6.176C139.909,251.836,134.473,247.871,134.434,247.718Z" transform="translate(-86.595 -233.564)" fill="#fee97d"/>
              <path id="Path_881360" data-name="Path 881360" d="M18.315,185.6l-2.1-1L7.5,187.25v38.359a6.13,6.13,0,0,0,1.816,4.363l.692-.541,8.289-6.418V201.831a2.1,2.1,0,0,1,3.221-1.777l14.571,9.184,2.826-2.188,9.346-7.252Z" transform="translate(-7.503 -181.096)" fill="#fee45a"/>
              <path id="Path_881361" data-name="Path 881361" d="M286.376,189.315l-2.686,1.571L257.036,206.04l8.743,7.054,17.866-11.237a6.845,6.845,0,0,1,3.639-1.051c2.6,0,6.851-.007,6.945-.012v-9.559Z" transform="translate(-215.146 -185.017)" fill="#fee45a"/>
              <path id="Path_881362" data-name="Path 881362" d="M86.625,169.516v.391L55.342,189.582l-.133.084a15.276,15.276,0,0,1-16.292,0L7.5,169.865a6.153,6.153,0,0,1,6.153-6.154H80.821A5.8,5.8,0,0,1,86.625,169.516Z" transform="translate(-7.503 -163.711)" fill="#fef0ae"/>
            </g>
          </g>
        </g>
        <path id="Path_881363" data-name="Path 881363" d="M284.277,163.711H255.489l-2.184,3.356a8.032,8.032,0,0,0,6.732,12.413h14.822l15.222-9.573v-.391A5.8,5.8,0,0,0,284.277,163.711Z" transform="translate(-210.959 -144.003)" fill="#fee97d"/>
        <path id="Path_881364" data-name="Path 881364" d="M306.285,78.431H276.647a4.675,4.675,0,0,1-3.918-7.225l14.819-22.771a4.675,4.675,0,0,1,7.836,0L310.2,71.206A4.675,4.675,0,0,1,306.285,78.431Z" transform="translate(-227.569 -46.31)" fill="#baafb9"/>
        <path id="Path_881365" data-name="Path 881365" d="M307.6,101.732l12.811-19.685a.727.727,0,0,1,1.22,0l12.811,19.685a.728.728,0,0,1-.61,1.124H308.206A.728.728,0,0,1,307.6,101.732Z" transform="translate(-257.12 -75.772)" fill="#fee97d"/>
      </g>
    </g>
    <g id="Group_1104956" data-name="Group 1104956" transform="translate(0 38.81)">
      <path id="Path_881366" data-name="Path 881366" d="M80.381,173.653a1.259,1.259,0,0,0-1.259,1.259v27.074a4.864,4.864,0,0,1-.7,2.515L61.3,191.242a1.259,1.259,0,1,0-1.542,1.991l16.836,13.035a4.862,4.862,0,0,1-2.366.612H7.412a4.86,4.86,0,0,1-2.256-.553l27.616-21.381a16.615,16.615,0,0,0,16.206-.06l6.42,4.971a1.259,1.259,0,1,0,1.542-1.991l-5.677-4.4,11.872-7.483a1.259,1.259,0,1,0-1.343-2.13l-13.5,8.507a14.088,14.088,0,0,1-14.95,0l-30.781-19.4a4.9,4.9,0,0,1,4.847-4.229H43.787a1.259,1.259,0,0,0,0-2.518H7.412A7.42,7.42,0,0,0,0,163.627v10.129a1.259,1.259,0,1,0,2.518,0v-7.848l27.963,17.625L3.276,204.6a4.862,4.862,0,0,1-.758-2.611V179.122a1.259,1.259,0,1,0-2.518,0v22.864A7.42,7.42,0,0,0,7.412,209.4H74.229a7.42,7.42,0,0,0,7.412-7.412V174.912a1.259,1.259,0,0,0-1.259-1.259Z" transform="translate(0 -136.506)"/>
      <path id="Path_881367" data-name="Path 881367" d="M304.988,64.278,295.8,50.153a1.259,1.259,0,1,0-2.11,1.374l9.192,14.125a3.416,3.416,0,0,1-2.863,5.279H270.377a3.416,3.416,0,0,1-2.863-5.279l14.819-22.771a3.416,3.416,0,0,1,5.726,0l2.7,4.149a1.259,1.259,0,1,0,2.11-1.374l-2.7-4.149a5.914,5.914,0,0,0-4.973-2.7h0a5.914,5.914,0,0,0-4.973,2.7L265.4,64.278a5.934,5.934,0,0,0,4.973,9.17h29.637a5.934,5.934,0,0,0,4.973-9.17Z" transform="translate(-220.04 -38.81)"/>
      <path id="Path_881368" data-name="Path 881368" d="M311.739,70.6a1.259,1.259,0,0,0-1.055.572L296.531,92.923a1.259,1.259,0,0,0,1.055,1.946h28.3a1.259,1.259,0,0,0,1.055-1.946L312.794,71.176A1.259,1.259,0,0,0,311.739,70.6ZM299.908,92.351l11.831-18.18,11.831,18.18Z" transform="translate(-246.582 -65.267)"/>
      <path id="Path_881369" data-name="Path 881369" d="M381.89,167.839a1.259,1.259,0,0,0-1.259,1.259v1.555a1.259,1.259,0,1,0,2.518,0V169.1A1.259,1.259,0,0,0,381.89,167.839Z" transform="translate(-316.734 -146.179)"/>
      <path id="Path_881370" data-name="Path 881370" d="M380.631,119.881v3.877a1.259,1.259,0,1,0,2.518,0v-3.877a1.259,1.259,0,1,0-2.518,0Z" transform="translate(-316.734 -105.224)"/>
    </g>
  </g>
</svg>
