<svg id="Group_1103594" data-name="Group 1103594" xmlns="http://www.w3.org/2000/svg" width="122.486" height="122.486" viewBox="0 0 122.486 122.486">
  <rect id="Rectangle_402033" data-name="Rectangle 402033" width="122.486" height="122.486" rx="5" transform="translate(0)" fill="#bfa2f7"/>
  <g id="Group_1104964" data-name="Group 1104964" transform="translate(16.883 -10.643)">
    <g id="Group_1104962" data-name="Group 1104962" transform="translate(1.299 34.594)">
      <path id="Path_881371" data-name="Path 881371" d="M94.4,65.976,61.137,43.2a13.731,13.731,0,0,0-15.479-.028L12.108,65.978a4.392,4.392,0,0,0-1.36,1.481l.2.133,2.621,11.186L50.314,96.617l34.662-8.811,10.94-20.019A4.4,4.4,0,0,0,94.4,65.976Z" transform="translate(-10.185 -40.795)" fill="#fef0ae"/>
      <g id="Group_1104961" data-name="Group 1104961" transform="translate(0 7.454)">
        <g id="XMLID_207_">
          <g id="Group_1104960" data-name="Group 1104960">
            <path id="Path_881372" data-name="Path 881372" d="M163.27,109.469a4.77,4.77,0,0,0,4.762-4.909,4.831,4.831,0,0,0-4.864-4.62h-4a4.735,4.735,0,0,0-4.049,2.254l-.6.969h-.312a7.11,7.11,0,0,0-1.936-.569v-.188a7.782,7.782,0,0,0-.489-2.719l1.161-4.737,3.915-2.221a4.765,4.765,0,1,0-4.7-8.289L147.643,87a7.956,7.956,0,0,0-3.187,3.377A7.956,7.956,0,0,0,141.268,87L136.75,84.44a4.765,4.765,0,0,0-4.7,8.289l3.916,2.221,1.161,4.737a7.782,7.782,0,0,0-.489,2.719v.188a7.112,7.112,0,0,0-1.936.569h-.312l-.6-.969a4.735,4.735,0,0,0-4.049-2.254h-4a4.831,4.831,0,0,0-4.864,4.62,4.77,4.77,0,0,0,4.762,4.909h1.445l.385.621a4.77,4.77,0,0,0-2.629,4.189,4.852,4.852,0,0,0,4.867,4.833h.783v.6a14,14,0,0,0,.455,3.539l.035.135,3.1,8.819h20.783l3.1-8.967.037-.149a14,14,0,0,0,.414-3.377v-.6h.783a4.852,4.852,0,0,0,4.867-4.833,4.769,4.769,0,0,0-2.629-4.189l.385-.621h1.445Z" transform="translate(-101.234 -83.819)" fill="#fee97d"/>
            <path id="Path_881373" data-name="Path 881373" d="M240.547,176.33H231.84v-6a4.354,4.354,0,0,1,8.707,0Z" transform="translate(-192.972 -151.739)" fill="#d7d0d6"/>
            <g id="XMLID_208_" transform="translate(32.724 22.165)">
              <g id="Group_1104958" data-name="Group 1104958">
                <path id="Path_881374" data-name="Path 881374" d="M217.373,215.462v10.023a10.5,10.5,0,0,1-.312,2.54l-2.242,6.488H198.96l-2.24-6.369a10.516,10.516,0,0,1-.341-2.659V215.462a3.707,3.707,0,0,1,3.708-3.708h13.58A3.707,3.707,0,0,1,217.373,215.462Z" transform="translate(-196.378 -211.754)" fill="#f79595"/>
              </g>
            </g>
            <path id="Path_881375" data-name="Path 881375" d="M99.287,321.439l-12.86-19.892-15.369-2.554-3.64,2.126a17,17,0,0,1-17.336-.052L46.7,299.054,34.74,300.736l-17.352,20.4v6.2a5.489,5.489,0,0,0,3.791,1.513H96.292a5.489,5.489,0,0,0,3.985-1.707Z" transform="translate(-15.674 -261.713)" fill="#fef0ae"/>
            <path id="Path_881376" data-name="Path 881376" d="M357.905,198.4v40.275a5.481,5.481,0,0,1-1.519,3.8l-.307-.293-28.878-27.8-.033-.055,30.044-17.552.3-.191A4.387,4.387,0,0,1,357.905,198.4Z" transform="translate(-271.784 -177.047)" fill="#fee97d"/>
            <path id="Path_881377" data-name="Path 881377" d="M8.259,194.827l30.261,18L9.646,240.615l-.435.487A5.492,5.492,0,0,1,7.5,237.11V196.844a4.389,4.389,0,0,1,.563-2.15Z" transform="translate(-7.498 -175.484)" fill="#fee97d"/>
            <g id="Group_1104959" data-name="Group 1104959" transform="translate(1.713 52.037)">
              <path id="Path_881378" data-name="Path 881378" d="M23.67,393.757v-9.589l-6.282,7.385v6.2a5.49,5.49,0,0,0,3.791,1.513h8a5.5,5.5,0,0,1-5.5-5.5Z" transform="translate(-17.388 -384.168)" fill="#fee97d"/>
            </g>
            <path id="Path_881379" data-name="Path 881379" d="M15.493,199.13l-7.235-4.3-.2-.133a4.389,4.389,0,0,0-.563,2.15V237.11A5.492,5.492,0,0,0,9.211,241.1l.435-.487,5.847-5.628Z" transform="translate(-7.498 -175.484)" fill="#fee45a"/>
          </g>
        </g>
      </g>
    </g>
    <g id="Group_1104963" data-name="Group 1104963" transform="translate(0 33.295)">
      <path id="Path_881380" data-name="Path 881380" d="M86.245,117.008l-6.01-4.116a1.3,1.3,0,1,0-1.469,2.144l6.01,4.116a3.089,3.089,0,0,1,.4.33L56.316,136.344c0-.032,0-.063,0-.095v-4.067H59.37a1.3,1.3,0,0,0,0-2.6H56.317v-3.358c0-.157-.008-.311-.022-.464h.945a1.3,1.3,0,0,0,1.1-.615l1.617-2.608h3.374a1.3,1.3,0,1,0,0-2.6h-4.1a1.3,1.3,0,0,0-1.1.615l-1.617,2.608h-1.25a5,5,0,0,0-3.955-1.943H50.174v-2.279a5.633,5.633,0,0,0-1.594-3.929l1.232-5.026a1.868,1.868,0,0,1,.888-1.174l4.518-2.563a1.3,1.3,0,1,0-1.282-2.26l-4.518,2.563a4.476,4.476,0,0,0-2.13,2.816l-1.029,4.2a5.64,5.64,0,0,0-3.477,0l-1.029-4.2a4.476,4.476,0,0,0-2.13-2.816l-4.518-2.563a1.3,1.3,0,1,0-1.282,2.26l4.518,2.563a1.866,1.866,0,0,1,.888,1.174l1.232,5.026a5.632,5.632,0,0,0-1.594,3.929v2.28H37.731a5,5,0,0,0-3.955,1.943h-1.25l-1.617-2.608a1.3,1.3,0,0,0-1.1-.615h-4.1a1.3,1.3,0,1,0,0,2.6h3.374l1.617,2.608a1.3,1.3,0,0,0,1.1.615h.945c-.014.153-.022.308-.022.464v3.358H29.672a1.3,1.3,0,1,0,0,2.6h3.053v4.067c0,.058,0,.116,0,.174L3.836,119.241c.038-.029.077-.058.117-.085l7.563-5.142a1.3,1.3,0,1,0-1.461-2.149l-7.564,5.141A5.687,5.687,0,0,0,0,121.714V161.98a6.811,6.811,0,0,0,6.8,6.8H81.917a6.81,6.81,0,0,0,6.8-6.8V121.7a5.689,5.689,0,0,0-2.475-4.7Zm-.124,44.972a4.18,4.18,0,0,1-.411,1.812L58.807,137.9l27.314-15.957Zm-32.4-35.754v10.023a9.246,9.246,0,0,1-.16,1.706l-1.173.685a15.689,15.689,0,0,1-6.565,2.106v-3.631h1.94a1.3,1.3,0,0,0,1.3-1.3v-7.152a1.3,1.3,0,0,0-1.3-1.3H44.027v-3.547h7.285a2.41,2.41,0,0,1,2.407,2.407Zm-12.252-7.285a3.054,3.054,0,0,1,6.108,0v2.28H41.467Zm-3.736,4.878h3.7v4.846a1.3,1.3,0,0,0,1.3,1.3h3.734v4.553h-1.94a1.3,1.3,0,0,0-1.3,1.3v4.947a15.7,15.7,0,0,1-6.85-2.173l-.864-.514a9.251,9.251,0,0,1-.184-1.827V126.226A2.41,2.41,0,0,1,37.731,123.819ZM6.8,166.184a4.177,4.177,0,0,1-1.791-.4l7.039-6.775a1.3,1.3,0,1,0-1.8-1.872L3.117,164A4.176,4.176,0,0,1,2.6,161.98V121.714c0-.061,0-.121.006-.181l27.588,16.406L14.249,153.285a1.3,1.3,0,1,0,1.8,1.872l16.458-15.84,2.533,1.506a18.3,18.3,0,0,0,18.658.059l1.672-.977.007,0,1.1-.64L83.92,165.676a4.178,4.178,0,0,1-2,.509H6.8Z" transform="translate(0 -91.6)"/>
      <path id="Path_881381" data-name="Path 881381" d="M83.692,52.54l21.325-14.5a12.359,12.359,0,0,1,14.014.024L141.7,53.6a1.3,1.3,0,1,0,1.469-2.144L120.5,35.925a14.974,14.974,0,0,0-8.467-2.63H112a14.97,14.97,0,0,0-8.449,2.6l-21.325,14.5a1.3,1.3,0,1,0,1.461,2.149Z" transform="translate(-67.513 -33.295)"/>
    </g>
  </g>
</svg>
