<svg id="Group_1103623" data-name="Group 1103623" xmlns="http://www.w3.org/2000/svg" width="122.486" height="122.486" viewBox="0 0 122.486 122.486">
  <rect id="Rectangle_402033" data-name="Rectangle 402033" width="122.486" height="122.486" rx="5" transform="translate(0)" fill="#bfa2f7"/>
  <g id="Group_1104982" data-name="Group 1104982" transform="translate(24.365 24.587)">
    <g id="Group_1104980" data-name="Group 1104980" transform="translate(2.147 2.147)">
      <g id="Group_1104971" data-name="Group 1104971" transform="translate(19.503 61.951)">
        <path id="Path_881394" data-name="Path 881394" d="M48.828,60.589v2.294H19V60.589A4.588,4.588,0,0,1,23.589,56h2.294v2.294H41.945V56h2.294A4.588,4.588,0,0,1,48.828,60.589Z" transform="translate(-19 -56)" fill="#969faa"/>
      </g>
      <g id="Group_1104972" data-name="Group 1104972" transform="translate(26.387 55.068)">
        <path id="Path_881395" data-name="Path 881395" d="M41.061,56.883v2.294H25V50H41.061Z" transform="translate(-25 -50)" fill="#aab2bd"/>
      </g>
      <g id="Group_1104973" data-name="Group 1104973" transform="translate(0 45.89)">
        <path id="Path_881396" data-name="Path 881396" d="M45.664,46.325a18.336,18.336,0,0,0,3.075.264,12.885,12.885,0,0,0,6.275-1.629,12.278,12.278,0,0,0,2.9-2.2c.252-.241.482-.493.711-.757H70.834v6.883a2.3,2.3,0,0,1-2.294,2.294H4.294A2.3,2.3,0,0,1,2,48.883V42H36.417l.6.47a18.535,18.535,0,0,0,8.65,3.855Z" transform="translate(-2 -42)" fill="#ccd1d9"/>
      </g>
      <g id="Group_1104974" data-name="Group 1104974" transform="translate(44.639 20.65)">
        <path id="Path_881397" data-name="Path 881397" d="M54.161,30.566a12.643,12.643,0,0,0-3.74-4.027l-5.277-3.625L40.91,20h21.9a2.3,2.3,0,0,1,2.294,2.294V45.239H52.9a12.957,12.957,0,0,0,1.1-1.5,12.678,12.678,0,0,0,.459-12.643c-.092-.184-.2-.356-.3-.528Z" transform="translate(-40.91 -20)" fill="#69d6f4"/>
      </g>
      <g id="Group_1104975" data-name="Group 1104975" transform="translate(22.945 41.301)">
        <path id="Path_881398" data-name="Path 881398" d="M32.038,41.442l1.434,1.147H22v-.677a3.913,3.913,0,0,1,2.122-3.476A3.855,3.855,0,0,1,25.912,38a5.2,5.2,0,0,1,3.247,1.136Z" transform="translate(-22 -38)" fill="#69d6f4"/>
      </g>
      <g id="Group_1104976" data-name="Group 1104976" transform="translate(0 20.65)">
        <path id="Path_881399" data-name="Path 881399" d="M27.687,31.472a12.055,12.055,0,0,0-9.8,5.048l-.149.218a10.612,10.612,0,0,0-1.973,6.2v2.306H2V22.294A2.3,2.3,0,0,1,4.294,20H30.956a9.347,9.347,0,0,0,2.685,2.811L49.7,33.8a3.758,3.758,0,0,1,1.629,3.109v.069a3.675,3.675,0,0,1-3.706,3.671h-.161A9.248,9.248,0,0,1,42,38.872l-6.941-5.048a12.283,12.283,0,0,0-7.228-2.352h-.149Z" transform="translate(-2 -20)" fill="#69d6f4"/>
      </g>
      <g id="Group_1104977" data-name="Group 1104977" transform="translate(13.767 2.294)">
        <path id="Path_881400" data-name="Path 881400" d="M56.15,48.352a12.278,12.278,0,0,1-2.9,2.2,12.885,12.885,0,0,1-6.275,1.629A18.337,18.337,0,0,1,43.9,51.92a18.535,18.535,0,0,1-8.65-3.855l-.6-.47-1.434-1.147-2.88-2.306a5.2,5.2,0,0,0-3.247-1.136,3.855,3.855,0,0,0-1.79.436,3.913,3.913,0,0,0-2.122,3.476V47.6H14V45.289a10.612,10.612,0,0,1,1.973-6.2l.149-.218a12.055,12.055,0,0,1,9.8-5.048h.149A12.283,12.283,0,0,1,33.3,36.18l6.941,5.048A9.248,9.248,0,0,0,45.7,43.006h.161a3.675,3.675,0,0,0,3.706-3.671v-.069a3.758,3.758,0,0,0-1.629-3.109L31.874,25.167a9.46,9.46,0,0,1-4.107-7.79,9.435,9.435,0,0,1,4.589-8.1l.252-.149a5.737,5.737,0,0,0,10.073,1.755,5.669,5.669,0,0,0,1.147-3.442,5.406,5.406,0,0,0-.115-1.147A5.643,5.643,0,0,0,42.681,4a16.512,16.512,0,0,1,8.524,2.363h.011a3.7,3.7,0,0,1-.528,6.6L43.335,15.9a2.852,2.852,0,0,0-1.686,1.87,2.592,2.592,0,0,0-.115.792,2.834,2.834,0,0,0,1.239,2.352l2.1,1.446,4.233,2.914L54.383,28.9a12.643,12.643,0,0,1,3.74,4.027c.1.172.207.344.3.528a12.678,12.678,0,0,1-.459,12.643,12.958,12.958,0,0,1-1.1,1.5c-.229.264-.459.516-.711.757Z" transform="translate(-14 -4)" fill="#ff826e"/>
      </g>
      <g id="Group_1104978" data-name="Group 1104978" transform="translate(32.237)">
        <path id="Path_881401" data-name="Path 881401" d="M36.983,7.736V6.589h4.474a5.643,5.643,0,0,0-1.033-2.294,5.737,5.737,0,0,0-10.21,2.294A5.406,5.406,0,0,0,30.1,7.736a5.882,5.882,0,0,0,.252,1.686,5.737,5.737,0,0,0,10.073,1.755A3.437,3.437,0,0,1,36.983,7.736Z" transform="translate(-30.1 -2)" fill="#fcd770"/>
      </g>
      <g id="Group_1104979" data-name="Group 1104979" transform="translate(39.006 4.589)">
        <path id="Path_881402" data-name="Path 881402" d="M40.589,7.147a5.669,5.669,0,0,1-1.147,3.442A3.437,3.437,0,0,1,36,7.147V6h4.474A5.406,5.406,0,0,1,40.589,7.147Z" transform="translate(-36 -6)" fill="#e6e9ed"/>
      </g>
    </g>
    <g id="Group_1104981" data-name="Group 1104981" transform="translate(1 1)">
      <path id="Path_881403" data-name="Path 881403" d="M68.687,21.65H47.142l-1.8-1.24a1.714,1.714,0,0,1,.333-3l7.354-2.942a4.815,4.815,0,0,0,3.042-4.491A4.865,4.865,0,0,0,53.709,5.82a17.709,17.709,0,0,0-8.57-2.507,6.861,6.861,0,0,0-11.91,5.734,10.543,10.543,0,0,0-3.975,12.6H4.442A3.446,3.446,0,0,0,1,25.092V54.92a3.446,3.446,0,0,0,3.442,3.442H27.387v4.589H26.239A5.743,5.743,0,0,0,20.5,68.687v3.442H52.626V68.687a5.743,5.743,0,0,0-5.736-5.736H45.742V58.362H68.687a3.446,3.446,0,0,0,3.442-3.442V25.092A3.446,3.446,0,0,0,68.687,21.65Zm0,2.294a1.148,1.148,0,0,1,1.147,1.147v21.8H60.994a13.834,13.834,0,0,0-4.046-18.5l-6.468-4.447ZM42.3,11.835a4.542,4.542,0,0,1-2.294.638,4.594,4.594,0,0,1-4.589-4.589h4.589A4.574,4.574,0,0,0,42.3,11.835ZM44,10.091a2.292,2.292,0,0,1-1.7-2.207H44.6A4.53,4.53,0,0,1,44,10.091Zm-4-6.8a4.574,4.574,0,0,1,3.951,2.294h-7.9A4.571,4.571,0,0,1,40.006,3.294ZM34.027,11.28a6.879,6.879,0,0,0,12.863-3.4,6.806,6.806,0,0,0-.356-2.167,15.445,15.445,0,0,1,6,2.077,2.543,2.543,0,0,1-.364,4.543L44.82,15.277a3.989,3.989,0,0,0-2.013,1.785H35.417v2.294h6.927A3.99,3.99,0,0,0,44.039,22.3l5.344,3.673-2.264,3.017,1.836,1.377,2.32-3.093,4.373,3.007a11.5,11.5,0,0,1,2.644,2.55l-3.8,1.519.851,2.13,4.16-1.663a11.477,11.477,0,0,1-.6,11.109,12.042,12.042,0,0,1-.756,1.055l-2.307-3.077L54,45.283l2.526,3.368a11.723,11.723,0,0,1-7.642,2.827c-.554,0-1.106-.032-1.654-.085L48,48.314l-2.224-.555-.815,3.259a17.683,17.683,0,0,1-7.089-3.4l-1.159-.927,1.914-2.551L36.794,42.76l-1.871,2.494-1.958-1.567A6.368,6.368,0,0,0,29.009,42.3a5.164,5.164,0,0,0-.99.1l-.668-2.668-2.224.555.778,3.109a5.131,5.131,0,0,0-.476.391,5.015,5.015,0,0,0-1.437,3.106H17.059V45.727A9.4,9.4,0,0,1,18.821,40.2l.155-.216a10.9,10.9,0,0,1,8.849-4.573h.159a11.09,11.09,0,0,1,6.551,2.134L41.476,42.6a10.377,10.377,0,0,0,6.142,2h.159a4.828,4.828,0,0,0,4.848-4.888,4.916,4.916,0,0,0-2.134-4.061L34.439,24.662a8.286,8.286,0,0,1-.412-13.381ZM27.05,45.406a3.452,3.452,0,0,1,4.481.073l1.762,1.41H26.285A2.743,2.743,0,0,1,27.05,45.406ZM3.294,25.092a1.148,1.148,0,0,1,1.147-1.147H30.494a10.557,10.557,0,0,0,2.649,2.611L49.2,37.54a2.655,2.655,0,0,1,1.135,2.235,2.5,2.5,0,0,1-.741,1.785,2.555,2.555,0,0,1-1.815.741h-.158a8.106,8.106,0,0,1-4.794-1.559l-6.941-5.047a13.367,13.367,0,0,0-7.9-2.573h-.162a13.2,13.2,0,0,0-10.713,5.532l-.155.216a11.689,11.689,0,0,0-2.192,6.862l0,1.159H3.294Zm43.6,40.153a3.446,3.446,0,0,1,3.442,3.442v1.147H22.8V68.687a3.446,3.446,0,0,1,3.442-3.442h1.147V67.54H45.742V65.245Zm-3.442,0H29.681V58.362H43.448Zm25.239-9.178H4.442A1.148,1.148,0,0,1,3.294,54.92V49.184H36.162l.279.223a19.994,19.994,0,0,0,12.446,4.366,13.986,13.986,0,0,0,10.378-4.589h10.57V54.92A1.148,1.148,0,0,1,68.687,56.068Z" transform="translate(-1 -1)"/>
      <path id="Path_881404" data-name="Path 881404" d="M5,23H7.294v2.294H5Z" transform="translate(-0.411 2.239)"/>
      <path id="Path_881405" data-name="Path 881405" d="M9,23H22.767v2.294H9Z" transform="translate(0.178 2.239)"/>
      <path id="Path_881406" data-name="Path 881406" d="M9,27h9.178v2.294H9Z" transform="translate(0.178 2.828)"/>
      <path id="Path_881407" data-name="Path 881407" d="M9,31h2.294v2.294H9Z" transform="translate(0.178 3.417)"/>
      <path id="Path_881408" data-name="Path 881408" d="M13,31h2.294v2.294H13Z" transform="translate(0.767 3.417)"/>
    </g>
  </g>
</svg>
