<svg xmlns="http://www.w3.org/2000/svg" width="100" height="100" viewBox="0 0 100 100">
  <g id="Group_1100965" data-name="Group 1100965" transform="translate(0.242)">
    <g id="Group_1098742" data-name="Group 1098742" transform="translate(0)">
      <rect id="Rectangle_400898" data-name="Rectangle 400898" width="100" height="100" rx="50" transform="translate(-0.242)" fill="#fff" opacity="0.859"/>
      <g id="Rectangle_400907" data-name="Rectangle 400907" transform="translate(-0.242)" fill="none" stroke="#6018ec" stroke-linecap="round" stroke-width="2" stroke-dasharray="7">
        <rect width="100" height="100" rx="50" stroke="none"/>
        <rect x="1" y="1" width="98" height="98" rx="49" fill="none"/>
      </g>
    </g>
    <g id="Group_1105042" data-name="Group 1105042" transform="translate(20.088 20.329)">
      <path id="Path_881560" data-name="Path 881560" d="M25.5,312.234l-16.841,0A1.159,1.159,0,0,1,7.5,311.079V288.772a1.739,1.739,0,0,1,1.738-1.738H23.761a1.739,1.739,0,0,1,1.738,1.738l1.8,16.262Z" transform="translate(-6.63 -253.766)" fill="#c8effe"/>
      <path id="Path_881561" data-name="Path 881561" d="M335.456,312.234l16.841,0a1.159,1.159,0,0,0,1.159-1.159V288.772a1.739,1.739,0,0,0-1.738-1.738H337.194a1.739,1.739,0,0,0-1.738,1.738l-1.8,16.262Z" transform="translate(-294.986 -253.766)" fill="#99e6fc"/>
      <path id="Path_881562" data-name="Path 881562" d="M25.5,288.772a1.739,1.739,0,0,0-1.738-1.738H22.95v18.179a4.7,4.7,0,0,1-4.7,4.7l-10.747,0v1.159a1.159,1.159,0,0,0,1.159,1.159l16.841,0,1.8-7.2Z" transform="translate(-6.631 -253.766)" fill="#99e6fc"/>
      <path id="Path_881563" data-name="Path 881563" d="M361.029,287.034h-.811v18.181a4.7,4.7,0,0,1-4.7,4.7l-11.325,0,.579,2.318,16.841,0a1.159,1.159,0,0,0,1.159-1.159V288.772A1.738,1.738,0,0,0,361.029,287.034Z" transform="translate(-304.298 -253.766)" fill="#62dbfb"/>
      <path id="Path_881564" data-name="Path 881564" d="M184.413,202.386h-7.2l-3.6-1.8-3.6,1.8h-7.2V163.364a.58.58,0,0,1,.579-.579h20.441a.58.58,0,0,1,.579.579Z" transform="translate(-143.943 -143.917)" fill="#dff6fd"/>
      <path id="Path_881565" data-name="Path 881565" d="M183.833,162.785h-2.9v33.176a4.106,4.106,0,0,1-4.106,4.106H162.812v2.318h7.2l3.6-1.8,3.6,1.8h7.2V163.364a.579.579,0,0,0-.579-.579Z" transform="translate(-143.943 -143.917)" fill="#c8effe"/>
      <g id="Group_1105041" data-name="Group 1105041" transform="translate(22.47 22.471)">
        <path id="Path_881566" data-name="Path 881566" d="M207.7,197.476H194.454a.58.58,0,0,1-.579-.579v-2.441a.58.58,0,0,1,.579-.579H207.7a.58.58,0,0,1,.579.579V196.9A.58.58,0,0,1,207.7,197.476Z" transform="translate(-193.875 -193.876)" fill="#01c0fa"/>
        <path id="Path_881567" data-name="Path 881567" d="M207.7,259.6H194.454a.58.58,0,0,1-.579-.579v-2.441a.58.58,0,0,1,.579-.579H207.7a.58.58,0,0,1,.579.579v2.441A.58.58,0,0,1,207.7,259.6Z" transform="translate(-193.875 -248.8)" fill="#01c0fa"/>
        <path id="Path_881568" data-name="Path 881568" d="M207.7,321.726H194.454a.58.58,0,0,1-.579-.579v-2.441a.58.58,0,0,1,.579-.579H207.7a.58.58,0,0,1,.579.579v2.441A.58.58,0,0,1,207.7,321.726Z" transform="translate(-193.875 -303.726)" fill="#01c0fa"/>
        <path id="Path_881569" data-name="Path 881569" d="M207.7,383.85H194.454a.58.58,0,0,1-.579-.579v-2.441a.58.58,0,0,1,.579-.579H207.7a.58.58,0,0,1,.579.579v2.441A.58.58,0,0,1,207.7,383.85Z" transform="translate(-193.875 -358.65)" fill="#01c0fa"/>
      </g>
      <path id="Path_881570" data-name="Path 881570" d="M232.137,449.575h-7.2v-6.041a1.159,1.159,0,0,1,1.159-1.159h4.882a1.159,1.159,0,0,1,1.159,1.159Z" transform="translate(-198.867 -391.103)" fill="#0055a3"/>
      <path id="Path_881571" data-name="Path 881571" d="M231.755,484.337h-6.817v2.318l0,0h7.19l0,0v-2.336Q231.949,484.337,231.755,484.337Z" transform="translate(-198.868 -428.186)" fill="#004281"/>
      <path id="Path_881572" data-name="Path 881572" d="M201.525,7.8l1.824,3.512a.556.556,0,0,0,.4.291l3.984.7a.556.556,0,0,1,.291.946L205.191,16a.556.556,0,0,0-.162.484l.631,4.04a.556.556,0,0,1-.81.577l-3.558-1.89a.556.556,0,0,0-.521,0l-3.558,1.89a.556.556,0,0,1-.81-.577l.631-4.04a.556.556,0,0,0-.162-.484l-2.829-2.752a.556.556,0,0,1,.291-.946l3.984-.7a.556.556,0,0,0,.4-.291L200.539,7.8A.556.556,0,0,1,201.525,7.8Z" transform="translate(-171.405 -6.629)" fill="#ffc344"/>
      <path id="Path_881573" data-name="Path 881573" d="M46.947,7.8l1.824,3.512a.556.556,0,0,0,.4.291l3.984.7a.556.556,0,0,1,.291.946L50.613,16a.556.556,0,0,0-.162.484l.631,4.04a.556.556,0,0,1-.81.577l-3.558-1.89a.556.556,0,0,0-.521,0L42.635,21.1a.556.556,0,0,1-.81-.577l.631-4.04A.556.556,0,0,0,42.294,16L39.465,13.25a.556.556,0,0,1,.291-.946l3.984-.7a.556.556,0,0,0,.4-.291L45.96,7.8a.556.556,0,0,1,.987,0Z" transform="translate(-34.742 -6.629)" fill="#ffc344"/>
      <path id="Path_881574" data-name="Path 881574" d="M355.851,7.8l-1.824,3.512a.556.556,0,0,1-.4.291l-3.984.7a.556.556,0,0,0-.291.946L352.185,16a.556.556,0,0,1,.162.484l-.631,4.04a.556.556,0,0,0,.81.577l3.558-1.89a.556.556,0,0,1,.521,0l3.558,1.89a.556.556,0,0,0,.81-.577l-.631-4.04A.556.556,0,0,1,360.5,16l2.829-2.752a.556.556,0,0,0-.291-.946l-3.984-.7a.556.556,0,0,1-.4-.291L356.838,7.8A.556.556,0,0,0,355.851,7.8Z" transform="translate(-308.717 -6.629)" fill="#ffc344"/>
      <path id="Path_881575" data-name="Path 881575" d="M31.931,327.866h10.8a.869.869,0,0,0,0-1.738h-10.8a.869.869,0,0,0,0,1.738Z" transform="translate(-27.462 -288.329)"/>
      <path id="Path_881576" data-name="Path 881576" d="M31.931,358.929h10.8a.869.869,0,0,0,0-1.738h-10.8a.869.869,0,0,0,0,1.738Z" transform="translate(-27.462 -315.792)"/>
      <path id="Path_881577" data-name="Path 881577" d="M31.931,389.991h10.8a.869.869,0,0,0,0-1.738h-10.8a.869.869,0,0,0,0,1.738Z" transform="translate(-27.462 -343.254)"/>
      <path id="Path_881578" data-name="Path 881578" d="M31.931,421.082h10.8a.869.869,0,0,0,0-1.738h-10.8a.869.869,0,0,0,0,1.738Z" transform="translate(-27.462 -370.742)"/>
      <path id="Path_881579" data-name="Path 881579" d="M56.732,169.685H42.208a2.6,2.6,0,0,0-.869.149v-13.1a1.45,1.45,0,0,0-1.449-1.449H19.449A1.45,1.45,0,0,0,18,156.734V162.5a.869.869,0,1,0,1.738,0v-5.479H39.6v37.862H34.139v-5.169a2.031,2.031,0,0,0-2.028-2.028H27.229a2.031,2.031,0,0,0-2.028,2.028v5.169H19.739V166.559a.869.869,0,1,0-1.738,0v3.275a2.6,2.6,0,0,0-.869-.149H2.608A2.611,2.611,0,0,0,0,172.293v11.426a.869.869,0,1,0,1.738,0V172.293a.87.87,0,0,1,.869-.869H17.131a.87.87,0,0,1,.869.869v22.593l-15.972,0a.289.289,0,0,1-.29-.29v-6.824a.869.869,0,1,0-1.738,0V194.6a2.028,2.028,0,0,0,2.028,2.028H57.311a2.028,2.028,0,0,0,2.028-2.028V172.293A2.611,2.611,0,0,0,56.732,169.685ZM32.4,189.717v5.172H30.539v-5.462h1.572A.29.29,0,0,1,32.4,189.717Zm-5.462,0a.29.29,0,0,1,.29-.29H28.8v5.462H26.939ZM57.6,194.6a.29.29,0,0,1-.29.29l-15.972,0V172.293a.87.87,0,0,1,.869-.869H56.732a.87.87,0,0,1,.869.869Z" transform="translate(0 -137.286)"/>
      <path id="Path_881580" data-name="Path 881580" d="M384.419,326.128h-10.8a.869.869,0,0,0,0,1.738h10.8a.869.869,0,1,0,0-1.738Z" transform="translate(-329.549 -288.329)"/>
      <path id="Path_881581" data-name="Path 881581" d="M384.419,357.191h-10.8a.869.869,0,0,0,0,1.738h10.8a.869.869,0,1,0,0-1.738Z" transform="translate(-329.549 -315.792)"/>
      <path id="Path_881582" data-name="Path 881582" d="M384.419,388.253h-10.8a.869.869,0,0,0,0,1.738h10.8a.869.869,0,1,0,0-1.738Z" transform="translate(-329.549 -343.254)"/>
      <path id="Path_881583" data-name="Path 881583" d="M384.419,419.344h-10.8a.869.869,0,0,0,0,1.738h10.8a.869.869,0,1,0,0-1.738Z" transform="translate(-329.549 -370.742)"/>
      <path id="Path_881584" data-name="Path 881584" d="M187.824,191.714h13.241a1.45,1.45,0,0,0,1.449-1.449v-2.441a1.45,1.45,0,0,0-1.449-1.449H187.824a1.45,1.45,0,0,0-1.449,1.449v2.441A1.45,1.45,0,0,0,187.824,191.714Zm.29-3.6h12.662v1.862H188.113Z" transform="translate(-164.775 -164.774)"/>
      <path id="Path_881585" data-name="Path 881585" d="M186.375,252.39a1.45,1.45,0,0,0,1.449,1.449h13.241a1.45,1.45,0,0,0,1.449-1.449v-2.441a1.45,1.45,0,0,0-1.449-1.449H187.824a1.45,1.45,0,0,0-1.449,1.449Zm1.738-2.151h12.662V252.1H188.113Z" transform="translate(-164.775 -219.698)"/>
      <path id="Path_881586" data-name="Path 881586" d="M186.375,314.516a1.45,1.45,0,0,0,1.449,1.449h13.241a1.45,1.45,0,0,0,1.449-1.449v-2.441a1.45,1.45,0,0,0-1.449-1.449H187.824a1.45,1.45,0,0,0-1.449,1.449Zm1.738-2.151h12.662v1.862H188.113Z" transform="translate(-164.775 -274.624)"/>
      <path id="Path_881587" data-name="Path 881587" d="M186.375,376.64a1.45,1.45,0,0,0,1.449,1.449h13.241a1.45,1.45,0,0,0,1.449-1.449V374.2a1.45,1.45,0,0,0-1.449-1.449H199.2a.869.869,0,0,0,0,1.738h1.572v1.862H188.113v-1.862h7.034a.869.869,0,1,0,0-1.738h-7.323a1.45,1.45,0,0,0-1.449,1.449Z" transform="translate(-164.775 -329.548)"/>
      <path id="Path_881588" data-name="Path 881588" d="M186.8,7.249l2.713,2.639-.606,3.88a1.425,1.425,0,0,0,2.076,1.479l3.412-1.812,3.411,1.812a1.425,1.425,0,0,0,2.077-1.478l-.606-3.88,2.713-2.639a1.426,1.426,0,0,0-.746-2.425l-3.832-.675L195.664.774h0a1.426,1.426,0,0,0-2.529,0l-1.752,3.374-3.832.675a1.426,1.426,0,0,0-.746,2.425Zm5.032-1.415a1.433,1.433,0,0,0,1.017-.747L194.4,2.111l1.545,2.976a1.434,1.434,0,0,0,1.017.746l3.381.6-2.39,2.325A1.427,1.427,0,0,0,197.538,10l.535,3.421-3.005-1.6a1.423,1.423,0,0,0-1.337,0l-3.005,1.6L191.26,10a1.427,1.427,0,0,0-.414-1.242l-2.39-2.325Z" transform="translate(-164.772 -0.004)"/>
      <path id="Path_881589" data-name="Path 881589" d="M32.226,7.245l2.713,2.639-.606,3.88a1.426,1.426,0,0,0,2.076,1.478l3.412-1.812,3.411,1.812a1.425,1.425,0,0,0,2.076-1.478L44.7,9.883l2.713-2.639a1.426,1.426,0,0,0-.746-2.425l-3.832-.675L41.085.77a1.425,1.425,0,0,0-2.529,0L36.8,4.144l-3.832.675a1.426,1.426,0,0,0-.746,2.425ZM37.258,5.83a1.434,1.434,0,0,0,1.017-.747L39.82,2.107l1.545,2.976a1.433,1.433,0,0,0,1.017.747l3.381.6L43.374,8.75a1.427,1.427,0,0,0-.415,1.242l.534,3.421-3-1.6a1.423,1.423,0,0,0-1.337,0l-3.005,1.6.535-3.421a1.428,1.428,0,0,0-.414-1.242l-2.39-2.324Z" transform="translate(-28.109 0)"/>
      <path id="Path_881590" data-name="Path 881590" d="M342.117,7.249l2.713,2.639-.606,3.88a1.425,1.425,0,0,0,2.076,1.479l3.412-1.812,3.411,1.812a1.425,1.425,0,0,0,2.076-1.478l-.606-3.88,2.713-2.639a1.426,1.426,0,0,0-.746-2.425l-3.832-.675L350.977.774a1.426,1.426,0,0,0-2.529,0L346.7,4.149l-3.832.675a1.426,1.426,0,0,0-.746,2.425Zm5.032-1.415a1.433,1.433,0,0,0,1.017-.747l1.545-2.976,1.545,2.976a1.434,1.434,0,0,0,1.017.746l3.381.6-2.39,2.325A1.427,1.427,0,0,0,352.851,10l.534,3.421-3.005-1.6a1.423,1.423,0,0,0-1.337,0l-3.005,1.6L346.573,10a1.427,1.427,0,0,0-.414-1.242l-2.39-2.325Z" transform="translate(-302.085 -0.004)"/>
    </g>
  </g>
</svg>
