<svg xmlns="http://www.w3.org/2000/svg" width="100" height="100" viewBox="0 0 100 100">
  <g id="Group_1100965" data-name="Group 1100965" transform="translate(0.242)">
    <g id="Group_1098742" data-name="Group 1098742" transform="translate(0)">
      <rect id="Rectangle_400898" data-name="Rectangle 400898" width="100" height="100" rx="50" transform="translate(-0.242)" fill="#fff" opacity="0.859"/>
      <g id="Rectangle_400907" data-name="Rectangle 400907" transform="translate(-0.242)" fill="none" stroke="#6018ec" stroke-linecap="round" stroke-width="2" stroke-dasharray="7">
        <rect width="100" height="100" rx="50" stroke="none"/>
        <rect x="1" y="1" width="98" height="98" rx="49" fill="none"/>
      </g>
    </g>
    <g id="Group_1105053" data-name="Group 1105053" transform="translate(21.726 21.926)">
      <g id="Group_1105051" data-name="Group 1105051" transform="translate(0.822 0.869)">
        <path id="Path_881606" data-name="Path 881606" d="M103.758,198.6H63.086a4.252,4.252,0,0,0-4.251,4.252V204.2l6.628,6.674h38.453l3.716-6.674v-1.718A3.874,3.874,0,0,0,103.758,198.6Z" transform="translate(-53.21 -177.671)" fill="#b3dafe"/>
        <path id="Path_881607" data-name="Path 881607" d="M104.216,210.33v-11.7a3.905,3.905,0,0,0-.458-.028H63.086a4.252,4.252,0,0,0-4.251,4.252V204.2l6.628,6.674h38.453Z" transform="translate(-53.21 -177.671)" fill="#8ac9fe"/>
        <g id="XMLID_200_" transform="translate(5.625 26.525)">
          <g id="Group_1105048" data-name="Group 1105048">
            <path id="Path_881608" data-name="Path 881608" d="M107.631,249.635v24.012a3.874,3.874,0,0,1-3.873,3.873H62.708a3.873,3.873,0,0,1-3.873-3.873V249.635Z" transform="translate(-58.835 -249.635)" fill="#f9f7f8"/>
          </g>
        </g>
        <path id="Path_881609" data-name="Path 881609" d="M52.588,132.6h-41.4a3.521,3.521,0,0,0-3.52,3.52V138.2l6.842,6.676H52.464l4-6.676v-1.718A3.874,3.874,0,0,0,52.588,132.6Z" transform="translate(-7.647 -118.903)" fill="#b3dafe"/>
        <g id="Group_1105050" data-name="Group 1105050">
          <g id="XMLID_199_" transform="translate(0.018 13.702)">
            <g id="Group_1105049" data-name="Group 1105049">
              <path id="Path_881610" data-name="Path 881610" d="M104.216,249.635H58.835v22.846H98.152a6.071,6.071,0,0,0,6.064-6.064Z" transform="translate(-53.229 -236.813)" fill="#efedef"/>
              <path id="Path_881611" data-name="Path 881611" d="M11.185,132.6a3.521,3.521,0,0,0-3.52,3.52V138.2l6.842,6.676H30q.216-.25.423-.507a17.954,17.954,0,0,0,3.92-11.176V132.6Z" transform="translate(-7.665 -132.605)" fill="#8ac9fe"/>
              <path id="Path_881612" data-name="Path 881612" d="M56.461,183.635v24.012a3.874,3.874,0,0,1-3.873,3.873H11.538a3.874,3.874,0,0,1-3.873-3.873V183.635h48.8Z" transform="translate(-7.665 -178.044)" fill="#f9f7f8"/>
            </g>
          </g>
          <path id="Path_881613" data-name="Path 881613" d="M7.665,183.635v3.6a17.854,17.854,0,0,0,11.753,8.847l.481.108.481-.108a17.868,17.868,0,0,0,13.243-12.447H7.665Z" transform="translate(-7.647 -164.342)" fill="#efedef"/>
          <path id="Path_881614" data-name="Path 881614" d="M19.752,37.148A15.7,15.7,0,0,1,7.5,21.833V14.32a.868.868,0,0,1,.469-.771L19.353,7.643a.868.868,0,0,1,.8,0l11.384,5.905A.868.868,0,0,1,32,14.32v7.513A15.7,15.7,0,0,1,19.752,37.148Z" transform="translate(-7.5 -7.546)" fill="#d7d0d6"/>
          <circle id="Ellipse_11775" data-name="Ellipse 11775" cx="8.172" cy="8.172" r="8.172" transform="translate(4.08 5.773)" fill="#bbec6c"/>
        </g>
      </g>
      <g id="Group_1105052" data-name="Group 1105052" transform="translate(0 0.048)">
        <path id="Path_881615" data-name="Path 881615" d="M254.477,126.751h11.775a.822.822,0,0,0,0-1.643H254.477a.822.822,0,1,0,0,1.643Z" transform="translate(-225.863 -111.406)"/>
        <path id="Path_881616" data-name="Path 881616" d="M55.39,143.05a.822.822,0,0,0,.822-.822v-5.195a4.7,4.7,0,0,0-4.695-4.695h-.912V129.8a4.7,4.7,0,0,0-4.695-4.695H44.039a.822.822,0,0,0,0,1.643h1.872a3.055,3.055,0,0,1,3.051,3.051v.9H28.085a.822.822,0,0,0,0,1.643H48.962v23.191a3.055,3.055,0,0,1-3.051,3.051H4.861a3.055,3.055,0,0,1-3.051-3.051V137.215a.822.822,0,1,0-1.643,0v18.318a4.7,4.7,0,0,0,4.695,4.695h.912v2.537a4.7,4.7,0,0,0,4.695,4.695h41.05a4.7,4.7,0,0,0,4.695-4.695V145.73a.822.822,0,1,0-1.643,0v17.034a3.055,3.055,0,0,1-3.051,3.051H10.467a3.055,3.055,0,0,1-3.051-3.051v-2.537H45.911a4.7,4.7,0,0,0,4.695-4.695v-15.96h3.963v2.655a.822.822,0,0,0,.822.822Zm-4.785-5.12v-3.947h.912a3.055,3.055,0,0,1,3.051,3.051v.9Z" transform="translate(-0.148 -111.406)"/>
        <path id="Path_881617" data-name="Path 881617" d="M12.894,31.273a.821.821,0,0,0,.361,0,16.437,16.437,0,0,0,5.678-2.465.822.822,0,0,0-.926-1.358,14.8,14.8,0,0,1-4.932,2.178A14.877,14.877,0,0,1,1.644,15.156V7.643A.046.046,0,0,1,1.669,7.6L13.053,1.7a.047.047,0,0,1,.043,0L24.48,7.6a.047.047,0,0,1,.025.042v7.513a14.836,14.836,0,0,1-3.979,10.127.822.822,0,1,0,1.2,1.118,16.475,16.475,0,0,0,4.419-11.245V7.643a1.685,1.685,0,0,0-.912-1.5L13.853.237a1.692,1.692,0,0,0-1.557,0L.912,6.143A1.684,1.684,0,0,0,0,7.643v7.513A16.52,16.52,0,0,0,12.894,31.273Z" transform="translate(0 -0.048)"/>
        <path id="Path_881618" data-name="Path 881618" d="M46.233,52.734a8.994,8.994,0,1,0,8.994,8.994A9,9,0,0,0,46.233,52.734Zm0,16.345a7.351,7.351,0,1,1,7.351-7.351A7.359,7.359,0,0,1,46.233,69.079Z" transform="translate(-33.159 -46.961)"/>
        <path id="Path_881619" data-name="Path 881619" d="M91.172,108.851a.822.822,0,0,0-1.16.077l-4.09,4.67-2.676-1.676a.822.822,0,0,0-.872,1.393l3.269,2.047a.822.822,0,0,0,1.054-.155l4.551-5.2A.822.822,0,0,0,91.172,108.851Z" transform="translate(-73.006 -96.748)"/>
        <path id="Path_881620" data-name="Path 881620" d="M248.188,249.685h-1.353a.822.822,0,0,0,0,1.643h1.353a.822.822,0,1,0,0-1.643Z" transform="translate(-219.058 -222.333)"/>
        <path id="Path_881621" data-name="Path 881621" d="M305.988,251.328a.822.822,0,0,0,0-1.643H294.6a.822.822,0,1,0,0,1.643Z" transform="translate(-261.594 -222.333)"/>
        <path id="Path_881622" data-name="Path 881622" d="M169.821,303.87a.822.822,0,0,0,.822.822h24.965a.822.822,0,0,0,0-1.643H170.643A.822.822,0,0,0,169.821,303.87Z" transform="translate(-151.214 -269.85)"/>
        <path id="Path_881623" data-name="Path 881623" d="M94.954,356.412H57.6a.822.822,0,0,0,0,1.643H94.954a.822.822,0,0,0,0-1.643Z" transform="translate(-50.561 -317.367)"/>
      </g>
    </g>
  </g>
</svg>
