<svg xmlns="http://www.w3.org/2000/svg" width="130" height="137.884" viewBox="0 0 130 137.884">
  <g id="Group_1103695" data-name="Group 1103695" transform="translate(-279.765 -5846.501)">
    <path id="Path_873448" data-name="Path 873448" d="M130,133.973A3.976,3.976,0,0,0,126.024,130H3.976A3.976,3.976,0,0,0,0,133.973v73.452c0,.055,0,.109,0,.163a7.565,7.565,0,0,0,3.453,6.532l57.4,29.89a7.6,7.6,0,0,0,8.277,0l57.4-29.89A7.565,7.565,0,0,0,130,207.589c0-.054,0-.109,0-.163Z" transform="translate(279.765 5739.148)" fill="#fff"/>
    <path id="Path_873449" data-name="Path 873449" d="M121.194,83.7A3.707,3.707,0,0,0,117.487,80H3.707A3.707,3.707,0,0,0,0,83.7V169c0,.051,0,.1,0,.152a7.053,7.053,0,0,0,3.219,6.09l53.516,27.865a7.083,7.083,0,0,0,7.716,0l53.516-27.865a7.053,7.053,0,0,0,3.219-6.09c0-.051,0-.1,0-.152Z" transform="translate(284.765 5774.085)" fill="#6018ec"/>
    <path id="Path_873665" data-name="Path 873665" d="M108.068,12.3A3.305,3.305,0,0,0,104.763,9H3.305A3.305,3.305,0,0,0,0,12.3v89.87c0,.046,0,.091,0,.136a6.289,6.289,0,0,0,2.87,5.43l47.72,24.847a6.316,6.316,0,0,0,6.881,0l47.72-24.847a6.289,6.289,0,0,0,2.87-5.43c0-.045,0-.09,0-.136Z" transform="translate(290.843 5838.004)" fill="none" stroke="#fff" stroke-width="1"/>
    <g id="Group_1105088" data-name="Group 1105088" transform="translate(312.298 5873.366)">
      <g id="Page-1_5_" transform="translate(0 0)">
        <g id="_x30_06---Laptop-Mail-Phishing" transform="translate(0 0)">
          <path id="Shape_9_" d="M61.57,54.008V20.523a3.24,3.24,0,0,0-3.24-3.24H54.008v-3.24a4.284,4.284,0,0,0-1.3-3.055v-.009l-.014-.012c-.033-.032-.058-.073-.094-.108a4.276,4.276,0,0,0-2.916-1.137H42.127V8.641a3.167,3.167,0,0,0-2.16-3.035V1.08a1.08,1.08,0,0,0-2.16,0V5.588a3.381,3.381,0,0,0-2.16,3.182v.952H15.122a4.267,4.267,0,0,0-2.9,1.13c-.037.033-.063.075-.1.108-.006.008-.015.011-.022.018l-.008.014a4.29,4.29,0,0,0-1.29,3.05v3.24H6.481a3.24,3.24,0,0,0-3.24,3.24V54.009A3.24,3.24,0,0,0,0,57.249v2.16a5.407,5.407,0,0,0,5.4,5.4H59.409a5.407,5.407,0,0,0,5.4-5.4v-2.16a3.24,3.24,0,0,0-3.24-3.24ZM39.957,42.094a7.756,7.756,0,0,1-7.032,7.575,7.5,7.5,0,0,1-5.673-2.013,7.6,7.6,0,0,1-2.408-5.529V35.645a.821.821,0,0,1,.019-.175.568.568,0,0,1,.418-.455.825.825,0,0,1,.83.184l3.69,3.687H28.084a1.066,1.066,0,0,0-.367.075.089.089,0,0,0-.046.009,1.016,1.016,0,0,0-.648.921c0,.026-.015.049-.015.076v1.977a2.124,2.124,0,0,0,.014.278,5.393,5.393,0,0,0,10.784-.094v-1.08h2.151v1.048ZM29.165,41.046h6.481v1.08a3.25,3.25,0,0,1-1.063,2.4,3.2,3.2,0,0,1-2.5.822,3.322,3.322,0,0,1-2.911-3.261,1.1,1.1,0,0,0-.01-.145Zm2.773-2.16a2.145,2.145,0,0,0-.612-1.528l-3.683-3.683a2.966,2.966,0,0,0-3.024-.711,2.685,2.685,0,0,0-1.877,2.121,2.781,2.781,0,0,0-.056.561v3.24H15.122c-.053,0-.108-.011-.157-.015l15.051-12.1,1.041.837a2.16,2.16,0,0,0,2.694,0l1.041-.837,15.051,12.1c-.052,0-.108.015-.157.015Zm-3.644-13.5L13.137,37.569a2.152,2.152,0,0,1-.175-.844V14.042a2.133,2.133,0,0,1,.176-.842ZM51.673,13.2a2.152,2.152,0,0,1,.175.844V36.726a2.133,2.133,0,0,1-.176.842L36.517,25.384ZM37.806,8.77A1.162,1.162,0,0,1,38.7,7.582a1.08,1.08,0,0,1,1.268,1.06v1.08h-2.16Zm11.882,3.112c.053,0,.108.011.157.015L34.115,24.542l-1.7,1.382L14.966,11.9c.052,0,.108-.015.157-.015ZM5.4,20.523a1.08,1.08,0,0,1,1.08-1.08H10.8V36.726a4.284,4.284,0,0,0,1.3,3.055v.009l.012.01c.035.033.06.075.1.108a4.277,4.277,0,0,0,2.916,1.14h7.561v1.08a9.762,9.762,0,0,0,3.094,7.108,9.6,9.6,0,0,0,6.605,2.614c.227,0,.457-.006.686-.023a9.937,9.937,0,0,0,9.047-9.7v-1.08h7.572a4.266,4.266,0,0,0,2.9-1.13c.038-.035.065-.077.1-.108,0-.006.013-.009.018-.015l.008-.014a4.289,4.289,0,0,0,1.29-3.054V19.443h4.321a1.08,1.08,0,0,1,1.08,1.08V54.008H5.4ZM42.127,56.169,40.83,57.9a1.08,1.08,0,0,1-.864.432H24.844a1.08,1.08,0,0,1-.864-.432l-1.3-1.728Zm20.523,3.24a3.24,3.24,0,0,1-3.24,3.24H5.4a3.24,3.24,0,0,1-3.24-3.24v-2.16a1.08,1.08,0,0,1,1.08-1.08H19.983l2.268,3.024a3.256,3.256,0,0,0,2.592,1.3H39.966a3.251,3.251,0,0,0,2.592-1.3l2.268-3.024H61.57a1.08,1.08,0,0,1,1.08,1.08v2.16Z" transform="translate(0 0)" fill="#fff"/>
          <g id="Group_1105087" data-name="Group 1105087" transform="translate(4.321 58.329)">
            <circle id="Oval_4_" cx="1.08" cy="1.08" r="1.08" fill="#fff"/>
            <circle id="Oval_3_" cx="1.08" cy="1.08" r="1.08" transform="translate(4.321)" fill="#fff"/>
            <path id="Path_9_" d="M127.33,548.68h-4.321a1.08,1.08,0,1,0,0,2.16h4.321a1.08,1.08,0,1,0,0-2.16Z" transform="translate(-113.288 -548.68)" fill="#fff" fill-rule="evenodd"/>
          </g>
        </g>
      </g>
    </g>
  </g>
</svg>
