<svg xmlns="http://www.w3.org/2000/svg" width="130" height="137.884" viewBox="0 0 130 137.884">
  <g id="Group_1103694" data-name="Group 1103694" transform="translate(-280.01 -5846.501)">
    <path id="Path_873448" data-name="Path 873448" d="M130,133.973A3.976,3.976,0,0,0,126.024,130H3.976A3.976,3.976,0,0,0,0,133.973v73.452c0,.055,0,.109,0,.163a7.565,7.565,0,0,0,3.453,6.532l57.4,29.89a7.6,7.6,0,0,0,8.277,0l57.4-29.89A7.565,7.565,0,0,0,130,207.589c0-.054,0-.109,0-.163Z" transform="translate(280.01 5739.148)" fill="#fff"/>
    <path id="Path_873449" data-name="Path 873449" d="M121.194,83.7A3.707,3.707,0,0,0,117.487,80H3.707A3.707,3.707,0,0,0,0,83.7V169c0,.051,0,.1,0,.152a7.053,7.053,0,0,0,3.219,6.09l53.516,27.865a7.083,7.083,0,0,0,7.716,0l53.516-27.865a7.053,7.053,0,0,0,3.219-6.09c0-.051,0-.1,0-.152Z" transform="translate(284.343 5774.085)" fill="#6018ec"/>
    <path id="Path_873665" data-name="Path 873665" d="M108.068,12.3A3.305,3.305,0,0,0,104.763,9H3.305A3.305,3.305,0,0,0,0,12.3v89.87c0,.046,0,.091,0,.136a6.289,6.289,0,0,0,2.87,5.43l47.72,24.847a6.316,6.316,0,0,0,6.881,0l47.72-24.847a6.289,6.289,0,0,0,2.87-5.43c0-.045,0-.09,0-.136Z" transform="translate(290.843 5838.004)" fill="none" stroke="#fff" stroke-width="1"/>
    <g id="Group_1105097" data-name="Group 1105097" transform="translate(310.008 5878.412)">
      <g id="Group_1105096" data-name="Group 1105096" transform="translate(5.785 0)">
        <path id="Path_881795" data-name="Path 881795" d="M64.21,58.47l-1.618-12.7A14.116,14.116,0,0,0,56.32,35.734l-6.7-4.4.54-.255c2.946-1.4,5.386-5.6,3.854-8.841l-7-14.8A13.218,13.218,0,0,0,35.2,0h-.4A13.219,13.219,0,0,0,22.983,7.446l-6.994,14.8c-.782,1.651-.326,4.016.471,5.568a8.011,8.011,0,0,0,3.93,3.53l-6.707,4.4A14.133,14.133,0,0,0,7.411,45.777L5.794,58.47a1.168,1.168,0,0,0,1.158,1.315H30.286a1.168,1.168,0,1,0,0-2.335H21.033V49.6a1.168,1.168,0,1,0-2.335,0V57.45H8.278l1.45-11.377a11.8,11.8,0,0,1,5.235-8.379l7.9-5.178,8.573,4.069a8.446,8.446,0,0,0,7.162.007l8.587-4.058,7.857,5.154a11.784,11.784,0,0,1,5.235,8.377L61.725,57.45H51.305V49.6a1.168,1.168,0,0,0-2.335,0V57.45h-8.3a1.168,1.168,0,1,0,0,2.335H63.051A1.168,1.168,0,0,0,64.21,58.47ZM27.52,14.428a17.143,17.143,0,0,1,14.963-.006V22.33a7.481,7.481,0,1,1-14.963,0v-7.9ZM25.092,8.45A10.825,10.825,0,0,1,34.8,2.335h.4a10.822,10.822,0,0,1,9.709,6.109l3.256,6.887a20.713,20.713,0,0,0-13.126-4.983,20.669,20.669,0,0,0-13.2,4.984ZM18.753,27.123a5.061,5.061,0,0,1-.62-3.929,23.037,23.037,0,0,1,7.052-7.428V22.33a9.817,9.817,0,0,0,19.633,0V15.751a24.211,24.211,0,0,1,7.052,7.441,5.078,5.078,0,0,1-2.709,5.781L37.507,34.481a5.819,5.819,0,0,1-4.981-.005L23.307,30.1c-1.665-.79-3.506-1.323-4.554-2.977Z" transform="translate(-5.785 0)" fill="#fff"/>
        <path id="Path_881796" data-name="Path 881796" d="M223.437,128.286a1.168,1.168,0,0,0,1.168-1.168,1.674,1.674,0,0,1,.016-.23,1.641,1.641,0,0,1,1.626-1.411h.034a1.64,1.64,0,0,1,1.156,2.77,1.627,1.627,0,0,1-1.19.512,1.168,1.168,0,0,0-1.168,1.168v1.768a1.168,1.168,0,1,0,2.335,0v-.777a3.991,3.991,0,0,0,1.716-1.062,3.944,3.944,0,0,0,1.087-2.947,3.977,3.977,0,0,0-7.909-.342,4.038,4.038,0,0,0-.038.552A1.168,1.168,0,0,0,223.437,128.286Z" transform="translate(-196.991 -108.763)" fill="#fff"/>
        <path id="Path_881797" data-name="Path 881797" d="M248.518,218.168a1.163,1.163,0,1,0-2.1.994A1.163,1.163,0,0,0,248.518,218.168Z" transform="translate(-218.185 -192.079)" fill="#fff"/>
        <path id="Path_881798" data-name="Path 881798" d="M253.152,492.743a1.167,1.167,0,1,0-.632,1.524A1.177,1.177,0,0,0,253.152,492.743Z" transform="translate(-222.286 -434.572)" fill="#fff"/>
      </g>
    </g>
  </g>
</svg>
