<svg xmlns="http://www.w3.org/2000/svg" width="130" height="137.884" viewBox="0 0 130 137.884">
  <g id="Group_1105089" data-name="Group 1105089" transform="translate(-280.01 -5846.501)">
    <path id="Path_873448" data-name="Path 873448" d="M130,133.973A3.976,3.976,0,0,0,126.024,130H3.976A3.976,3.976,0,0,0,0,133.973v73.452c0,.055,0,.109,0,.163a7.565,7.565,0,0,0,3.453,6.532l57.4,29.89a7.6,7.6,0,0,0,8.277,0l57.4-29.89A7.565,7.565,0,0,0,130,207.589c0-.054,0-.109,0-.163Z" transform="translate(280.01 5739.148)" fill="#fff"/>
    <path id="Path_873449" data-name="Path 873449" d="M121.194,83.7A3.707,3.707,0,0,0,117.487,80H3.707A3.707,3.707,0,0,0,0,83.7V169c0,.051,0,.1,0,.152a7.053,7.053,0,0,0,3.219,6.09l53.516,27.865a7.083,7.083,0,0,0,7.716,0l53.516-27.865a7.053,7.053,0,0,0,3.219-6.09c0-.051,0-.1,0-.152Z" transform="translate(284.343 5774.085)" fill="#6018ec"/>
    <path id="Path_873665" data-name="Path 873665" d="M108.068,12.3A3.305,3.305,0,0,0,104.763,9H3.305A3.305,3.305,0,0,0,0,12.3v89.87c0,.046,0,.091,0,.136a6.289,6.289,0,0,0,2.87,5.43l47.72,24.847a6.316,6.316,0,0,0,6.881,0l47.72-24.847a6.289,6.289,0,0,0,2.87-5.43c0-.045,0-.09,0-.136Z" transform="translate(290.843 5838.004)" fill="none" stroke="#fff" stroke-width="1"/>
    <path id="Path_881786" data-name="Path 881786" d="M36.646,62.789H15.478a7.626,7.626,0,0,1-5.275-2.1A7.074,7.074,0,0,1,8,55.583V16.706A7.346,7.346,0,0,1,15.478,9.5H61.463a7.346,7.346,0,0,1,7.478,7.206V55.583a7.074,7.074,0,0,1-2.2,5.108,7.6,7.6,0,0,1-4.4,2.049A11.477,11.477,0,0,1,50.96,70.05c-7.672-.439-8.039-2.693-14.314-7.262ZM9.727,21.851V55.583A5.351,5.351,0,0,0,11.4,59.444a5.9,5.9,0,0,0,4.079,1.617H35.214a4.1,4.1,0,0,1,.323-3.918h0A3.445,3.445,0,0,1,37.2,55.735a4.569,4.569,0,0,1,2.619-.075l0-17.111H33.924A5.322,5.322,0,0,1,28.6,33.226v-2.81a4.751,4.751,0,0,1-3.454-4.57v-.24a.864.864,0,0,1,1.031-.862.847.847,0,0,1,.174.054l1.96.8a.864.864,0,1,1-.656,1.6l-.568-.233a3.033,3.033,0,0,0,1.553,1.63,5.323,5.323,0,0,1,4.277-4.567V21.851Zm0-5.141v3.414H32.919V18.555a2.806,2.806,0,1,1,1.727,0v1.569H67.213V16.706a5.355,5.355,0,0,0-1.673-3.86,5.9,5.9,0,0,0-4.078-1.618H15.478A5.9,5.9,0,0,0,11.4,12.846a5.355,5.355,0,0,0-1.673,3.86ZM62.9,60.887a5.823,5.823,0,0,0,2.638-1.443,5.351,5.351,0,0,0,1.671-3.861V21.851H34.646v2.083H54.983a5.322,5.322,0,0,1,5.322,5.322v3.971a5.322,5.322,0,0,1-5.322,5.322H46.935l-.009,8.724a3.442,3.442,0,0,1,1.845-.545h0a3.561,3.561,0,0,1,2.693,1.242,3.558,3.558,0,0,1,2.7-1.242h0a3.557,3.557,0,0,1,2.691,1.241,3.555,3.555,0,0,1,2.7-1.241h0a3.571,3.571,0,0,1,3.557,3.559l.066,8.106s0,.006,0,.009a11.775,11.775,0,0,1-.273,2.485ZM41.543,35.881l0,20.912a.864.864,0,0,1-1.136.82c-1.8-.6-2.773-.523-3.428.477a2.387,2.387,0,0,0,.608,3.251c5.965,4.328,6.228,6.572,13.469,6.986A9.883,9.883,0,0,0,61.45,58.4l-.066-8.1v-.008a1.832,1.832,0,0,0-3.663-.007v.008a.864.864,0,0,1-1.727,0v-.008a1.832,1.832,0,0,0-3.663,0v.008a.864.864,0,0,1-1.727,0v-.008a1.839,1.839,0,0,0-1.832-1.827,1.912,1.912,0,0,0-1.848,1.893v.031a.864.864,0,0,1-1.727,0v-.041l.015-14.457a1.834,1.834,0,0,0-3.668,0ZM30.328,30.575v2.651a3.6,3.6,0,0,0,3.6,3.6h5.892v-.941a3.573,3.573,0,0,1,3.563-3.559h0a3.574,3.574,0,0,1,3.557,3.563h0v.936h8.046a3.6,3.6,0,0,0,3.6-3.6V29.256a3.6,3.6,0,0,0-3.6-3.6H34.646v.185a4.729,4.729,0,0,1-1.012,2.931c-.067.086-.34.39-.418.466a4.734,4.734,0,0,1-2.888,1.333ZM32.919,25.8a3.6,3.6,0,0,0-2.566,3.03,3.014,3.014,0,0,0,1.656-.826c.05-.049.224-.243.267-.3a3.009,3.009,0,0,0,.643-1.864Zm.864-8.84A1.079,1.079,0,1,0,32.7,15.884,1.08,1.08,0,0,0,33.782,16.963ZM51.933,14.1a1.578,1.578,0,1,1-1.579,1.578A1.579,1.579,0,0,1,51.933,14.1Zm10.717,0a1.578,1.578,0,1,1-1.579,1.578A1.579,1.579,0,0,1,62.65,14.1Zm-5.359,0a1.578,1.578,0,1,1-1.579,1.578A1.579,1.579,0,0,1,57.292,14.1Zm-43,34.015a.864.864,0,1,1,0-1.727H34.029a.864.864,0,0,1,0,1.727Zm0,4.318a.864.864,0,0,1,0-1.727H34.029a.864.864,0,0,1,0,1.727Z" transform="translate(306.54 5869.52)" fill="#fff" fill-rule="evenodd"/>
  </g>
</svg>
