<svg xmlns="http://www.w3.org/2000/svg" width="90" height="90" viewBox="0 0 90 90">
  <g id="Group_1103703" data-name="Group 1103703" transform="translate(-704.668 -6155.5)">
    <rect id="Rectangle_402033" data-name="Rectangle 402033" width="90" height="90" rx="45" transform="translate(704.668 6155.5)" fill="#bfa2f7"/>
    <g id="Group_1105180" data-name="Group 1105180" transform="translate(723.028 6176.863)">
      <path id="Path_881956" data-name="Path 881956" d="M17.576,1h18.91a1.576,1.576,0,0,1,1.576,1.576v14.97H16V2.576A1.576,1.576,0,0,1,17.576,1Z" transform="translate(-0.636 -0.212)" fill="#d4e7f4"/>
      <path id="Path_881957" data-name="Path 881957" d="M1.576,0H22.849A7.091,7.091,0,0,1,29.94,7.091V18.122a7.091,7.091,0,0,1-7.091,7.091H1.576A1.576,1.576,0,0,1,0,23.637V1.576A1.576,1.576,0,0,1,1.576,0Z" transform="translate(39.001 16.546) rotate(90)" fill="#55bab7"/>
      <path id="Path_881958" data-name="Path 881958" d="M35.58,40.078s1.41,2.364-.484,4.1a2.711,2.711,0,0,1-1.9.73.975.975,0,0,0-.709.3,1.018,1.018,0,0,0-.3.725v.877a.763.763,0,0,1-.494.719,14.029,14.029,0,0,1-4.235.526,14,14,0,0,1-4.231-.526.763.763,0,0,1-.5-.719V45.94a1.024,1.024,0,0,0-1.005-1.03,2.721,2.721,0,0,1-1.908-.73c-1.891-1.738-.484-4.1-.484-4.1A7.732,7.732,0,0,1,18,35.652,9.676,9.676,0,0,1,27.455,26a9.676,9.676,0,0,1,9.455,9.652A7.671,7.671,0,0,1,35.58,40.078Z" transform="translate(-1.06 -5.514)" fill="#6018ec"/>
      <rect id="Rectangle_405532" data-name="Rectangle 405532" width="5" height="3" rx="1" transform="translate(18.395 6.637)" fill="#718593"/>
      <rect id="Rectangle_405533" data-name="Rectangle 405533" width="5" height="3" rx="1" transform="translate(29.395 6.637)" fill="#718593"/>
      <path id="Path_881959" data-name="Path 881959" d="M26.894,43.018a2.076,2.076,0,0,1-2.662.953,2.35,2.35,0,0,1-1.15-2.743.293.293,0,0,1,.4-.2l3.275,1.541a.328.328,0,0,1,.135.451Z" transform="translate(-2.118 -8.696)" fill="#ffb800"/>
      <path id="Path_881960" data-name="Path 881960" d="M32.043,43.018a2.076,2.076,0,0,0,2.662.953,2.35,2.35,0,0,0,1.15-2.743.293.293,0,0,0-.4-.2l-3.275,1.541a.328.328,0,0,0-.135.451Z" transform="translate(-4.03 -8.696)" fill="#ffb800"/>
      <path id="Path_881961" data-name="Path 881961" d="M29.577,46a.683.683,0,0,0-.606.352l-.88,1.655a.788.788,0,0,0,.749,1.145h1.475a.788.788,0,0,0,.749-1.141l-.88-1.655A.683.683,0,0,0,29.577,46Z" transform="translate(-3.182 -9.756)" fill="#224872"/>
      <g id="Group_1105179" data-name="Group 1105179" transform="translate(13)">
        <path id="Path_881962" data-name="Path 881962" d="M27.36,43.2a1.1,1.1,0,0,0,.1-.878,1.118,1.118,0,0,0-.582-.685L23.6,40.1a1.067,1.067,0,0,0-.9.009,1.092,1.092,0,0,0-.585.709,3.121,3.121,0,0,0,1.576,3.657,2.671,2.671,0,0,0,1.135.256A2.97,2.97,0,0,0,27.36,43.2Zm-3.007-.158a1.453,1.453,0,0,1-.775-1.218l2.093.986A1.2,1.2,0,0,1,24.353,43.046Z" transform="translate(-14.904 -8.484)"/>
        <path id="Path_881963" data-name="Path 881963" d="M35.82,40.105a1.083,1.083,0,0,0-.915,0L31.62,41.647a1.114,1.114,0,0,0-.468,1.557,2.97,2.97,0,0,0,2.543,1.524,2.667,2.667,0,0,0,1.135-.252A3.119,3.119,0,0,0,36.4,40.82,1.091,1.091,0,0,0,35.82,40.105Zm-1.66,2.94a1.2,1.2,0,0,1-1.32-.232l2.093-.986a1.451,1.451,0,0,1-.774,1.217Z" transform="translate(-16.818 -8.484)"/>
        <path id="Path_881964" data-name="Path 881964" d="M30.666,45.772a1.483,1.483,0,0,0-2.6,0l-.882,1.655a1.529,1.529,0,0,0,.04,1.516,1.62,1.62,0,0,0,1.4.786H30.1a1.62,1.62,0,0,0,1.4-.783,1.528,1.528,0,0,0,.04-1.515Zm-2.09,2.4.788-1.484.737,1.467Z" transform="translate(-15.97 -9.545)"/>
        <path id="Path_881965" data-name="Path 881965" d="M27.243,25A10.479,10.479,0,0,0,17,35.44a8.654,8.654,0,0,0,1.211,4.478,3.99,3.99,0,0,0,.856,4.63,3.492,3.492,0,0,0,2.443.938.236.236,0,0,1,.221.242V46.6a1.556,1.556,0,0,0,1.012,1.459,14.74,14.74,0,0,0,4.5.574,14.765,14.765,0,0,0,4.507-.574A1.556,1.556,0,0,0,32.758,46.6v-.877a.245.245,0,0,1,.079-.182.188.188,0,0,1,.143-.06,3.486,3.486,0,0,0,2.438-.938,3.989,3.989,0,0,0,.86-4.624,8.631,8.631,0,0,0,1.208-4.484A10.479,10.479,0,0,0,27.243,25Zm7.489,14.4a.794.794,0,0,0-.043.867,2.57,2.57,0,0,1-.338,3.123,1.937,1.937,0,0,1-1.371.522,1.733,1.733,0,0,0-1.261.533,1.792,1.792,0,0,0-.537,1.284l.024.856a13.3,13.3,0,0,1-3.964.477A13.969,13.969,0,0,1,23.3,46.6v-.877A1.812,1.812,0,0,0,21.51,43.91a1.94,1.94,0,0,1-1.375-.522,2.568,2.568,0,0,1-.34-3.119.788.788,0,0,0-.032-.857,6.944,6.944,0,0,1-1.187-3.972,8.884,8.884,0,0,1,8.667-8.864A8.884,8.884,0,0,1,35.91,35.44,6.919,6.919,0,0,1,34.732,39.4Z" transform="translate(-13.848 -5.302)"/>
        <path id="Path_881966" data-name="Path 881966" d="M13.788,22.061a.788.788,0,0,0-.788.788V39.4a7.888,7.888,0,0,0,7.879,7.879H31.91A7.888,7.888,0,0,0,39.789,39.4V18.122A2.364,2.364,0,0,0,38.213,15.9V2.364A2.364,2.364,0,0,0,35.849,0H16.94a2.364,2.364,0,0,0-2.364,2.364V15.9A2.364,2.364,0,0,0,13,18.122V19.7a.788.788,0,0,0,1.576,0V18.122a.788.788,0,0,1,.788-.788H37.425a.788.788,0,0,1,.788.788V39.4a6.31,6.31,0,0,1-6.3,6.3H20.879a6.31,6.31,0,0,1-6.3-6.3V22.849A.788.788,0,0,0,13.788,22.061Zm2.364-19.7a.788.788,0,0,1,.788-.788h8.667V15.758H16.152ZM27.182,15.758V1.576h8.667a.788.788,0,0,1,.788.788V15.758Z" transform="translate(-13)"/>
        <path id="Path_881967" data-name="Path 881967" d="M23.727,7H20.576A1.576,1.576,0,0,0,19,8.576v1.576a1.576,1.576,0,0,0,1.576,1.576h3.152A1.576,1.576,0,0,0,25.3,10.152V8.576A1.576,1.576,0,0,0,23.727,7Zm-3.152,3.152V8.576h3.152v1.576Z" transform="translate(-14.273 -1.485)"/>
        <path id="Path_881968" data-name="Path 881968" d="M37.727,7H34.576A1.576,1.576,0,0,0,33,8.576v1.576a1.576,1.576,0,0,0,1.576,1.576h3.152A1.576,1.576,0,0,0,39.3,10.152V8.576A1.576,1.576,0,0,0,37.727,7Zm-3.152,3.152V8.576h3.152v1.576Z" transform="translate(-17.242 -1.485)"/>
      </g>
    </g>
  </g>
</svg>
