<svg xmlns="http://www.w3.org/2000/svg" width="90" height="90" viewBox="0 0 90 90">
  <g id="Group_1103701" data-name="Group 1103701" transform="translate(-704.668 -6155.5)">
    <rect id="Rectangle_402033" data-name="Rectangle 402033" width="90" height="90" rx="45" transform="translate(704.668 6155.5)" fill="#bfa2f7"/>
    <g id="Group_1105178" data-name="Group 1105178" transform="translate(696.96 6173.365)">
      <g id="Group_1105176" data-name="Group 1105176" transform="translate(29.399 0.797)">
        <g id="Group_1105175" data-name="Group 1105175" transform="translate(0)">
          <path id="Path_881919" data-name="Path 881919" d="M42.137,28.571c-.508.5.266,1.18.266,1.891v26.06a2.614,2.614,0,0,0,2.614,2.614H84.287A2.614,2.614,0,0,0,86.9,56.522V30.462c0-.711.774-1.393.266-1.891L66.407,8.2a2.614,2.614,0,0,0-3.511,0Z" transform="translate(-41.343 -7.519)" fill="#7e8b96"/>
          <path id="Path_881920" data-name="Path 881920" d="M36.1,235.155a2.614,2.614,0,0,0,2.383,2.6l16.872-13.185L36.9,206.144a2.65,2.65,0,0,0-.794,1.891Z" transform="translate(-36.104 -185.092)" fill="#f7f9fa"/>
          <path id="Path_881921" data-name="Path 881921" d="M313.3,246.8c0,1.366-.857,1.939-2.192,2.056l-1.289-.477-15.562-12.161,16.076-16.047,2.559-1c.508.5.409-.2.409.511Z" transform="translate(-266.899 -196.736)" fill="#f7f9fa"/>
          <path id="Path_881922" data-name="Path 881922" d="M444.686,208.035a2.65,2.65,0,0,0-.794-1.891l-2.386,2.382v26.629a2.6,2.6,0,0,1-.525,1.571l.808.631c1.335-.117,2.9-.836,2.9-2.2Z" transform="translate(-398.068 -185.092)" fill="#e9edf1"/>
          <path id="Path_881923" data-name="Path 881923" d="M38.718,377.539H80.107c1.265-1.224,1.085-2.181-.566-4.361l-18.87-10.37a2.614,2.614,0,0,0-2.518,0L36.1,374.925a2.614,2.614,0,0,0,2.614,2.614Z" transform="translate(-36.104 -324.863)" fill="#978ecb"/>
          <path id="Path_881924" data-name="Path 881924" d="M423.885,463.37v1.747a2.614,2.614,0,0,1-2.614,2.614h3.18a2.614,2.614,0,0,0,2.614-2.614Z" transform="translate(-380.447 -415.055)" fill="#6e61b6"/>
          <path id="Path_881925" data-name="Path 881925" d="M168.207,47.611c0-6.444-4.164-11.562-10.608-11.562-.357,0-.711-.09-1.06-.059A11.67,11.67,0,0,0,145.93,47.611v7.814a2.65,2.65,0,0,0,1.59,2.429L150.151,59a1.06,1.06,0,0,1,.636.971v4.41a1.59,1.59,0,0,0,1.59,1.59h2.341l.412-1.06,1.178,1.06h2.581l.795-1.06.795,1.06h1.282a1.59,1.59,0,0,0,1.59-1.59v-4.41a1.06,1.06,0,0,1,.636-.971l2.631-1.148a2.65,2.65,0,0,0,1.59-2.429V47.611Z" transform="translate(-134.29 -32.966)" fill="#978ecb"/>
          <path id="Path_881926" data-name="Path 881926" d="M247.08,35.6c-.357,0-.711.017-1.06.048a11.669,11.669,0,0,1,10.608,11.62v7.814a2.65,2.65,0,0,1-1.59,2.429l-2.631,1.148a1.06,1.06,0,0,0-.636.971v4.41a1.59,1.59,0,0,1-1.59,1.59h2.12a1.59,1.59,0,0,0,1.59-1.59V59.63a1.06,1.06,0,0,1,.636-.971l2.631-1.148a2.65,2.65,0,0,0,1.59-2.429V47.267A11.669,11.669,0,0,0,247.08,35.6Z" transform="translate(-223.771 -32.623)" fill="#6e61b6"/>
          <g id="Group_1105174" data-name="Group 1105174" transform="translate(15.53 14.642)">
            <path id="Path_881927" data-name="Path 881927" d="M188.312,148.752a2.847,2.847,0,1,1-3.084-3.084.523.523,0,0,1,.413.154l2.517,2.517a.523.523,0,0,1,.154.413Z" transform="translate(-182.629 -145.666)" fill="#ffe282"/>
            <path id="Path_881928" data-name="Path 881928" d="M275.774,148.752a2.847,2.847,0,1,0,3.084-3.084.523.523,0,0,0-.413.154l-2.517,2.517a.523.523,0,0,0-.154.413Z" transform="translate(-265.9 -145.666)" fill="#ffe282"/>
            <path id="Path_881929" data-name="Path 881929" d="M241.963,215.021l-1.35-2.338a.53.53,0,0,0-.918,0l-1.35,2.338a.53.53,0,0,0,.459.795h2.7A.53.53,0,0,0,241.963,215.021Z" transform="translate(-232.376 -205.342)" fill="#ffe282"/>
          </g>
        </g>
      </g>
      <g id="Group_1105177" data-name="Group 1105177" transform="translate(28.604 0)">
        <path id="Path_881930" data-name="Path 881930" d="M51.831,39.441a1.811,1.811,0,0,1,1.752,0L75.165,51.3a1.821,1.821,0,0,1-1.763,1.38H64.825a.795.795,0,1,0,0,1.59H73.4a3.413,3.413,0,0,0,3.409-3.4s0-.008,0-.013h0V23.742a3.466,3.466,0,0,0-1.024-2.45l0,0h0l0,0L63.522,9.254a12.556,12.556,0,0,0-4.808-4.727c-.012-.014-.024-.028-.038-.041L55.019.908,55,.887a3.4,3.4,0,0,0-4.578,0L50.4.908,46.712,4.513l0,.005a12.566,12.566,0,0,0-1.38.881.795.795,0,1,0,.942,1.28,10.874,10.874,0,0,1,17.311,8.764v7.814a1.854,1.854,0,0,1-1.113,1.7l-2.631,1.148a1.855,1.855,0,0,0-1.113,1.7v4.41a.8.8,0,0,1-.795.795H55.588V30.636a.795.795,0,1,0-1.59,0V33.01H51.417V30.636a.795.795,0,0,0-1.59,0V33.01H47.486a.8.8,0,0,1-.795-.795v-4.41a1.854,1.854,0,0,0-1.113-1.7l-2.631-1.148a1.854,1.854,0,0,1-1.113-1.7V15.444a10.785,10.785,0,0,1,1.383-5.31l0-.007A10.989,10.989,0,0,1,43.97,8.97a.795.795,0,0,0-1.277-.947,12.593,12.593,0,0,0-.815,1.245L29.636,21.284l0,0,0,0,0,0A3.465,3.465,0,0,0,28.6,23.742v9.071a.795.795,0,1,0,1.59,0V23.742a1.85,1.85,0,0,1,.12-.647l17.029,17L30.194,49.518V36.278a.795.795,0,0,0-1.59,0V50.862h0s0,.008,0,.013a3.413,3.413,0,0,0,3.409,3.4H61.361a.795.795,0,0,0,0-1.59H32.013A1.821,1.821,0,0,1,30.25,51.3ZM50.318,3.209,51.5,2.056a1.813,1.813,0,0,1,2.422,0L55.1,3.212a12.538,12.538,0,0,0-4.783,0ZM75.1,23.1a1.851,1.851,0,0,1,.12.647V49.518L58.072,40.094ZM51.066,38.048,48.794,39.3,31.323,21.856l9.2-9.026a12.559,12.559,0,0,0-.275,2.614v7.814a3.444,3.444,0,0,0,2.067,3.157l2.631,1.148a.265.265,0,0,1,.159.243v4.41A2.387,2.387,0,0,0,47.486,34.6H57.929a2.387,2.387,0,0,0,2.385-2.385v-4.41a.265.265,0,0,1,.159-.243L63.1,26.415a3.444,3.444,0,0,0,2.067-3.157V15.444a12.465,12.465,0,0,0-.277-2.616l9.2,9.028L56.621,39.3l-2.272-1.248a3.393,3.393,0,0,0-3.283,0Z" transform="translate(-28.604 0)"/>
        <path id="Path_881931" data-name="Path 881931" d="M179.495,138.575a1.315,1.315,0,0,0-1.043-.384,3.642,3.642,0,0,0,.085,7.263c.079,0,.157.007.236.007a3.619,3.619,0,0,0,3.624-3.326,1.315,1.315,0,0,0-.384-1.043Zm-.859,5.292a2.075,2.075,0,0,1-1.916-1.915,2.041,2.041,0,0,1,1.741-2.162l2.336,2.336A2.042,2.042,0,0,1,178.636,143.867Z" transform="translate(-159.596 -123.54)"/>
        <path id="Path_881932" data-name="Path 881932" d="M271.9,145.461q.117,0,.236-.007a3.642,3.642,0,0,0,.085-7.263,1.315,1.315,0,0,0-1.043.384l-2.517,2.517a1.315,1.315,0,0,0-.384,1.043A3.619,3.619,0,0,0,271.9,145.461Zm.311-5.671a2.041,2.041,0,0,1,1.741,2.162,2.075,2.075,0,0,1-1.916,1.915,2.041,2.041,0,0,1-2.162-1.741Z" transform="translate(-242.87 -123.54)"/>
        <path id="Path_881933" data-name="Path 881933" d="M233.439,204.936a1.311,1.311,0,0,0-1.147.662l-1.35,2.338a1.325,1.325,0,0,0,1.147,1.987h2.7a1.325,1.325,0,0,0,1.147-1.987l-1.35-2.338A1.312,1.312,0,0,0,233.439,204.936Zm-.891,3.4.891-1.543.891,1.543Z" transform="translate(-209.335 -183.215)"/>
      </g>
    </g>
  </g>
</svg>
