<svg xmlns="http://www.w3.org/2000/svg" width="72" height="72" viewBox="0 0 72 72">
  <g id="Group_1101819" data-name="Group 1101819" transform="translate(-704.4 -6155)">
    <rect id="Rectangle_402033" data-name="Rectangle 402033" width="72" height="72" rx="5" transform="translate(704.4 6155)" fill="#bfa2f7"/>
    <g id="Group_1105241" data-name="Group 1105241" transform="translate(715.4 6158.395)">
      <g id="Group_1105239" data-name="Group 1105239" transform="translate(0.733 9.339)">
        <g id="Group_1105238" data-name="Group 1105238">
          <path id="Path_882146" data-name="Path 882146" d="M7.5,70.548a1.466,1.466,0,0,0,1.466,1.466H52.842a1.466,1.466,0,0,0,1.466-1.466V27.572a1.466,1.466,0,0,0-1.466-1.466H9.943a1.466,1.466,0,0,0-1.466,1.466L7.5,35.6Z" transform="translate(-7.5 -25.129)" fill="#f7f9fa"/>
          <path id="Path_882147" data-name="Path 882147" d="M461.454,18.106H459.5a1.312,1.312,0,0,1,1.466,1.27V63.33A1.466,1.466,0,0,1,459.5,64.8h2.932A1.466,1.466,0,0,0,463.9,63.33V28.385l-.977-9.008a1.312,1.312,0,0,0-1.466-1.27Z" transform="translate(-415.331 -17.911)" fill="#e9edf1"/>
          <path id="Path_882148" data-name="Path 882148" d="M53.428,16.106H8.966A1.466,1.466,0,0,0,7.5,17.572V26.58H54.894V17.572A1.466,1.466,0,0,0,53.428,16.106Z" transform="translate(-7.5 -16.106)" fill="#978ecb"/>
          <path id="Path_882149" data-name="Path 882149" d="M462.432,16.106H459.5a1.466,1.466,0,0,1,1.466,1.466V26.58H463.9V17.572A1.466,1.466,0,0,0,462.432,16.106Z" transform="translate(-415.331 -16.106)" fill="#6e61b6"/>
          <path id="Path_882150" data-name="Path 882150" d="M190.712,54.43a1.576,1.576,0,0,1-1.641,1.641,1.659,1.659,0,1,1,0-3.282A1.576,1.576,0,0,1,190.712,54.43Z" transform="translate(-169.76 -49.193)" fill="#6cf5c2"/>
          <path id="Path_882151" data-name="Path 882151" d="M198.808,51.907a1.732,1.732,0,0,0-.684.14,1.739,1.739,0,0,1,0,3.2,1.739,1.739,0,1,0,.684-3.337Z" transform="translate(-179.496 -48.409)" fill="#05e39c"/>
          <path id="Path_882152" data-name="Path 882152" d="M119.3,54.43a1.576,1.576,0,0,1-1.641,1.641,1.659,1.659,0,1,1,0-3.282A1.576,1.576,0,0,1,119.3,54.43Z" transform="translate(-105.323 -49.193)" fill="#ffe282"/>
          <path id="Path_882153" data-name="Path 882153" d="M127.393,51.907a1.732,1.732,0,0,0-.684.14,1.739,1.739,0,0,1,0,3.2,1.739,1.739,0,1,0,.684-3.337Z" transform="translate(-115.06 -48.409)" fill="#ffd368"/>
          <path id="Path_882154" data-name="Path 882154" d="M47.883,54.43a1.576,1.576,0,0,1-1.641,1.641,1.659,1.659,0,1,1,0-3.282A1.576,1.576,0,0,1,47.883,54.43Z" transform="translate(-40.888 -49.193)" fill="#fd8087"/>
          <path id="Path_882155" data-name="Path 882155" d="M55.979,51.907a1.732,1.732,0,0,0-.684.14,1.739,1.739,0,0,1,0,3.2,1.739,1.739,0,1,0,.684-3.337Z" transform="translate(-50.624 -48.409)" fill="#fd4755"/>
          <path id="Path_882156" data-name="Path 882156" d="M70.063,185.914a1.576,1.576,0,0,1-1.641,1.641,1.659,1.659,0,1,1,0-3.282A1.576,1.576,0,0,1,70.063,185.914Z" transform="translate(-60.901 -167.829)" fill="#6cf5c2"/>
          <path id="Path_882157" data-name="Path 882157" d="M78.159,183.391a1.732,1.732,0,0,0-.684.14,1.739,1.739,0,0,1,0,3.2,1.739,1.739,0,1,0,.684-3.337Z" transform="translate(-70.637 -167.044)" fill="#05e39c"/>
          <path id="Path_882158" data-name="Path 882158" d="M413.113,185.914a1.576,1.576,0,0,1-1.641,1.641,1.659,1.659,0,1,1,0-3.282A1.576,1.576,0,0,1,413.113,185.914Z" transform="translate(-370.428 -167.829)" fill="#6cf5c2"/>
          <path id="Path_882159" data-name="Path 882159" d="M421.209,183.391a1.732,1.732,0,0,0-.684.14,1.739,1.739,0,0,1,0,3.2,1.739,1.739,0,1,0,.684-3.337Z" transform="translate(-380.164 -167.044)" fill="#05e39c"/>
          <path id="Path_882160" data-name="Path 882160" d="M70.063,403.472a1.576,1.576,0,0,1-1.641,1.641,1.659,1.659,0,1,1,0-3.282A1.576,1.576,0,0,1,70.063,403.472Z" transform="translate(-60.901 -364.127)" fill="#6cf5c2"/>
          <path id="Path_882161" data-name="Path 882161" d="M78.159,400.949a1.732,1.732,0,0,0-.684.14,1.739,1.739,0,0,1,0,3.2,1.739,1.739,0,1,0,.684-3.337Z" transform="translate(-70.637 -363.342)" fill="#05e39c"/>
          <path id="Path_882162" data-name="Path 882162" d="M413.113,403.472a1.576,1.576,0,0,1-1.641,1.641,1.659,1.659,0,1,1,0-3.282A1.576,1.576,0,0,1,413.113,403.472Z" transform="translate(-370.428 -364.127)" fill="#6cf5c2"/>
          <path id="Path_882163" data-name="Path 882163" d="M421.209,400.949a1.732,1.732,0,0,0-.684.14,1.739,1.739,0,0,1,0,3.2,1.739,1.739,0,1,0,.684-3.337Z" transform="translate(-380.164 -363.342)" fill="#05e39c"/>
          <path id="Path_882164" data-name="Path 882164" d="M423.113,294.324a1.576,1.576,0,0,1-1.641,1.641,1.659,1.659,0,1,1,0-3.282A1.576,1.576,0,0,1,423.113,294.324Z" transform="translate(-379.451 -265.645)" fill="#6cf5c2"/>
          <path id="Path_882165" data-name="Path 882165" d="M431.209,291.8a1.732,1.732,0,0,0-.684.14,1.739,1.739,0,0,1,0,3.2,1.739,1.739,0,1,0,.684-3.337Z" transform="translate(-389.187 -264.86)" fill="#05e39c"/>
          <path id="Path_882166" data-name="Path 882166" d="M60.063,294.324a1.576,1.576,0,0,1-1.641,1.641,1.659,1.659,0,1,1,0-3.282A1.576,1.576,0,0,1,60.063,294.324Z" transform="translate(-51.878 -265.645)" fill="#6cf5c2"/>
          <path id="Path_882167" data-name="Path 882167" d="M68.159,291.8a1.732,1.732,0,0,0-.684.14,1.739,1.739,0,0,1,0,3.2,1.739,1.739,0,1,0,.684-3.337Z" transform="translate(-61.614 -264.86)" fill="#05e39c"/>
          <path id="Path_882168" data-name="Path 882168" d="M162.614,206.4c0,6.2-4.048,11.126-10.247,11.126-.379,0-.754.079-1.124.042a11.225,11.225,0,0,1-.024-22.334c.377-.038.76.04,1.148.04C158.566,195.27,162.614,200.2,162.614,206.4Z" transform="translate(-128.084 -177.717)" fill="#978ecb"/>
          <path id="Path_882169" data-name="Path 882169" d="M245.624,194.736q-.569,0-1.124.056a11.224,11.224,0,0,1,0,22.336q.555.055,1.124.056a11.224,11.224,0,1,0,0-22.447Z" transform="translate(-221.34 -177.28)" fill="#6e61b6"/>
          <path id="Path_882170" data-name="Path 882170" d="M211.724,292.571a4.964,4.964,0,0,1-.79.033,4.8,4.8,0,0,1-4.006-4.73v-4.8a.789.789,0,0,1,.789-.789h7.035a.789.789,0,0,1,.789.789v4.8C215.542,290.522,214.373,292.571,211.724,292.571Z" transform="translate(-187.441 -256.278)" fill="#fd8087"/>
          <path id="Path_882171" data-name="Path 882171" d="M252.717,282.288h-1.579a.789.789,0,0,1,.789.789v4.8a4.8,4.8,0,0,1-4.006,4.729,4.793,4.793,0,0,0,5.585-4.73v-4.8a.789.789,0,0,0-.789-.789Z" transform="translate(-224.428 -256.277)" fill="#fd4755"/>
        </g>
      </g>
      <g id="Group_1105240" data-name="Group 1105240" transform="translate(0 8.606)">
        <path id="Path_882172" data-name="Path 882172" d="M179.833,46.878a2.471,2.471,0,1,0,2.472-2.471A2.474,2.474,0,0,0,179.833,46.878Zm3.477,0a1.006,1.006,0,1,1-1.006-1.006A1.007,1.007,0,0,1,183.31,46.878Z" transform="translate(-162.26 -40.909)"/>
        <path id="Path_882173" data-name="Path 882173" d="M108.418,46.878a2.471,2.471,0,1,0,2.471-2.471A2.474,2.474,0,0,0,108.418,46.878Zm3.477,0a1.006,1.006,0,1,1-1.006-1.006A1.007,1.007,0,0,1,111.9,46.878Z" transform="translate(-97.823 -40.909)"/>
        <path id="Path_882174" data-name="Path 882174" d="M37,46.878a2.471,2.471,0,1,0,2.471-2.471A2.474,2.474,0,0,0,37,46.878Zm3.477,0a1.006,1.006,0,1,1-1.006-1.006A1.007,1.007,0,0,1,40.48,46.878Z" transform="translate(-33.387 -40.909)"/>
        <path id="Path_882175" data-name="Path 882175" d="M47.834,8.606H2.2A2.2,2.2,0,0,0,0,10.8V39.268a.733.733,0,1,0,1.466,0V20.546h27.42a.733.733,0,1,0,0-1.466H1.466V10.8a.734.734,0,0,1,.733-.733H47.834a.734.734,0,0,1,.733.733V19.08H32.08a.733.733,0,0,0,0,1.466H48.567V54.758a.734.734,0,0,1-.733.733H2.2a.734.734,0,0,1-.733-.733v-12.3a.733.733,0,0,0-1.466,0v12.3a2.2,2.2,0,0,0,2.2,2.2H47.834a2.2,2.2,0,0,0,2.2-2.2V10.8a2.2,2.2,0,0,0-2.2-2.2Z" transform="translate(0 -8.606)"/>
        <path id="Path_882176" data-name="Path 882176" d="M204.957,223.174a4.03,4.03,0,0,0-4.025,4.025v1.02a1.524,1.524,0,0,0-1.5,1.521v4.8a5.528,5.528,0,1,0,11.056,0v-4.8a1.524,1.524,0,0,0-1.5-1.521V227.2A4.03,4.03,0,0,0,204.957,223.174Zm0,1.466a2.562,2.562,0,0,1,2.559,2.559v1.019H202.4V227.2A2.562,2.562,0,0,1,204.957,224.64Zm4.062,5.1v4.8a4.062,4.062,0,1,1-8.125,0v-4.8a.057.057,0,0,1,.056-.057h8.012A.057.057,0,0,1,209.019,229.74Z" transform="translate(-179.941 -202.206)"/>
        <path id="Path_882177" data-name="Path 882177" d="M246.644,316.277a1.026,1.026,0,1,0-.991,0l-.558,1.3a.168.168,0,0,0,.154.234h1.8a.168.168,0,0,0,.154-.234Z" transform="translate(-221.132 -284.475)"/>
        <path id="Path_882178" data-name="Path 882178" d="M54.016,188.223a2.472,2.472,0,1,0,0,1.466h3.446a11.877,11.877,0,0,0,.764,3.543H53.61a1.712,1.712,0,0,0-1.71,1.71v2.319a2.471,2.471,0,1,0,1.466,0v-2.319a.245.245,0,0,1,.244-.244H58.9a12.033,12.033,0,0,0,.783,1.241.733.733,0,0,0,1.189-.857,10.527,10.527,0,0,1-.853-1.4.711.711,0,0,0-.033-.068,10.5,10.5,0,1,1,2.957,3.621.733.733,0,1,0-.9,1.156,11.839,11.839,0,0,0,7.347,2.523A11.966,11.966,0,0,0,79.879,194.7h5.3a.245.245,0,0,1,.244.244v2.319a2.472,2.472,0,1,0,1.466,0v-2.319a1.712,1.712,0,0,0-1.71-1.71H80.56a11.873,11.873,0,0,0,.768-3.543h3.445a2.471,2.471,0,1,0,0-1.466H81.327a11.872,11.872,0,0,0-.768-3.543h4.619a1.712,1.712,0,0,0,1.71-1.71v-2.247a2.471,2.471,0,1,0-1.466,0v2.247a.245.245,0,0,1-.244.244h-5.3a11.952,11.952,0,0,0-20.97,0h-5.3a.245.245,0,0,1-.244-.244v-2.247a2.471,2.471,0,1,0-1.466,0v2.247a1.712,1.712,0,0,0,1.71,1.71h4.619a11.873,11.873,0,0,0-.768,3.543Zm-1.383,12.4a1.006,1.006,0,1,1,1.006-1.006A1.007,1.007,0,0,1,52.633,200.628Zm33.523,0a1.006,1.006,0,1,1,1.006-1.006A1.007,1.007,0,0,1,86.155,200.628Zm0-23.271a1.006,1.006,0,1,1-1.006,1.006A1.007,1.007,0,0,1,86.155,177.357Zm.977,10.594a1.006,1.006,0,1,1-1.006,1.006A1.007,1.007,0,0,1,87.133,187.951Zm-34.5-10.594a1.006,1.006,0,1,1-1.006,1.006A1.007,1.007,0,0,1,52.633,177.357Zm-.977,12.605a1.006,1.006,0,1,1,1.006-1.006A1.007,1.007,0,0,1,51.655,189.962Z" transform="translate(-44.378 -159.544)"/>
      </g>
    </g>
  </g>
</svg>
