<svg id="Group_1101031" data-name="Group 1101031" xmlns="http://www.w3.org/2000/svg" width="110" height="110" viewBox="0 0 110 110">
  <rect id="Rectangle_402033" data-name="Rectangle 402033" width="110" height="110" rx="5" transform="translate(0)" fill="#bfa2f7"/>
  <g id="Group_1105192" data-name="Group 1105192" transform="translate(16.997 -46.864)">
    <g id="Group_1105190" data-name="Group 1105190" transform="translate(1.113 76.107)">
      <g id="Group_1105189" data-name="Group 1105189">
        <path id="Path_882006" data-name="Path 882006" d="M37.617,84.721v39.992l62.017,2.969V84.721a2.227,2.227,0,0,0-2.227-2.227H39.844a2.227,2.227,0,0,0-2.227,2.227Z" transform="translate(-33.146 -82.494)" fill="#80b6fc"/>
        <path id="Path_882007" data-name="Path 882007" d="M433.836,82.494h-4.453a2.227,2.227,0,0,1,2.227,2.227v42.962l4.453-2.969V84.721a2.227,2.227,0,0,0-2.227-2.227Z" transform="translate(-366.755 -82.494)" fill="#62a4fb"/>
        <path id="Path_882008" data-name="Path 882008" d="M191.671,120.049a11.474,11.474,0,0,0-1.707-.019,11.217,11.217,0,0,0-9.507,11.085v16.41l22.131,1.484V131.115a10.838,10.838,0,0,0-10.917-11.066Z" transform="translate(-154.782 -114.429)" fill="#fd8087"/>
        <path id="Path_882009" data-name="Path 882009" d="M246.207,119.351a11.3,11.3,0,0,0-1.707.129,11.217,11.217,0,0,1,9.507,11.085v19.379l3.414-2.969v-16.41A11.214,11.214,0,0,0,246.207,119.351Z" transform="translate(-209.318 -113.88)" fill="#fd4755"/>
        <circle id="Ellipse_11789" data-name="Ellipse 11789" cx="1.998" cy="1.998" r="1.998" transform="translate(34.722 29.123) rotate(-84.78)" fill="#f7f9fa"/>
        <g id="Group_1105187" data-name="Group 1105187" transform="translate(34.932 9.247)">
          <g id="Group_1105186" data-name="Group 1105186">
            <g id="Group_1105185" data-name="Group 1105185">
              <path id="Path_882010" data-name="Path 882010" d="M244.791,157.465a1.978,1.978,0,0,1-1.978-1.978V146.76a1.978,1.978,0,1,1,3.956,0v8.727A1.978,1.978,0,0,1,244.791,157.465Z" transform="translate(-242.813 -144.782)" fill="#f7f9fa"/>
            </g>
          </g>
        </g>
        <path id="Path_882011" data-name="Path 882011" d="M171.744,305.436H149.378a3.711,3.711,0,0,0-3.711,3.711v5.413l29.788,2.969v-8.382A3.711,3.711,0,0,0,171.744,305.436Z" transform="translate(-125.156 -272.341)" fill="#7e8b96"/>
        <path id="Path_882012" data-name="Path 882012" d="M315.786,305.436h-4.453a3.711,3.711,0,0,1,3.711,3.711v8.382l4.453-2.969v-5.413A3.711,3.711,0,0,0,315.786,305.436Z" transform="translate(-266.23 -272.341)" fill="#4e5a61"/>
        <path id="Path_882013" data-name="Path 882013" d="M76.083,376.193H11.211A3.711,3.711,0,0,1,7.5,372.482v-4.1A1.484,1.484,0,0,1,8.984,366.9H35.652l9.264,1.484,8.211-1.484H78.31a1.484,1.484,0,0,1,1.484,1.484v4.1A3.711,3.711,0,0,1,76.083,376.193Z" transform="translate(-7.5 -324.68)" fill="#f7f9fa"/>
        <g id="Group_1105188" data-name="Group 1105188" transform="translate(28.152 42.219)">
          <path id="Path_882014" data-name="Path 882014" d="M456.18,366.9h-4.453a1.484,1.484,0,0,1,1.484,1.484v4.1a3.711,3.711,0,0,1-3.711,3.711h4.453a3.711,3.711,0,0,0,3.711-3.711v-4.1A1.484,1.484,0,0,0,456.18,366.9Z" transform="translate(-412.038 -366.899)" fill="#e9edf1"/>
          <path id="Path_882015" data-name="Path 882015" d="M213.132,371.545H198.625a1.484,1.484,0,0,1-1.484-1.484V366.9h17.475v3.163a1.484,1.484,0,0,1-1.484,1.484Z" transform="translate(-197.141 -366.898)" fill="#e9edf1"/>
        </g>
      </g>
    </g>
    <g id="Group_1105191" data-name="Group 1105191" transform="translate(0 74.994)">
      <path id="Path_882016" data-name="Path 882016" d="M115.972,114.941a1.113,1.113,0,0,0,.787-1.9l-3.671-3.671a1.113,1.113,0,0,0-1.574,1.574l3.671,3.671A1.11,1.11,0,0,0,115.972,114.941Z" transform="translate(-94.683 -103.99)"/>
      <path id="Path_882017" data-name="Path 882017" d="M86.734,183.922a1.113,1.113,0,0,0,1.113,1.113h5.465a1.113,1.113,0,1,0,0-2.227H87.847A1.113,1.113,0,0,0,86.734,183.922Z" transform="translate(-73.859 -166.804)"/>
      <path id="Path_882018" data-name="Path 882018" d="M365.082,109.37l-3.671,3.671a1.113,1.113,0,0,0,1.575,1.574l3.671-3.671a1.113,1.113,0,1,0-1.575-1.574Z" transform="translate(-307.483 -103.99)"/>
      <path id="Path_882019" data-name="Path 882019" d="M373.449,183.922a1.113,1.113,0,0,0,1.113,1.113h5.465a1.113,1.113,0,0,0,0-2.227h-5.465A1.113,1.113,0,0,0,373.449,183.922Z" transform="translate(-318.011 -166.804)"/>
      <path id="Path_882020" data-name="Path 882020" d="M238.152,251.811a3.111,3.111,0,1,0-3.111-3.111A3.115,3.115,0,0,0,238.152,251.811Zm0-4a.885.885,0,1,1-.885.885A.886.886,0,0,1,238.152,247.815Z" transform="translate(-200.15 -220.264)"/>
      <path id="Path_882021" data-name="Path 882021" d="M238.4,152.191A3.1,3.1,0,0,0,241.5,149.1v-8.727a3.091,3.091,0,1,0-6.182,0V149.1A3.1,3.1,0,0,0,238.4,152.191Zm-.864-11.818a.864.864,0,1,1,1.729,0V149.1a.864.864,0,0,1-1.729,0Z" transform="translate(-200.381 -128.035)"/>
      <path id="Path_882022" data-name="Path 882022" d="M28.152,119.44v2.049a2.6,2.6,0,0,0,2.6,2.6H45.256a2.6,2.6,0,0,0,2.6-2.6V119.44H73.408a.372.372,0,0,1,.371.371v4.1a2.6,2.6,0,0,1-2.6,2.6H60.147a1.113,1.113,0,1,0,0,2.227H71.181a4.83,4.83,0,0,0,4.825-4.825v-4.1a2.6,2.6,0,0,0-2.6-2.6H71.535V78.334a3.344,3.344,0,0,0-3.34-3.34H7.811a3.344,3.344,0,0,0-3.34,3.34v38.879H2.6a2.6,2.6,0,0,0-2.6,2.6v4.1a4.83,4.83,0,0,0,4.825,4.825h50.47a1.113,1.113,0,1,0,0-2.227H4.825a2.6,2.6,0,0,1-2.6-2.6v-4.1a.372.372,0,0,1,.371-.371h8.887a1.113,1.113,0,1,0,0-2.227H6.7V78.334a1.115,1.115,0,0,1,1.113-1.113H68.194a1.115,1.115,0,0,1,1.113,1.113v38.879H55.495v-4.3a4.83,4.83,0,0,0-4.825-4.825h-.34v-15.3a12.328,12.328,0,1,0-24.655,0v4.478a1.113,1.113,0,0,0,2.227,0V92.793a10.1,10.1,0,1,1,20.2,0v15.3H27.9v-5.966a1.113,1.113,0,0,0-2.227,0v5.966h-.34a4.83,4.83,0,0,0-4.825,4.825v4.3H16.337a1.113,1.113,0,1,0,0,2.227Zm17.475,2.049a.371.371,0,0,1-.371.371H30.75a.372.372,0,0,1-.371-.371V119.44H45.627Zm-22.889-4.276v-4.3a2.6,2.6,0,0,1,2.6-2.6H50.67a2.6,2.6,0,0,1,2.6,2.6v4.3Z" transform="translate(0 -74.994)"/>
    </g>
  </g>
</svg>
