<svg id="Group_1101061" data-name="Group 1101061" xmlns="http://www.w3.org/2000/svg" width="110" height="110" viewBox="0 0 110 110">
  <rect id="Rectangle_402033" data-name="Rectangle 402033" width="110" height="110" rx="5" transform="translate(0)" fill="#bfa2f7"/>
  <g id="Group_1105208" data-name="Group 1105208" transform="translate(4.052 15.066)">
    <g id="Group_1105206" data-name="Group 1105206" transform="translate(14.22 1.17)">
      <path id="Path_882036" data-name="Path 882036" d="M80.476,51.053H23.793A3.243,3.243,0,0,1,20.55,47.81V23.231l1.3-3.958-1.3-3.958V10.743A3.243,3.243,0,0,1,23.793,7.5H80.476a3.243,3.243,0,0,1,3.243,3.243V47.81A3.243,3.243,0,0,1,80.476,51.053Z" transform="translate(-20.55 -7.5)" fill="#f7f9fa"/>
      <path id="Path_882037" data-name="Path 882037" d="M391.969,7.5h-3.891a3.243,3.243,0,0,1,3.243,3.243V47.81a3.243,3.243,0,0,1-3.243,3.243h3.891a3.243,3.243,0,0,0,3.243-3.243V23.231l-1.3-4.777,1.3-3.139V10.743A3.243,3.243,0,0,0,391.969,7.5Z" transform="translate(-330.746 -7.5)" fill="#e9edf1"/>
      <path id="Path_882038" data-name="Path 882038" d="M81.124,65.513H20.55V57.6H81.124l1.3,3.488Z" transform="translate(-20.55 -49.782)" fill="#7e8b96"/>
      <path id="Path_882039" data-name="Path 882039" d="M408.865,57.6h3.891v7.916h-3.891Z" transform="translate(-348.291 -49.782)" fill="#4e5a61"/>
      <path id="Path_882040" data-name="Path 882040" d="M166.576,88.36,155.462,84.2a4.742,4.742,0,0,0-6.229,3.16,2.384,2.384,0,0,0,.977,2.63l19.514,12.955v8.62a1.43,1.43,0,0,0,1.43,1.43h21.513a1.43,1.43,0,0,0,1.43-1.43v-8.62l4.625-3.252a5.562,5.562,0,0,0,2.363-4.55L202.25,58.71a4.189,4.189,0,0,0-4.078-4.442,4.431,4.431,0,0,0-2.054.286,4.5,4.5,0,0,0-2.568,4.063l-.146-6.65a4.933,4.933,0,0,0-3.048-4.393,4.374,4.374,0,0,0-1.175-.195,4.5,4.5,0,0,0-4.622,4.494l-.146-6.65c0-2.053-1.273-3.295-3.082-4.4a4.377,4.377,0,0,0-1.142-.184,4.5,4.5,0,0,0-4.622,4.494v6.743a4.3,4.3,0,0,0-2.828-4.025c-.119-.048-.241-.241-.365-.278a4.5,4.5,0,0,0-5.8,4.4Z" transform="translate(-129.085 -35.465)" fill="#fed2a4"/>
      <g id="Group_1105204" data-name="Group 1105204" transform="translate(43.289 5.355)">
        <path id="Path_882041" data-name="Path 882041" d="M299.332,110.491h1.278a.639.639,0,0,0,.639-.639V89.4a4.5,4.5,0,0,0-3.194-4.3v24.118A1.278,1.278,0,0,0,299.332,110.491Z" transform="translate(-298.054 -78.345)" fill="#ffbd86"/>
        <path id="Path_882042" data-name="Path 882042" d="M356.76,73.972h1.278a.639.639,0,0,0,.639-.639V45.686a4.587,4.587,0,0,0-3.194-3.86V72.694A1.278,1.278,0,0,0,356.76,73.972Z" transform="translate(-346.524 -41.826)" fill="#ffbd86"/>
        <path id="Path_882043" data-name="Path 882043" d="M416.526,96.165v-6.65a4.6,4.6,0,0,0-3.194-4.393v24.114a1.278,1.278,0,0,0,1.278,1.278h1.278a.639.639,0,0,0,.639-.639V96.164S416.526,96.164,416.526,96.165Z" transform="translate(-395.349 -78.368)" fill="#ffbd86"/>
      </g>
      <g id="Group_1105205" data-name="Group 1105205" transform="translate(61.205 18.656)">
        <path id="Path_882044" data-name="Path 882044" d="M420.792,127.095a4.481,4.481,0,0,0-2.053.432,4.618,4.618,0,0,1,2.589,4.155v36.432a5.562,5.562,0,0,1-2.363,4.55L415,175.45a1.557,1.557,0,0,0-.661,1.274v7.812a1.43,1.43,0,0,1-1.43,1.43h3.833a1.43,1.43,0,0,0,1.43-1.43v-8.62l4.625-3.252a5.562,5.562,0,0,0,2.363-4.55V131.682A4.556,4.556,0,0,0,420.792,127.095Z" transform="translate(-412.91 -127.093)" fill="#ffbd86"/>
      </g>
    </g>
    <g id="Group_1105207" data-name="Group 1105207" transform="translate(13.05 0)">
      <path id="Path_882045" data-name="Path 882045" d="M46.8,146.113H62.453a1.17,1.17,0,1,0,0-2.34H46.8a1.17,1.17,0,1,0,0,2.34Z" transform="translate(-40.545 -121.345)"/>
      <path id="Path_882046" data-name="Path 882046" d="M46.8,203.092h7.828a1.17,1.17,0,1,0,0-2.34H46.8a1.17,1.17,0,1,0,0,2.34Z" transform="translate(-40.545 -169.436)"/>
      <path id="Path_882047" data-name="Path 882047" d="M61.873,10.834a3.356,3.356,0,0,1,3.42-3.324,3.4,3.4,0,0,1,3.231,3.418V38.67a1.17,1.17,0,0,0,2.34,0V17.578a3.355,3.355,0,0,1,3.42-3.325,3.4,3.4,0,0,1,3.232,3.418v21a1.17,1.17,0,0,0,2.34,0V24.321A3.326,3.326,0,0,1,83.275,21a3.4,3.4,0,0,1,3.232,3.418V60.847a4.4,4.4,0,0,1-1.866,3.593l-4.625,3.252a1.17,1.17,0,0,0-.5.957v8.62a.261.261,0,0,1-.26.26H56.29a.261.261,0,0,1-.26-.26v-8.62a1.17,1.17,0,0,0-.523-.975L35.992,54.717a1.211,1.211,0,0,1-.5-1.34A3.572,3.572,0,0,1,40.187,51L51.3,55.161a1.17,1.17,0,0,0,1.58-1.1V32.3a1.17,1.17,0,1,0-2.34,0V43.552h-22a1.17,1.17,0,0,0,0,2.34h22v6.485l-9.534-3.571a5.912,5.912,0,0,0-7.766,3.94A3.545,3.545,0,0,0,34.7,56.667L53.689,69.275v7.993a2.6,2.6,0,0,0,2.6,2.6H79.258a2.6,2.6,0,0,0,2.6-2.6V69.255l4.128-2.9a6.738,6.738,0,0,0,2.86-5.507V24.415a5.752,5.752,0,0,0-5.507-5.757,5.61,5.61,0,0,0-3.484,1.075V4.413A4.418,4.418,0,0,0,75.443,0H17.463A4.418,4.418,0,0,0,13.05,4.413V41.48a4.418,4.418,0,0,0,4.413,4.413h5.98a1.17,1.17,0,1,0,0-2.34h-5.98A2.075,2.075,0,0,1,15.39,41.48V18.071H50.542v9.134a1.17,1.17,0,0,0,2.34,0V17.671a3.4,3.4,0,0,1,3.232-3.418,3.356,3.356,0,0,1,3.42,3.325V38.67a1.17,1.17,0,0,0,2.34,0Zm3.484-5.663a5.613,5.613,0,0,0-4.109,1.6A5.708,5.708,0,0,0,60.4,7.815H32.562a1.17,1.17,0,0,0,0,2.34H59.574a24.33,24.33,0,0,0-.041,2.834,5.61,5.61,0,0,0-3.484-1.075,5.716,5.716,0,0,0-5.171,3.817H15.39V10.155H27.464a1.17,1.17,0,1,0,0-2.34H15.39v-3.4A2.075,2.075,0,0,1,17.463,2.34h57.98a2.075,2.075,0,0,1,2.073,2.073v3.4H69.95a5.663,5.663,0,0,0-4.594-2.644Zm8.991,6.743a5.61,5.61,0,0,0-3.484,1.075V10.928a5.777,5.777,0,0,0-.053-.773h6.7v2.871a5.542,5.542,0,0,0-3.168-1.111Z" transform="translate(-13.05 0)"/>
    </g>
  </g>
</svg>
