<svg id="Group_1103747" data-name="Group 1103747" xmlns="http://www.w3.org/2000/svg" width="110" height="110" viewBox="0 0 110 110">
  <rect id="Rectangle_402033" data-name="Rectangle 402033" width="110" height="110" rx="5" transform="translate(0)" fill="#bfa2f7"/>
  <g id="Group_1105223" data-name="Group 1105223" transform="translate(3.003 21.438)">
    <g id="Group_1105221" data-name="Group 1105221" transform="translate(22.199 0.983)">
      <g id="Group_1105220" data-name="Group 1105220" transform="translate(0)">
        <path id="Path_882065" data-name="Path 882065" d="M70.7,7.5H30.887a2.171,2.171,0,0,0-2.171,2.171V70.486a2.171,2.171,0,0,0,2.171,2.171H78.829A2.171,2.171,0,0,0,81,70.486V19.107Z" transform="translate(-28.716 -7.5)" fill="#f7f9fa"/>
        <path id="Path_882066" data-name="Path 882066" d="M393.132,76.036v54a2.171,2.171,0,0,1-2.171,2.171h3.933a2.171,2.171,0,0,0,2.171-2.171V78.658Z" transform="translate(-343.47 -67.051)" fill="#e9edf1"/>
        <path id="Path_882067" data-name="Path 882067" d="M359.282,19.107h-8.125a2.171,2.171,0,0,1-2.171-2.171V7.5l7.674,7.674Z" transform="translate(-306.998 -7.5)" fill="#6cf5c2"/>
        <path id="Path_882068" data-name="Path 882068" d="M411.455,69.969l-3.933-3.933v3.933Z" transform="translate(-357.86 -58.362)" fill="#05e39c"/>
        <path id="Path_882069" data-name="Path 882069" d="M197.607,289.023a10.185,10.185,0,0,0-1.471-.023,9.943,9.943,0,0,0-7.546,5.659H165.934v8.332H188.59a9.943,9.943,0,0,0,7.511,5.653,10.161,10.161,0,0,0,1.506-.018,9.8,9.8,0,0,0,0-19.6Z" transform="translate(-147.944 -252.071)" fill="#ffe282"/>
        <path id="Path_882070" data-name="Path 882070" d="M397.543,288.351a10,10,0,0,0-1.506.114,9.934,9.934,0,0,1,0,19.637,9.933,9.933,0,1,0,1.506-19.751Z" transform="translate(-347.881 -251.531)" fill="#ffd368"/>
        <circle id="Ellipse_11791" data-name="Ellipse 11791" cx="1.765" cy="1.765" r="1.765" transform="translate(10.815 55.422) rotate(-84.375)" fill="#fd8087"/>
        <g id="Group_1105216" data-name="Group 1105216" transform="translate(11.028 37.889)">
          <g id="Group_1105215" data-name="Group 1105215">
            <g id="Group_1105214" data-name="Group 1105214">
              <path id="Path_882071" data-name="Path 882071" d="M114.582,307.7a1.747,1.747,0,0,1-1.747-1.747v-7.707a1.747,1.747,0,0,1,3.493,0v7.707A1.747,1.747,0,0,1,114.582,307.7Z" transform="translate(-112.835 -296.501)" fill="#fd8087"/>
            </g>
          </g>
        </g>
        <circle id="Ellipse_11792" data-name="Ellipse 11792" cx="1.765" cy="1.765" r="1.765" transform="matrix(0.106, -0.994, 0.994, 0.106, 3.534, 55.404)" fill="#fd8087"/>
        <g id="Group_1105219" data-name="Group 1105219" transform="translate(3.767 37.889)">
          <g id="Group_1105218" data-name="Group 1105218">
            <g id="Group_1105217" data-name="Group 1105217">
              <path id="Path_882072" data-name="Path 882072" d="M59.2,307.7a1.747,1.747,0,0,1-1.747-1.747v-7.707a1.747,1.747,0,1,1,3.493,0v7.707A1.747,1.747,0,0,1,59.2,307.7Z" transform="translate(-57.452 -296.501)" fill="#fd8087"/>
            </g>
          </g>
        </g>
      </g>
    </g>
    <g id="Group_1105222" data-name="Group 1105222" transform="translate(21.216 0)">
      <path id="Path_882073" data-name="Path 882073" d="M107.81,397.308a2.748,2.748,0,1,0,2.748,2.748A2.751,2.751,0,0,0,107.81,397.308Zm0,3.529a.781.781,0,1,1,.781-.781A.782.782,0,0,1,107.81,400.837Z" transform="translate(-94.07 -345.22)"/>
      <path id="Path_882074" data-name="Path 882074" d="M110.795,291.731a2.73,2.73,0,1,0-5.46,0v7.707a2.73,2.73,0,0,0,5.46,0Zm-1.967,7.707a.763.763,0,0,1-1.527,0v-7.707a.763.763,0,1,1,1.527,0Z" transform="translate(-94.307 -251.112)"/>
      <path id="Path_882075" data-name="Path 882075" d="M441.325,357.6a.983.983,0,1,0-.983.983A.983.983,0,0,0,441.325,357.6Z" transform="translate(-384.539 -309.86)"/>
      <path id="Path_882076" data-name="Path 882076" d="M52.427,402.8a2.748,2.748,0,1,0-2.748-2.748A2.751,2.751,0,0,0,52.427,402.8Zm0-3.529a.781.781,0,1,1-.781.781A.782.782,0,0,1,52.427,399.275Z" transform="translate(-45.947 -345.22)"/>
      <path id="Path_882077" data-name="Path 882077" d="M49.952,291.731v7.707a2.73,2.73,0,0,0,5.46,0v-7.707a2.73,2.73,0,1,0-5.46,0Zm3.493,0v7.707a.763.763,0,0,1-1.527,0v-7.707a.763.763,0,1,1,1.527,0Z" transform="translate(-46.185 -251.112)"/>
      <path id="Path_882078" data-name="Path 882078" d="M72.509,64.622H99.8a.983.983,0,0,0,0-1.967H72.509a.983.983,0,1,0,0,1.967Z" transform="translate(-64.93 -54.441)"/>
      <path id="Path_882079" data-name="Path 882079" d="M72.509,124.694H99.8a.983.983,0,0,0,0-1.967H72.509a.983.983,0,1,0,0,1.967Z" transform="translate(-64.93 -106.637)"/>
      <path id="Path_882080" data-name="Path 882080" d="M72.509,184.764h37.782a.983.983,0,1,0,0-1.967H72.509a.983.983,0,1,0,0,1.967Z" transform="translate(-64.93 -158.832)"/>
      <path id="Path_882081" data-name="Path 882081" d="M304.458,242.867h-8.485a.983.983,0,0,0,0,1.967h8.485a.983.983,0,0,0,0-1.967Z" transform="translate(-259.097 -211.027)"/>
      <path id="Path_882082" data-name="Path 882082" d="M72.509,244.834H97.52a.983.983,0,1,0,0-1.967H72.509a.983.983,0,1,0,0,1.967Z" transform="translate(-64.93 -211.027)"/>
      <path id="Path_882083" data-name="Path 882083" d="M82.777,47.736a10.925,10.925,0,0,0-6-9.741v-25.4a1,1,0,0,0-.288-.7L64.882.288a.994.994,0,0,0-.7-.288H24.37a3.158,3.158,0,0,0-3.154,3.155V18.961a.983.983,0,0,0,1.967,0V3.155A1.189,1.189,0,0,1,24.37,1.967H63.2v8.453a3.158,3.158,0,0,0,3.154,3.155h8.453V37.229a10.9,10.9,0,0,0-12.574,5.359H41.172V40.625a.983.983,0,0,0-1.967,0V54.848a.983.983,0,0,0,1.967,0V52.885h5.682a.983.983,0,0,0,0-1.967H41.172V44.553H62.845a.983.983,0,0,0,.892-.57,8.949,8.949,0,1,1,0,7.506.983.983,0,0,0-.892-.57H51.139a.983.983,0,1,0,0,1.967h11.1a10.9,10.9,0,0,0,12.574,5.359V63.97a1.189,1.189,0,0,1-1.188,1.188H24.37a1.189,1.189,0,0,1-1.188-1.188V23.247a.983.983,0,1,0-1.967,0V63.97a3.158,3.158,0,0,0,3.154,3.155H73.623a3.158,3.158,0,0,0,3.154-3.154V57.477A10.926,10.926,0,0,0,82.777,47.736ZM66.358,11.607a1.189,1.189,0,0,1-1.188-1.188V3.357l8.25,8.25H66.358Z" transform="translate(-21.216 0)"/>
    </g>
  </g>
</svg>
