<svg id="Group_1103682" data-name="Group 1103682" xmlns="http://www.w3.org/2000/svg" width="80" height="80" viewBox="0 0 80 80">
  <rect id="Rectangle_402033" data-name="Rectangle 402033" width="80" height="80" rx="5" transform="translate(0)" fill="#bfa2f7"/>
  <g id="Group_1105061" data-name="Group 1105061" transform="translate(11.134 3.499)">
    <g id="Group_1105059" data-name="Group 1105059" transform="translate(0.846 9.452)">
      <g id="Group_1105058" data-name="Group 1105058">
        <path id="Path_881631" data-name="Path 881631" d="M7.5,77.387a1.691,1.691,0,0,0,1.691,1.691H59.82a1.691,1.691,0,0,0,1.691-1.691V27.8a1.691,1.691,0,0,0-1.691-1.691h-49.5A1.691,1.691,0,0,0,8.628,27.8L7.5,37.064Z" transform="translate(-7.5 -24.978)" fill="#f7f9fa"/>
        <path id="Path_881632" data-name="Path 881632" d="M461.755,18.106H459.5a1.513,1.513,0,0,1,1.691,1.466V70.289a1.691,1.691,0,0,1-1.691,1.691h3.383a1.691,1.691,0,0,0,1.691-1.691V29.966l-1.128-10.395a1.513,1.513,0,0,0-1.691-1.466Z" transform="translate(-408.533 -17.88)" fill="#e9edf1"/>
        <path id="Path_881633" data-name="Path 881633" d="M60.5,16.106H9.191A1.691,1.691,0,0,0,7.5,17.8V28.192H62.188V17.8A1.691,1.691,0,0,0,60.5,16.106Z" transform="translate(-7.5 -16.106)" fill="#978ecb"/>
        <path id="Path_881634" data-name="Path 881634" d="M462.883,16.106H459.5a1.691,1.691,0,0,1,1.691,1.691V28.192h3.383V17.8A1.691,1.691,0,0,0,462.883,16.106Z" transform="translate(-408.533 -16.106)" fill="#6e61b6"/>
        <path id="Path_881635" data-name="Path 881635" d="M191.232,54.685a1.819,1.819,0,0,1-1.893,1.893,1.914,1.914,0,1,1,0-3.787A1.819,1.819,0,0,1,191.232,54.685Z" transform="translate(-167.055 -48.642)" fill="#6cf5c2"/>
        <path id="Path_881636" data-name="Path 881636" d="M198.913,51.907a2,2,0,0,0-.789.162,2.006,2.006,0,0,1,0,3.689,2.006,2.006,0,1,0,.789-3.85Z" transform="translate(-176.629 -47.87)" fill="#05e39c"/>
        <path id="Path_881637" data-name="Path 881637" d="M119.817,54.685a1.819,1.819,0,0,1-1.893,1.893,1.914,1.914,0,1,1,0-3.787A1.819,1.819,0,0,1,119.817,54.685Z" transform="translate(-103.693 -48.642)" fill="#ffe282"/>
        <path id="Path_881638" data-name="Path 881638" d="M127.5,51.907a2,2,0,0,0-.789.162,2.006,2.006,0,0,1,0,3.689,2.006,2.006,0,1,0,.789-3.85Z" transform="translate(-113.267 -47.87)" fill="#ffd368"/>
        <path id="Path_881639" data-name="Path 881639" d="M48.4,54.685a1.819,1.819,0,0,1-1.893,1.893,1.914,1.914,0,1,1,0-3.787A1.819,1.819,0,0,1,48.4,54.685Z" transform="translate(-40.331 -48.642)" fill="#fd8087"/>
        <path id="Path_881640" data-name="Path 881640" d="M56.084,51.907a2,2,0,0,0-.789.162,2.006,2.006,0,0,1,0,3.689,2.006,2.006,0,1,0,.789-3.85Z" transform="translate(-49.906 -47.87)" fill="#fd4755"/>
        <path id="Path_881641" data-name="Path 881641" d="M70.583,186.169a1.819,1.819,0,0,1-1.893,1.893,1.914,1.914,0,1,1,0-3.787A1.819,1.819,0,0,1,70.583,186.169Z" transform="translate(-60.01 -165.3)" fill="#6cf5c2"/>
        <path id="Path_881642" data-name="Path 881642" d="M78.264,183.391a2,2,0,0,0-.789.162,2.006,2.006,0,0,1,0,3.689,2.006,2.006,0,1,0,.789-3.85Z" transform="translate(-69.585 -164.528)" fill="#05e39c"/>
        <path id="Path_881643" data-name="Path 881643" d="M413.633,186.169a1.819,1.819,0,0,1-1.893,1.893,1.914,1.914,0,1,1,0-3.787A1.819,1.819,0,0,1,413.633,186.169Z" transform="translate(-364.379 -165.3)" fill="#6cf5c2"/>
        <path id="Path_881644" data-name="Path 881644" d="M421.314,183.391a2,2,0,0,0-.789.162,2.006,2.006,0,0,1,0,3.689,2.006,2.006,0,1,0,.789-3.85Z" transform="translate(-373.953 -164.528)" fill="#05e39c"/>
        <path id="Path_881645" data-name="Path 881645" d="M70.583,403.727a1.819,1.819,0,0,1-1.893,1.893,1.914,1.914,0,1,1,0-3.787A1.819,1.819,0,0,1,70.583,403.727Z" transform="translate(-60.01 -358.326)" fill="#6cf5c2"/>
        <path id="Path_881646" data-name="Path 881646" d="M78.264,400.949a2,2,0,0,0-.789.162,2.006,2.006,0,0,1,0,3.689,2.006,2.006,0,1,0,.789-3.85Z" transform="translate(-69.585 -357.555)" fill="#05e39c"/>
        <path id="Path_881647" data-name="Path 881647" d="M413.633,403.727a1.819,1.819,0,0,1-1.893,1.893,1.914,1.914,0,1,1,0-3.787A1.819,1.819,0,0,1,413.633,403.727Z" transform="translate(-364.379 -358.326)" fill="#6cf5c2"/>
        <path id="Path_881648" data-name="Path 881648" d="M421.314,400.949a2,2,0,0,0-.789.162,2.006,2.006,0,0,1,0,3.689,2.006,2.006,0,1,0,.789-3.85Z" transform="translate(-373.953 -357.555)" fill="#05e39c"/>
        <path id="Path_881649" data-name="Path 881649" d="M423.633,294.579a1.819,1.819,0,0,1-1.893,1.893,1.914,1.914,0,1,1,0-3.787A1.819,1.819,0,0,1,423.633,294.579Z" transform="translate(-373.251 -261.486)" fill="#6cf5c2"/>
        <path id="Path_881650" data-name="Path 881650" d="M431.314,291.8a2,2,0,0,0-.789.162,2.006,2.006,0,0,1,0,3.689,2.006,2.006,0,1,0,.789-3.85Z" transform="translate(-382.825 -260.714)" fill="#05e39c"/>
        <path id="Path_881651" data-name="Path 881651" d="M60.583,294.579a1.819,1.819,0,0,1-1.893,1.893,1.914,1.914,0,1,1,0-3.787,1.819,1.819,0,0,1,1.893,1.893Z" transform="translate(-51.138 -261.486)" fill="#6cf5c2"/>
        <path id="Path_881652" data-name="Path 881652" d="M68.264,291.8a2,2,0,0,0-.789.162,2.006,2.006,0,0,1,0,3.689,2.006,2.006,0,1,0,.789-3.85Z" transform="translate(-60.712 -260.714)" fill="#05e39c"/>
        <path id="Path_881653" data-name="Path 881653" d="M165.918,208.116c0,7.153-4.671,12.838-11.823,12.838-.438,0-.87.091-1.3.049a12.952,12.952,0,0,1-.027-25.771c.435-.044.877.046,1.324.046C161.248,195.278,165.918,200.964,165.918,208.116Z" transform="translate(-126.074 -175.023)" fill="#978ecb"/>
        <path id="Path_881654" data-name="Path 881654" d="M245.8,194.736q-.657,0-1.3.064a12.952,12.952,0,0,1,0,25.773q.64.064,1.3.064a12.951,12.951,0,1,0,0-25.9Z" transform="translate(-217.776 -174.594)" fill="#6e61b6"/>
        <path id="Path_881655" data-name="Path 881655" d="M212.462,294.153a5.733,5.733,0,0,1-.911.038,5.535,5.535,0,0,1-4.622-5.459V283.2a.911.911,0,0,1,.911-.911h8.117a.911.911,0,0,1,.911.911v5.533C216.868,291.789,215.518,294.153,212.462,294.153Z" transform="translate(-184.442 -252.275)" fill="#fd8087"/>
        <path id="Path_881656" data-name="Path 881656" d="M253.455,282.288h-1.822a.911.911,0,0,1,.911.911v5.533a5.534,5.534,0,0,1-4.622,5.457,5.531,5.531,0,0,0,6.444-5.457V283.2A.911.911,0,0,0,253.455,282.288Z" transform="translate(-220.812 -252.274)" fill="#fd4755"/>
      </g>
    </g>
    <g id="Group_1105060" data-name="Group 1105060" transform="translate(0 8.606)">
      <path id="Path_881657" data-name="Path 881657" d="M179.833,47.259a2.852,2.852,0,1,0,2.852-2.852A2.855,2.855,0,0,0,179.833,47.259Zm4.012,0a1.16,1.16,0,1,1-1.16-1.16A1.162,1.162,0,0,1,183.845,47.259Z" transform="translate(-159.555 -40.37)"/>
      <path id="Path_881658" data-name="Path 881658" d="M108.418,47.259a2.852,2.852,0,1,0,2.852-2.852A2.855,2.855,0,0,0,108.418,47.259Zm4.012,0a1.16,1.16,0,1,1-1.16-1.16A1.162,1.162,0,0,1,112.43,47.259Z" transform="translate(-96.193 -40.37)"/>
      <path id="Path_881659" data-name="Path 881659" d="M37,47.259a2.852,2.852,0,1,0,2.852-2.852A2.855,2.855,0,0,0,37,47.259Zm4.012,0a1.16,1.16,0,1,1-1.16-1.16A1.162,1.162,0,0,1,41.015,47.259Z" transform="translate(-32.831 -40.37)"/>
      <path id="Path_881660" data-name="Path 881660" d="M55.2,8.606H2.537A2.54,2.54,0,0,0,0,11.143V43.986a.846.846,0,0,0,1.691,0v-21.6h31.64a.846.846,0,1,0,0-1.691H1.691V11.143a.847.847,0,0,1,.846-.846H55.2a.847.847,0,0,1,.846.846v9.549H37.017a.846.846,0,1,0,0,1.691H56.041V61.861a.847.847,0,0,1-.846.846H2.537a.847.847,0,0,1-.846-.846V47.672a.846.846,0,0,0-1.691,0V61.861A2.54,2.54,0,0,0,2.537,64.4H55.2a2.54,2.54,0,0,0,2.537-2.537V11.143A2.54,2.54,0,0,0,55.2,8.606Z" transform="translate(0 -8.606)"/>
      <path id="Path_881661" data-name="Path 881661" d="M205.808,223.174a4.65,4.65,0,0,0-4.645,4.645V229a1.758,1.758,0,0,0-1.734,1.756v5.533a6.379,6.379,0,0,0,12.758,0v-5.533A1.758,1.758,0,0,0,210.452,229v-1.176A4.65,4.65,0,0,0,205.808,223.174Zm0,1.691a2.957,2.957,0,0,1,2.953,2.953v1.175h-5.906v-1.175A2.957,2.957,0,0,1,205.808,224.865Zm4.687,5.885v5.533a4.687,4.687,0,1,1-9.375,0v-5.533a.065.065,0,0,1,.065-.065h9.245A.065.065,0,0,1,210.5,230.751Z" transform="translate(-176.942 -198.98)"/>
      <path id="Path_881662" data-name="Path 881662" d="M246.884,316.574a1.184,1.184,0,1,0-1.143,0l-.644,1.5a.194.194,0,0,0,.178.27h2.075a.194.194,0,0,0,.178-.27Z" transform="translate(-217.447 -279.877)"/>
      <path id="Path_881663" data-name="Path 881663" d="M54.76,190.121a2.852,2.852,0,1,0,0,1.691h3.976a13.705,13.705,0,0,0,.881,4.088H54.291a1.976,1.976,0,0,0-1.973,1.973v2.676a2.852,2.852,0,1,0,1.691,0v-2.676a.282.282,0,0,1,.282-.282H60.4a13.886,13.886,0,0,0,.9,1.432.846.846,0,1,0,1.372-.989,12.146,12.146,0,0,1-.984-1.616.817.817,0,0,0-.038-.079,12.113,12.113,0,1,1,3.413,4.178.846.846,0,0,0-1.04,1.334,13.661,13.661,0,0,0,8.477,2.911,13.807,13.807,0,0,0,12.1-7.171h6.115a.282.282,0,0,1,.282.282v2.676a2.852,2.852,0,1,0,1.691,0v-2.676a1.976,1.976,0,0,0-1.973-1.973H85.388a13.7,13.7,0,0,0,.886-4.088h3.975a2.852,2.852,0,1,0,0-1.691H86.274a13.7,13.7,0,0,0-.886-4.088h5.329a1.976,1.976,0,0,0,1.973-1.973v-2.593a2.852,2.852,0,1,0-1.691,0v2.593a.282.282,0,0,1-.282.282H84.6a13.791,13.791,0,0,0-24.2,0H54.291a.282.282,0,0,1-.282-.282v-2.593a2.852,2.852,0,1,0-1.691,0v2.593a1.976,1.976,0,0,0,1.973,1.973H59.62a13.7,13.7,0,0,0-.886,4.088Zm-1.6,14.313a1.16,1.16,0,1,1,1.16-1.16A1.162,1.162,0,0,1,53.163,204.435Zm38.682,0a1.16,1.16,0,1,1,1.16-1.16,1.162,1.162,0,0,1-1.16,1.16Zm0-26.852a1.16,1.16,0,1,1-1.161,1.16,1.162,1.162,0,0,1,1.161-1.16Zm1.128,12.224a1.16,1.16,0,1,1-1.161,1.16A1.162,1.162,0,0,1,92.973,189.807ZM53.163,177.582a1.16,1.16,0,1,1-1.16,1.16A1.162,1.162,0,0,1,53.163,177.582Zm-1.128,14.545a1.16,1.16,0,1,1,1.16-1.16,1.162,1.162,0,0,1-1.16,1.16Z" transform="translate(-43.638 -157.028)"/>
    </g>
  </g>
</svg>
