<svg xmlns="http://www.w3.org/2000/svg" width="72" height="72" viewBox="0 0 72 72">
  <g id="Group_1101819" data-name="Group 1101819" transform="translate(-704.721 -6155)">
    <rect id="Rectangle_402033" data-name="Rectangle 402033" width="72" height="72" rx="5" transform="translate(704.721 6155)" fill="#bfa2f7"/>
    <g id="Group_1103145" data-name="Group 1103145" transform="translate(715.343 6165.724)">
      <path id="Path_879819" data-name="Path 879819" d="M28.737,6.718V8.291L25.591,9.864H12.474a5.5,5.5,0,1,1,0-4.718H25.591ZM8.291,7.5A1.573,1.573,0,1,0,6.718,9.077,1.577,1.577,0,0,0,8.291,7.5Z" transform="translate(-0.214 -0.249)" fill="#fcd770"/>
      <path id="Path_879820" data-name="Path 879820" d="M42.891,54v3.145a3.145,3.145,0,0,1-3.145,3.145H5.145A3.145,3.145,0,0,1,2,57.145V54H17.727v1.573A1.577,1.577,0,0,0,19.3,57.145h6.291a1.577,1.577,0,0,0,1.573-1.573V54H42.891Z" transform="translate(-0.214 -11.358)" fill="#969faa"/>
      <path id="Path_879821" data-name="Path 879821" d="M31.436,54v1.573a1.577,1.577,0,0,1-1.573,1.573H23.573A1.577,1.577,0,0,1,22,55.573V54Z" transform="translate(-4.486 -11.358)" fill="#fcd770"/>
      <path id="Path_879822" data-name="Path 879822" d="M7.145,20H38.6a3.146,3.146,0,0,1,3.145,3.145V46.737H4V23.145A3.146,3.146,0,0,1,7.145,20Z" transform="translate(-0.641 -4.095)" fill="#e6e9ed"/>
      <path id="Path_879823" data-name="Path 879823" d="M38.668,44.446H8.786A.787.787,0,0,1,8,43.659V24.786A.787.787,0,0,1,8.786,24H38.668a.787.787,0,0,1,.786.786V43.659A.787.787,0,0,1,38.668,44.446Z" transform="translate(-1.495 -4.949)" fill="#69d6f4"/>
      <path id="Path_879824" data-name="Path 879824" d="M19.125,38H20.6a7.183,7.183,0,0,1,7.125,6.291H12A7.191,7.191,0,0,1,19.125,38Z" transform="translate(-2.35 -7.94)" fill="#ff826e"/>
      <circle id="Ellipse_11700" data-name="Ellipse 11700" cx="3.932" cy="3.932" r="3.932" transform="translate(13.582 22.196)" fill="#f0d0b4"/>
      <path id="Path_879825" data-name="Path 879825" d="M45.436,25.316A14.446,14.446,0,0,1,38.123,19.3a14.606,14.606,0,0,1-1.439-3.145,14.407,14.407,0,0,1-.684-4.4V4.359h2.28A14.511,14.511,0,0,0,45.727,2.3l.5-.3.5.3a14.51,14.51,0,0,0,7.447,2.06h2.28v7.392a14.468,14.468,0,0,1-7.864,12.873,13.506,13.506,0,0,1-2.359.967c-.267-.079-.527-.173-.786-.267Z" transform="translate(-7.477 -0.249)" fill="#969faa"/>
      <path id="Path_879826" data-name="Path 879826" d="M54.155,8.464v4.27A11.273,11.273,0,0,1,47.077,23.24,11.273,11.273,0,0,1,40,12.734V8.464A17.623,17.623,0,0,0,47.077,6.6a17.623,17.623,0,0,0,7.077,1.864Z" transform="translate(-8.332 -1.232)" fill="#ffeaa7"/>
      <path id="Path_879827" data-name="Path 879827" d="M48.145,11a3.138,3.138,0,0,1,1.573,5.858V19.65H46.573V16.858A3.138,3.138,0,0,1,48.145,11Z" transform="translate(-9.4 -2.172)" fill="#b4dd7f"/>
      <path id="Path_879828" data-name="Path 879828" d="M28.265,41.843a7.979,7.979,0,0,0-5.514-6.6,4.718,4.718,0,1,0-6.259,0,7.98,7.98,0,0,0-5.514,6.6l-.111.884H28.376ZM19.622,28.573a3.145,3.145,0,1,1-3.145,3.145A3.149,3.149,0,0,1,19.622,28.573ZM12.713,41.155a6.409,6.409,0,0,1,6.172-4.718h1.474a6.41,6.41,0,0,1,6.172,4.718Z" transform="translate(-2.108 -5.59)"/>
      <path id="Path_879829" data-name="Path 879829" d="M47.218,5.655l-.354-.179-.354.179a16.763,16.763,0,0,1-6.762,1.786L39,7.477v5.015a12.053,12.053,0,0,0,7.57,11.236l.294.118.294-.118a12.054,12.054,0,0,0,7.57-11.237V7.477L53.98,7.44A16.761,16.761,0,0,1,47.218,5.655Zm5.937,6.837a10.486,10.486,0,0,1-6.291,9.653,10.487,10.487,0,0,1-6.291-9.653V8.959a18.281,18.281,0,0,0,6.291-1.726,18.285,18.285,0,0,0,6.291,1.726Z" transform="translate(-8.118 -0.992)"/>
      <path id="Path_879830" data-name="Path 879830" d="M46.689,3.323a13.7,13.7,0,0,1-7.046-1.951l-.9-.539-.9.539A13.7,13.7,0,0,1,30.8,3.323H27.737V5.2L25.563,4.11H12.733a6.291,6.291,0,1,0,0,6.291H18.3v1.573a1.574,1.574,0,0,0,1.573,1.573h1.573V11.973H19.873V10.4h4.718v1.573H23.018v1.573h1.573a1.574,1.574,0,0,0,1.573-1.573V10.1l1.573-.786V11.5a15.468,15.468,0,0,0,.429,3.619H6.5a3.936,3.936,0,0,0-3.932,3.932v22.8H1v3.932a3.936,3.936,0,0,0,3.932,3.932h34.6a3.936,3.936,0,0,0,3.932-3.932V41.855H41.891V24.846A15.171,15.171,0,0,0,49.755,11.5V3.323Zm-21.5,5.5H11.762l-.213.448a4.719,4.719,0,1,1,0-4.042l.214.448h13.43l2.545,1.272v.6Zm16.7,36.959a2.362,2.362,0,0,1-2.359,2.359H4.932a2.362,2.362,0,0,1-2.359-2.359V43.428H16.727v.786a2.362,2.362,0,0,0,2.359,2.359h6.291a2.362,2.362,0,0,0,2.359-2.359v-.786H41.891ZM18.3,43.428h7.864v.786a.787.787,0,0,1-.786.786H19.086a.787.787,0,0,1-.786-.786Zm22.018-1.573H4.145v-22.8A2.362,2.362,0,0,1,6.5,16.692H28.644a14.982,14.982,0,0,0,.665,1.573H7.291a1.574,1.574,0,0,0-1.573,1.573V38.71a1.574,1.574,0,0,0,1.573,1.573H37.173a1.574,1.574,0,0,0,1.573-1.573V26.164l.231-.071c.459-.142.9-.307,1.342-.488Zm-3.145-16.25v13.1H7.291V19.837H30.2A15.174,15.174,0,0,0,37.173,25.606ZM48.182,11.5a13.625,13.625,0,0,1-9.436,13.017A13.625,13.625,0,0,1,29.309,11.5V4.9H30.8A15.272,15.272,0,0,0,38.658,2.72l.088-.052.087.052A15.277,15.277,0,0,0,46.689,4.9h1.493Z" transform="translate(0)"/>
      <path id="Path_879831" data-name="Path 879831" d="M44,13.932a3.936,3.936,0,0,0,1.573,3.129v3.162h4.718V17.061A3.926,3.926,0,1,0,44,13.932Zm6.291,0a2.334,2.334,0,0,1-1.182,2.03l-.391.227V18.65H47.145V16.189l-.391-.227a2.334,2.334,0,0,1-1.182-2.03,2.359,2.359,0,1,1,4.718,0Z" transform="translate(-9.186 -1.958)"/>
      <path id="Path_879832" data-name="Path 879832" d="M43,45h1.573v1.573H43Z" transform="translate(-8.973 -9.435)"/>
      <path id="Path_879833" data-name="Path 879833" d="M35,45h4.718v1.573H35Z" transform="translate(-7.263 -9.435)"/>
      <path id="Path_879834" data-name="Path 879834" d="M35,41h7.864v1.573H35Z" transform="translate(-7.263 -8.581)"/>
      <path id="Path_879835" data-name="Path 879835" d="M35,37h7.864v1.573H35Z" transform="translate(-7.263 -7.726)"/>
      <path id="Path_879836" data-name="Path 879836" d="M35,33h7.864v1.573H35Z" transform="translate(-7.263 -6.872)"/>
      <path id="Path_879837" data-name="Path 879837" d="M11,27h1.573v1.573H11Z" transform="translate(-2.136 -5.59)"/>
      <path id="Path_879838" data-name="Path 879838" d="M11,31h1.573v1.573H11Z" transform="translate(-2.136 -6.445)"/>
      <path id="Path_879839" data-name="Path 879839" d="M11,35h1.573v1.573H11Z" transform="translate(-2.136 -7.299)"/>
      <path id="Path_879840" data-name="Path 879840" d="M7.359,6A2.359,2.359,0,1,0,9.718,8.359,2.362,2.362,0,0,0,7.359,6Zm0,3.145a.786.786,0,1,1,.786-.786A.787.787,0,0,1,7.359,9.145Z" transform="translate(-0.855 -1.104)"/>
    </g>
  </g>
</svg>
