<svg xmlns="http://www.w3.org/2000/svg" width="130" height="137.884" viewBox="0 0 130 137.884">
  <g id="Group_1103696" data-name="Group 1103696" transform="translate(-280.01 -5846.501)">
    <path id="Path_873448" data-name="Path 873448" d="M130,133.973A3.976,3.976,0,0,0,126.024,130H3.976A3.976,3.976,0,0,0,0,133.973v73.452c0,.055,0,.109,0,.163a7.565,7.565,0,0,0,3.453,6.532l57.4,29.89a7.6,7.6,0,0,0,8.277,0l57.4-29.89A7.565,7.565,0,0,0,130,207.589c0-.054,0-.109,0-.163Z" transform="translate(280.01 5739.148)" fill="#fff"/>
    <path id="Path_873449" data-name="Path 873449" d="M121.194,83.7A3.707,3.707,0,0,0,117.487,80H3.707A3.707,3.707,0,0,0,0,83.7V169c0,.051,0,.1,0,.152a7.053,7.053,0,0,0,3.219,6.09l53.516,27.865a7.083,7.083,0,0,0,7.716,0l53.516-27.865a7.053,7.053,0,0,0,3.219-6.09c0-.051,0-.1,0-.152Z" transform="translate(284.343 5774.085)" fill="#6018ec"/>
    <path id="Path_873665" data-name="Path 873665" d="M108.068,12.3A3.305,3.305,0,0,0,104.763,9H3.305A3.305,3.305,0,0,0,0,12.3v89.87c0,.046,0,.091,0,.136a6.289,6.289,0,0,0,2.87,5.43l47.72,24.847a6.316,6.316,0,0,0,6.881,0l47.72-24.847a6.289,6.289,0,0,0,2.87-5.43c0-.045,0-.09,0-.136Z" transform="translate(290.843 5838.004)" fill="none" stroke="#fff" stroke-width="1"/>
    <g id="Group_1105095" data-name="Group 1105095" transform="translate(306.575 5873.626)">
      <g id="Group_1105090" data-name="Group 1105090" transform="translate(39.651 39.356)">
        <path id="Path_881787" data-name="Path 881787" d="M280.423,318.433l-6.9,6.9-3.752.816a1.547,1.547,0,0,1-1.841-1.841l.816-3.752,9.709-9.709,4.777,4.777" transform="translate(-267.896 -308.304)" fill="none" stroke="#fff" stroke-linecap="round" stroke-linejoin="round" stroke-miterlimit="10" stroke-width="2"/>
        <path id="Path_881788" data-name="Path 881788" d="M361.036,290.976l4.777,4.777,2-2a1.85,1.85,0,0,0,0-2.616l-2.16-2.16a1.85,1.85,0,0,0-2.616,0Z" transform="translate(-350.474 -288.435)" fill="none" stroke="#fff" stroke-linecap="round" stroke-linejoin="round" stroke-miterlimit="10" stroke-width="2"/>
        <path id="Path_881789" data-name="Path 881789" d="M273.524,401.246l-3.752.816a1.547,1.547,0,0,1-1.841-1.841l.816-3.752Z" transform="translate(-267.895 -384.219)" fill="none" stroke="#fff" stroke-linecap="round" stroke-linejoin="round" stroke-miterlimit="10" stroke-width="2"/>
      </g>
      <g id="Group_1105091" data-name="Group 1105091" transform="translate(33.037 7.5)">
        <path id="Path_881790" data-name="Path 881790" d="M209.567,13.191v-2.7A2.991,2.991,0,0,1,212.559,7.5h27.125a2.991,2.991,0,0,1,2.991,2.991V29.229a2.991,2.991,0,0,1-2.991,2.991H214.709l-2.976,4.152a1.2,1.2,0,0,1-2.166-.7V17.171" transform="translate(-209.567 -7.5)" fill="none" stroke="#fff" stroke-linecap="round" stroke-linejoin="round" stroke-miterlimit="10" stroke-width="2"/>
      </g>
      <path id="Path_881791" data-name="Path 881791" d="M10.459,231.39V198.7a2.235,2.235,0,0,1,2.235-2.236H33.037" transform="translate(0 -167.533)" fill="none" stroke="#fff" stroke-linecap="round" stroke-linejoin="round" stroke-miterlimit="10" stroke-width="2"/>
      <line id="Line_5244" data-name="Line 5244" y2="7.473" transform="translate(45.28 56.384)" fill="none" stroke="#fff" stroke-linecap="round" stroke-linejoin="round" stroke-miterlimit="10" stroke-width="2"/>
      <line id="Line_5245" data-name="Line 5245" y1="14.608" transform="translate(45.28 32.221)" fill="none" stroke="#fff" stroke-linecap="round" stroke-linejoin="round" stroke-miterlimit="10" stroke-width="2"/>
      <g id="Group_1105092" data-name="Group 1105092" transform="translate(38.62 20.516)">
        <path id="Path_881792" data-name="Path 881792" d="M258.8,122.285s11.787,4.054,22.168,0c0,0-2.812,6.371-11.084,6.371S258.8,122.285,258.8,122.285Z" transform="translate(-258.805 -122.285)" fill="none" stroke="#fff" stroke-linecap="round" stroke-linejoin="round" stroke-miterlimit="10" stroke-width="2"/>
      </g>
      <path id="Path_881793" data-name="Path 881793" d="M258.8,65.014s6.039-3.259,11.084-3V60.248A2.555,2.555,0,0,0,266.4,57.87C263.694,58.935,260.186,61.039,258.8,65.014Z" transform="translate(-220.185 -44.498)" fill="none" stroke="#fff" stroke-linecap="round" stroke-linejoin="round" stroke-miterlimit="10" stroke-width="2"/>
      <path id="Path_881794" data-name="Path 881794" d="M367.639,65.014s-6.039-3.259-11.084-3V60.248a2.555,2.555,0,0,1,3.492-2.378C362.75,58.935,366.258,61.039,367.639,65.014Z" transform="translate(-306.851 -44.498)" fill="none" stroke="#fff" stroke-linecap="round" stroke-linejoin="round" stroke-miterlimit="10" stroke-width="2"/>
      <g id="Group_1105093" data-name="Group 1105093" transform="translate(13.747 39.996)">
        <line id="Line_5246" data-name="Line 5246" x2="18.066" transform="translate(10.178)" fill="none" stroke="#fff" stroke-linecap="round" stroke-linejoin="round" stroke-miterlimit="10" stroke-width="2"/>
        <line id="Line_5247" data-name="Line 5247" x2="18.066" transform="translate(10.178 4.477)" fill="none" stroke="#fff" stroke-linecap="round" stroke-linejoin="round" stroke-miterlimit="10" stroke-width="2"/>
        <line id="Line_5248" data-name="Line 5248" x2="22.347" transform="translate(0 12.278)" fill="none" stroke="#fff" stroke-linecap="round" stroke-linejoin="round" stroke-miterlimit="10" stroke-width="2"/>
        <line id="Line_5249" data-name="Line 5249" x2="22.347" transform="translate(0 16.364)" fill="none" stroke="#fff" stroke-linecap="round" stroke-linejoin="round" stroke-miterlimit="10" stroke-width="2"/>
      </g>
      <g id="Group_1105094" data-name="Group 1105094" transform="translate(13.735 36.963)">
        <line id="Line_5250" data-name="Line 5250" x2="6.165" fill="none" stroke="#fff" stroke-linecap="round" stroke-linejoin="round" stroke-miterlimit="10" stroke-width="2"/>
        <line id="Line_5251" data-name="Line 5251" y2="7.153" transform="translate(3.07 0.357)" fill="none" stroke="#fff" stroke-linecap="round" stroke-linejoin="round" stroke-miterlimit="10" stroke-width="2"/>
      </g>
      <line id="Line_5252" data-name="Line 5252" x2="1.709" transform="translate(15.963 44.473)" fill="none" stroke="#fff" stroke-linecap="round" stroke-linejoin="round" stroke-miterlimit="10" stroke-width="2"/>
    </g>
  </g>
</svg>
