<svg xmlns="http://www.w3.org/2000/svg" width="130" height="137.884" viewBox="0 0 130 137.884">
  <g id="Group_1103691" data-name="Group 1103691" transform="translate(-280.01 -5846.501)">
    <path id="Path_873448" data-name="Path 873448" d="M130,133.973A3.976,3.976,0,0,0,126.024,130H3.976A3.976,3.976,0,0,0,0,133.973v73.452c0,.055,0,.109,0,.163a7.565,7.565,0,0,0,3.453,6.532l57.4,29.89a7.6,7.6,0,0,0,8.277,0l57.4-29.89A7.565,7.565,0,0,0,130,207.589c0-.054,0-.109,0-.163Z" transform="translate(280.01 5739.148)" fill="#fff"/>
    <path id="Path_873449" data-name="Path 873449" d="M121.194,83.7A3.707,3.707,0,0,0,117.487,80H3.707A3.707,3.707,0,0,0,0,83.7V169c0,.051,0,.1,0,.152a7.053,7.053,0,0,0,3.219,6.09l53.516,27.865a7.083,7.083,0,0,0,7.716,0l53.516-27.865a7.053,7.053,0,0,0,3.219-6.09c0-.051,0-.1,0-.152Z" transform="translate(284.343 5774.085)" fill="#6018ec"/>
    <path id="Path_873665" data-name="Path 873665" d="M108.068,12.3A3.305,3.305,0,0,0,104.763,9H3.305A3.305,3.305,0,0,0,0,12.3v89.87c0,.046,0,.091,0,.136a6.289,6.289,0,0,0,2.87,5.43l47.72,24.847a6.316,6.316,0,0,0,6.881,0l47.72-24.847a6.289,6.289,0,0,0,2.87-5.43c0-.045,0-.09,0-.136Z" transform="translate(290.843 5838.004)" fill="none" stroke="#fff" stroke-width="1"/>
    <path id="Path_881785" data-name="Path 881785" d="M15,39.185a1,1,0,0,1,1-1h4.573a1,1,0,0,1,0,2H16A1,1,0,0,1,15,39.185ZM22.6,84.29a2.53,2.53,0,0,1-2.527,2.527H16.5a2.527,2.527,0,1,1,0-5.055h3.571A2.53,2.53,0,0,1,22.6,84.29Zm-2,0a.537.537,0,0,0-.53-.53H16.5a.53.53,0,1,0,0,1.061h3.571A.537.537,0,0,0,20.6,84.29Zm7.23-22.214v9.29A2.136,2.136,0,0,1,25.7,73.5h-8.11l-4.543,3.262a1,1,0,0,1-1.581-.811V73.5h-.592a2.136,2.136,0,0,1-2.133-2.133v-9.29a2.136,2.136,0,0,1,2.133-2.133H25.7a2.135,2.135,0,0,1,2.133,2.133Zm-2,0a.138.138,0,0,0-.136-.136H10.875a.138.138,0,0,0-.136.136v9.29a.138.138,0,0,0,.136.136h1.59a1,1,0,0,1,1,1V74l3.223-2.314a1,1,0,0,1,.582-.187H25.7a.138.138,0,0,0,.136-.136Zm-2.385,3.646H13.124a1,1,0,1,0,0,2H23.452a1,1,0,1,0,0-2Zm0-2.89H13.124a1,1,0,0,0,0,2H23.452a1,1,0,0,0,0-2Zm0,5.78H13.124a1,1,0,0,0,0,2H23.452a1,1,0,0,0,0-2ZM9.515,56.533v-8.9a1.839,1.839,0,0,1,.338-1.062c.018-.026.036-.05.055-.074a1.847,1.847,0,0,1,1.458-.715H25.211a1.847,1.847,0,0,1,1.458.715c.019.023.036.046.053.071a1.839,1.839,0,0,1,.339,1.065v8.9a1.853,1.853,0,0,1-1.851,1.851H11.366a1.853,1.853,0,0,1-1.851-1.851Zm15.55-.146V48.872l-5.187,3.371a2.882,2.882,0,0,1-3.178,0l-5.187-3.371v7.515H25.064Zm-7.277-5.819a.886.886,0,0,0,1,0l4.287-2.786H13.5Zm1.806,3.066H16.983a1,1,0,1,0,0,2h2.609a1,1,0,0,0,0-2Zm45.06,16.59a14.453,14.453,0,0,1-28.845,1.318l-.232-.077V86.3a4.025,4.025,0,0,1-4.133,3.9H5.133A4.025,4.025,0,0,1,1,86.3V38.938a4.025,4.025,0,0,1,4.133-3.9H31.443a4.025,4.025,0,0,1,4.133,3.9V64.593l1.558-.552a14.454,14.454,0,0,1,27.518,6.184ZM3,38.938v2.395H33.579V38.938a2.031,2.031,0,0,0-2.136-1.9H5.133A2.031,2.031,0,0,0,3,38.938ZM33.579,86.3V80.381H3V86.3a2.031,2.031,0,0,0,2.136,1.9H31.443A2.031,2.031,0,0,0,33.579,86.3Zm0-15.5-3.837-1.276a1.509,1.509,0,0,1-.028-2.855l3.864-1.37V43.33H3V78.384H33.579ZM50.2,82.679a12.379,12.379,0,0,0,6.253-1.687v-4.16a1.717,1.717,0,0,0-1.715-1.715H53.006c-.7.418-1.474.845-2.33,1.283l-.034.015c-.02.009-.039.018-.059.026s-.04.014-.06.02-.039.013-.058.018-.047.01-.07.014l-.051.009a1.016,1.016,0,0,1-.113.007h-.01A1,1,0,0,1,50.1,76.5l-.03-.005c-.031,0-.062-.01-.093-.018l-.036-.011c-.029-.008-.057-.018-.085-.029l-.036-.016c-.017-.007-.034-.014-.05-.022-.864-.441-1.643-.868-2.346-1.284H45.663a1.717,1.717,0,0,0-1.715,1.715v4.176A12.444,12.444,0,0,0,50.2,82.679ZM44.28,69.3a2.247,2.247,0,0,0,.176.577,6.484,6.484,0,0,1,1.788-3.25,5.488,5.488,0,0,1,3.907-1.7,5.153,5.153,0,0,1,3.837,1.614,6.623,6.623,0,0,1,1.965,3.351,2.188,2.188,0,0,0,.172-.586c.134-.984-.536-2.1-2.173-3.606a5.393,5.393,0,0,0-3.713-1.384,5.95,5.95,0,0,0-4.006,1.448c-1.48,1.452-2.1,2.576-1.954,3.539Zm5.375-6.976a8,8,0,0,1,2.467.206,14.769,14.769,0,0,0-2.008-1.547,14.354,14.354,0,0,0-2.146,1.631A8.615,8.615,0,0,1,49.655,62.325Zm2.887,5.592a3.119,3.119,0,0,0-2.308-.995h-.052a3.482,3.482,0,0,0-2.45,1.039c-1.012,1.13-1.412,1.961-1.3,2.7.165,1.041,1.4,2.252,3.785,3.694q.879-.534,1.55-1.026c.016-.012.032-.024.048-.036,1.342-.992,2.056-1.861,2.165-2.632.1-.738-.34-1.583-1.442-2.74Zm10.113,2.307A12.457,12.457,0,0,0,38.782,65.24a1,1,0,0,1-.581.541l-6.481,2.3,3.153,1.049h0l2.2.731a1,1,0,0,1,.682.9,12.4,12.4,0,0,0,4.194,8.807V76.832a3.718,3.718,0,0,1,2.76-3.588,6.064,6.064,0,0,1-2.4-3.642,5.673,5.673,0,0,1,1.86-4.577c.5-2.186,2.326-4.228,5.443-6.074a1,1,0,0,1,1.021,0c2.944,1.76,5.026,4.079,5.44,6.018,1.2,1.246,2.28,2.8,2.034,4.6a6.045,6.045,0,0,1-2.41,3.672,3.718,3.718,0,0,1,2.756,3.587v2.714a12.428,12.428,0,0,0,4.205-9.322Zm-10.5-1.5a2.4,2.4,0,0,0-1.377.738,1,1,0,1,0,1.38,1.443c.2-.191.211-.193.322-.211a1,1,0,0,0-.326-1.97Zm-3.887,0a1,1,0,1,0-.326,1.97c.111.018.122.02.322.211a1,1,0,0,0,1.38-1.443,2.4,2.4,0,0,0-1.377-.738Z" transform="translate(312.184 5846.687)" fill="#fff"/>
  </g>
</svg>
