<svg xmlns="http://www.w3.org/2000/svg" width="85" height="85" viewBox="0 0 85 85">
  <g id="Group_1103752" data-name="Group 1103752" transform="translate(-704.721 -6155)">
    <rect id="Rectangle_402033" data-name="Rectangle 402033" width="85" height="85" rx="5" transform="translate(704.721 6155)" fill="#bfa2f7"/>
    <g id="Group_1105184" data-name="Group 1105184" transform="translate(714.221 6153.339)">
      <path id="Path_881986" data-name="Path 881986" d="M76.224,58.819l-.885,1.536L66.366,75.9l-.885,1.533a3.351,3.351,0,0,0-5.027,2.9H38.971a3.354,3.354,0,0,0-5.027-2.9l-.885-1.533L24.123,60.418l-.921-1.6a3.348,3.348,0,0,0,0-5.8l.916-1.586,8.943-15.49.885-1.533a3.353,3.353,0,0,0,5.027-2.9H60.454v.038a3.357,3.357,0,0,0,5.029,2.864l.885,1.533,8.971,15.54.885,1.533a3.348,3.348,0,0,0,0,5.8Z" transform="translate(-16.713 -11.761)" fill="#efbf27"/>
      <circle id="Ellipse_11786" data-name="Ellipse 11786" cx="20.069" cy="20.069" r="20.069" transform="translate(12.93 24.09)" fill="#e7a523"/>
      <circle id="Ellipse_11787" data-name="Ellipse 11787" cx="18.299" cy="18.299" r="18.299" transform="translate(14.701 25.86)" fill="#72c2e9"/>
      <path id="Path_881987" data-name="Path 881987" d="M69.853,31.51a5.126,5.126,0,0,1-7.683,4.435l.885-1.533a3.353,3.353,0,0,0,5.027-2.9Z" transform="translate(-45.824 -11.761)" fill="#e7a523"/>
      <path id="Path_881988" data-name="Path 881988" d="M65.744,21.612a3.352,3.352,0,1,1-3.352-3.352A3.352,3.352,0,0,1,65.744,21.612Z" transform="translate(-43.486 -1.863)" fill="#fb5c3c"/>
      <path id="Path_881989" data-name="Path 881989" d="M171.145,35.945a5.133,5.133,0,0,1-7.685-4.377V31.51h1.771v.038a3.357,3.357,0,0,0,5.029,2.864Z" transform="translate(-121.49 -11.761)" fill="#e7a523"/>
      <path id="Path_881990" data-name="Path 881990" d="M177.164,21.518a3.352,3.352,0,1,1-6.7.076v-.038a3.352,3.352,0,1,1,6.7-.038Z" transform="translate(-126.719 -1.807)" fill="#fb5c3c"/>
      <path id="Path_881991" data-name="Path 881991" d="M24.123,119.253l-.921-1.6a3.348,3.348,0,0,0,0-5.8l.916-1.586C27.407,112.112,27.463,117.432,24.123,119.253Z" transform="translate(-16.713 -70.596)" fill="#e7a523"/>
      <path id="Path_881992" data-name="Path 881992" d="M8.423,121a3.318,3.318,0,0,1-1.637.45,3.352,3.352,0,1,1-.038-6.7,3.3,3.3,0,0,1,1.672.453,3.348,3.348,0,0,1,0,5.8Z" transform="translate(-1.933 -73.943)" fill="#fb5c3c"/>
      <path id="Path_881993" data-name="Path 881993" d="M222.622,117.8l-.885,1.536-.008-.005a5.119,5.119,0,0,1,.008-8.864l.885,1.533a3.348,3.348,0,0,0,0,5.8Z" transform="translate(-163.111 -70.746)" fill="#e7a523"/>
      <path id="Path_881994" data-name="Path 881994" d="M232.889,118.064a3.349,3.349,0,1,1-3.352-3.314,3.349,3.349,0,0,1,3.352,3.314Z" transform="translate(-168.351 -73.943)" fill="#fb5c3c"/>
      <path id="Path_881995" data-name="Path 881995" d="M69.853,209.377H68.082a3.354,3.354,0,0,0-5.027-2.9l-.885-1.533a5.126,5.126,0,0,1,7.683,4.435Z" transform="translate(-45.824 -140.808)" fill="#e7a523"/>
      <path id="Path_881996" data-name="Path 881996" d="M65.743,214.6a3.354,3.354,0,1,1-1.677-2.9,3.352,3.352,0,0,1,1.677,2.9Z" transform="translate(-43.485 -146.034)" fill="#fb5c3c"/>
      <path id="Path_881997" data-name="Path 881997" d="M171.143,204.949l-.885,1.533a3.351,3.351,0,0,0-5.027,2.9H163.46a5.125,5.125,0,0,1,7.683-4.432Z" transform="translate(-121.49 -140.813)" fill="#e7a523"/>
      <path id="Path_881998" data-name="Path 881998" d="M177.164,214.5a3.352,3.352,0,1,1-6.7.076v-.038a3.352,3.352,0,1,1,6.7-.038Z" transform="translate(-126.719 -145.966)" fill="#fb5c3c"/>
      <circle id="Ellipse_11788" data-name="Ellipse 11788" cx="7.368" cy="7.368" r="7.368" transform="translate(25.632 36.791)" fill="#efefef"/>
      <path id="Path_881999" data-name="Path 881999" d="M115.292,128.115h6.43v4.005h-6.43Z" transform="translate(-85.507 -83.927)" fill="#fb5c3c"/>
      <path id="Path_882000" data-name="Path 882000" d="M69.123,111.458a.632.632,0,1,1,1.129-.57,15.159,15.159,0,0,0,28.269-10.657.632.632,0,1,1,1.217-.345,16.423,16.423,0,0,1-30.615,11.571Zm28.552-13.5c-.1-.22-.212-.439-.325-.653a.632.632,0,1,1,1.119-.59c.122.231.24.469.352.707a.632.632,0,0,1-1.146.536Z" transform="translate(-50.967 -60.218)" fill="#c4e4fd"/>
      <path id="Path_882001" data-name="Path 882001" d="M168.285,103.678a.632.632,0,1,0,.739.5A.632.632,0,0,0,168.285,103.678Z" transform="translate(-124.71 -65.664)"/>
      <path id="Path_882002" data-name="Path 882002" d="M58.835,23.21a.633.633,0,0,0,.67-1.075.649.649,0,0,0-.873.2A.635.635,0,0,0,58.835,23.21Z" transform="translate(-43.11 -4.69)"/>
      <path id="Path_882003" data-name="Path 882003" d="M61.181,40.175a4.078,4.078,0,0,0-1.412.264l-10.162-17.6a3.981,3.981,0,0,0-2.533-7.071h-.028a4,4,0,0,0-3.883,3.352H22.834A3.985,3.985,0,0,0,17.88,15.9a.632.632,0,1,0,.326,1.222,2.728,2.728,0,0,1,3.42,2.621v.016a2.72,2.72,0,0,1-5.385.531A.633.633,0,0,0,15,20.537a3.984,3.984,0,0,0,1.4,2.3L6.231,40.44a3.983,3.983,0,1,0,0,7.441l2.988,5.178a.632.632,0,1,0,1.1-.633L7.329,47.249a3.912,3.912,0,0,0,1.417-2.457h5.338a18.933,18.933,0,0,0,8.911,15.428L20.322,64.85a3.909,3.909,0,0,0-2.833,0l-4.643-8.041a.65.65,0,0,0-.862-.233.632.632,0,0,0-.233.865l4.644,8.042A3.981,3.981,0,1,0,22.835,69.2H43.164A3.982,3.982,0,1,0,49.6,65.486L59.769,47.878a3.982,3.982,0,1,0,1.413-7.7ZM45.676,64.85,43,60.222a18.934,18.934,0,0,0,8.911-15.43h5.34a3.919,3.919,0,0,0,1.418,2.454l-10.161,17.6a3.9,3.9,0,0,0-2.836,0ZM15.349,44.791H21.16a28.03,28.03,0,0,0,1.514,8.685H18a17.55,17.55,0,0,1-2.65-8.685Zm7.486-24.409H43.159a3.917,3.917,0,0,0,1.423,2.454l-2.671,4.626a18.882,18.882,0,0,0-17.822,0l-2.673-4.627a3.9,3.9,0,0,0,1.419-2.453ZM48,53.477H43.324a28.039,28.039,0,0,0,1.515-8.686H50.65A17.55,17.55,0,0,1,48,53.477ZM33.632,61.793V54.742h7.829C39.95,58.075,37.283,61.432,33.632,61.793Zm0-8.316V52.133a8.011,8.011,0,0,0,7.341-7.342h2.6a26.42,26.42,0,0,1-1.591,8.685ZM22.425,43.527a26.43,26.43,0,0,1,1.592-8.685h8.35v1.344a8.01,8.01,0,0,0-7.341,7.341Zm11.207-17c3.636.368,6.316,3.7,7.827,7.05H33.632Zm-1.265,0v7.051H24.538c1.512-3.336,4.177-6.691,7.829-7.05ZM33,37.423a6.736,6.736,0,1,1-6.736,6.736A6.736,6.736,0,0,1,33,37.423Zm11.839,6.1c-.017-.823-.066-1.646-.148-2.452a.632.632,0,1,0-1.258.126v0c.078.763.124,1.542.141,2.323h-2.6a8.01,8.01,0,0,0-7.341-7.34V34.843H41.98q.275.736.508,1.518a.645.645,0,0,0,.787.425A.629.629,0,0,0,43.7,36q-.175-.589-.375-1.156H48a17.552,17.552,0,0,1,2.649,8.683Zm-2-9.95a16.241,16.241,0,0,0-4.328-6.2,17.738,17.738,0,0,1,8.629,6.2Zm-15.341-6.2a16.164,16.164,0,0,0-4.332,6.2h-4.3a17.736,17.736,0,0,1,8.632-6.2ZM18,34.843h4.676a28.019,28.019,0,0,0-1.515,8.684H15.349A17.552,17.552,0,0,1,18,34.843Zm4.426,9.949h2.6a8.011,8.011,0,0,0,7.341,7.342v1.344h-8.35a26.42,26.42,0,0,1-1.592-8.686Zm9.942,9.95v7.051c-3.653-.361-6.317-3.716-7.829-7.051Zm10.469,0h4.3a17.737,17.737,0,0,1-8.638,6.2,16.116,16.116,0,0,0,4.337-6.2ZM57.253,43.527H51.916A18.933,18.933,0,0,0,43.006,28.1l2.673-4.629a3.889,3.889,0,0,0,2.836,0l10.159,17.6a3.9,3.9,0,0,0-1.42,2.457ZM44.373,19.749a2.727,2.727,0,0,1,2.686-2.719h.019a2.721,2.721,0,1,1-2.7,2.757ZM20.319,23.465,23,28.1a18.942,18.942,0,0,0-8.912,15.428H8.745a3.924,3.924,0,0,0-1.419-2.454l10.162-17.6a3.877,3.877,0,0,0,2.831-.007ZM4.849,46.879H4.83a2.728,2.728,0,1,1,.019,0Zm14.013,7.863h4.3a16.144,16.144,0,0,0,4.335,6.2A17.739,17.739,0,0,1,18.862,54.742ZM33,63.092a18.853,18.853,0,0,0,8.911-2.235l2.67,4.623a3.907,3.907,0,0,0-1.42,2.457H22.839a3.916,3.916,0,0,0-1.422-2.456l2.67-4.626A18.856,18.856,0,0,0,33,63.092Zm-14.091,8.2a2.721,2.721,0,1,1,2.72-2.72,2.721,2.721,0,0,1-2.72,2.72Zm28.187,0a2.725,2.725,0,1,1,1.932-.808,2.721,2.721,0,0,1-1.932.808ZM61.22,46.879a2.72,2.72,0,1,1,2.687-2.75,2.72,2.72,0,0,1-2.687,2.75Z" transform="translate(0 0)"/>
      <path id="Path_882004" data-name="Path 882004" d="M38.981,168.188a.632.632,0,1,0,.865.233.65.65,0,0,0-.865-.233Z" transform="translate(-28.265 -113.803)"/>
      <path id="Path_882005" data-name="Path 882005" d="M113.424,118.889h6.43a.632.632,0,0,0,.632-.632v-4.006a.632.632,0,0,0-.632-.632h-.385v-1.233a2.83,2.83,0,1,0-5.66,0v1.233h-.385a.632.632,0,0,0-.632.632v4.006A.632.632,0,0,0,113.424,118.889Zm5.8-1.265h-5.165v-2.741h5.165Zm-4.148-5.239a1.565,1.565,0,1,1,3.131,0v1.233h-3.131Z" transform="translate(-83.64 -70.062)"/>
    </g>
  </g>
</svg>
