<svg id="Group_1103748" data-name="Group 1103748" xmlns="http://www.w3.org/2000/svg" width="110" height="110" viewBox="0 0 110 110">
  <rect id="Rectangle_402033" data-name="Rectangle 402033" width="110" height="110" rx="5" transform="translate(0)" fill="#bfa2f7"/>
  <g id="Group_1105213" data-name="Group 1105213" transform="translate(13.42 -49.394)">
    <g id="Group_1105211" data-name="Group 1105211" transform="translate(1.218 76.212)">
      <g id="Group_1105210" data-name="Group 1105210" transform="translate(0 0)">
        <path id="Path_882048" data-name="Path 882048" d="M37.617,84.93v43.757l67.855,3.248V84.93a2.436,2.436,0,0,0-2.436-2.436H40.053A2.436,2.436,0,0,0,37.617,84.93Z" transform="translate(-32.725 -82.494)" fill="#80b6fc"/>
        <path id="Path_882049" data-name="Path 882049" d="M434.256,82.494h-4.873a2.436,2.436,0,0,1,2.436,2.436v47.006l4.873-3.248V84.93A2.436,2.436,0,0,0,434.256,82.494Z" transform="translate(-360.859 -82.494)" fill="#62a4fb"/>
        <path id="Path_882050" data-name="Path 882050" d="M92.185,223.019,86.3,227.191h44.743l-5.887-4.172L136.9,214.7a.812.812,0,0,0-.5-1.474l-16.067.644.834-12.818a.812.812,0,0,0-1.343-.666l-11.147,9.693-11.147-9.693a.812.812,0,0,0-1.343.666l.834,12.818-16.067-.644a.812.812,0,0,0-.5,1.474Z" transform="translate(-68.308 -181.068)" fill="#fd8087"/>
        <path id="Path_882051" data-name="Path 882051" d="M200.185,135.82l8.613,3.057V133.24l-8.5-3.018a.487.487,0,0,0-.65.459v4.373A.812.812,0,0,0,200.185,135.82Z" transform="translate(-168.436 -122.446)" fill="#ffe282"/>
        <path id="Path_882052" data-name="Path 882052" d="M264.451,136.495l-2.68,1.171L256,139.714v-5.637l5.408-1.919,2.933-.936a.487.487,0,0,1,.65.459v4.048A.812.812,0,0,1,264.451,136.495Z" transform="translate(-215.638 -123.284)" fill="#ffe282"/>
        <path id="Path_882053" data-name="Path 882053" d="M292.389,130.222l-3.1,1.1a.5.5,0,0,1,.5.5v4.55a.841.841,0,0,1-.134.454l2.843-1.009a.812.812,0,0,0,.541-.765v-4.373a.487.487,0,0,0-.65-.459Z" transform="translate(-243.523 -122.446)" fill="#ffd368"/>
        <path id="Path_882054" data-name="Path 882054" d="M229.5,141.383h-2.149v-8.946a1.906,1.906,0,0,0-2.01-2.01,2.112,2.112,0,0,0-1.056.111,2.172,2.172,0,0,0-1.117,1.9v8.946h-2.149a1.624,1.624,0,0,0-1.624,1.624v9.163l.162,3.077a5.786,5.786,0,0,0,11.567,0v-12.24A1.624,1.624,0,0,0,229.5,141.383Z" transform="translate(-184.977 -122.632)" fill="#f7f9fa"/>
        <path id="Path_882055" data-name="Path 882055" d="M254.877,197.942h-2.112a1.624,1.624,0,0,1,1.624,1.624v12.24a5.612,5.612,0,0,1-4.89,5.526,5.966,5.966,0,0,0,1.056.1,5.406,5.406,0,0,0,5.621-5.621l.325-3.077v-9.163A1.624,1.624,0,0,0,254.877,197.942Z" transform="translate(-210.194 -179.191)" fill="#e9edf1"/>
        <path id="Path_882056" data-name="Path 882056" d="M219.393,264.355v3.077a5.948,5.948,0,0,0,4.747,5.825,6.124,6.124,0,0,0,1.2-.042,5.54,5.54,0,0,0,5.621-5.783v-3.077Z" transform="translate(-184.977 -234.817)" fill="#978ecb"/>
        <path id="Path_882057" data-name="Path 882057" d="M250.556,273.378a5.946,5.946,0,0,0,5.946-5.946v-3.077H254.39v3.077a5.946,5.946,0,0,1-4.89,5.85A5.981,5.981,0,0,0,250.556,273.378Z" transform="translate(-210.194 -234.817)" fill="#6e61b6"/>
        <path id="Path_882058" data-name="Path 882058" d="M82.54,377.068H11.561A4.061,4.061,0,0,1,7.5,373.007v-4.484A1.624,1.624,0,0,1,9.124,366.9H38.3l10.137,1.624,8.984-1.624H84.976a1.624,1.624,0,0,1,1.624,1.624v4.484A4.061,4.061,0,0,1,82.54,377.068Z" transform="translate(-7.5 -320.705)" fill="#f7f9fa"/>
        <g id="Group_1105209" data-name="Group 1105209" transform="translate(30.802 7.632)">
          <path id="Path_882059" data-name="Path 882059" d="M456.809,366.9h-4.873a1.624,1.624,0,0,1,1.624,1.624v4.484a4.061,4.061,0,0,1-4.061,4.061h4.873a4.061,4.061,0,0,0,4.061-4.061v-4.484A1.624,1.624,0,0,0,456.809,366.9Z" transform="translate(-408.511 -328.337)" fill="#e9edf1"/>
          <path id="Path_882060" data-name="Path 882060" d="M214.637,371.982H198.765a1.624,1.624,0,0,1-1.624-1.624V366.9h19.12v3.46A1.624,1.624,0,0,1,214.637,371.982Z" transform="translate(-197.141 -328.336)" fill="#e9edf1"/>
          <path id="Path_882061" data-name="Path 882061" d="M250.617,131.656v8.134a.812.812,0,0,0,.812.812h1.3v-8.892a2.209,2.209,0,0,0-1.969-2.218,2.166,2.166,0,0,0-1.26.265A2.172,2.172,0,0,1,250.617,131.656Z" transform="translate(-240.996 -129.483)" fill="#e9edf1"/>
        </g>
      </g>
    </g>
    <g id="Group_1105212" data-name="Group 1105212" transform="translate(0 74.994)">
      <path id="Path_882062" data-name="Path 882062" d="M114.078,143.187a1.218,1.218,0,0,0-.268,1.7l3,4.115a1.218,1.218,0,1,0,1.97-1.434l-3-4.115A1.218,1.218,0,0,0,114.078,143.187Z" transform="translate(-95.129 -131.915)"/>
      <path id="Path_882063" data-name="Path 882063" d="M366.2,149.5a1.216,1.216,0,0,0,.986-.5l3-4.115a1.218,1.218,0,0,0-1.97-1.434l-3,4.115a1.218,1.218,0,0,0,.984,1.935Z" transform="translate(-305.7 -131.915)"/>
      <path id="Path_882064" data-name="Path 882064" d="M80.318,121.188H78.269V78.649a3.659,3.659,0,0,0-3.655-3.655H27.735a1.218,1.218,0,1,0,0,2.436H74.614a1.219,1.219,0,0,1,1.218,1.218v42.539H64.44l-4.268-3.024,10.338-7.327a2.03,2.03,0,0,0-1.255-3.685l-6.382.256a1.218,1.218,0,1,0,.1,2.434l5.014-.2-10.623,7.529a1.218,1.218,0,0,0,0,1.988l2.865,2.031H22.934l2.865-2.031a1.218,1.218,0,0,0,0-1.988L15.176,109.64l14.7.589a1.218,1.218,0,0,0,1.264-1.3l-.771-11.846,4.048,3.52v8.221a7.164,7.164,0,0,0,14.328,0v-8.221l4.048-3.52-.771,11.846a1.218,1.218,0,0,0,1.216,1.3h.049l4.376-.175a1.218,1.218,0,0,0-.048-2.435h-.05l-3.024.121.746-11.467a2.03,2.03,0,0,0-3.358-1.664l-3.184,2.769v-.791A2.846,2.846,0,0,0,45.9,93.745h-.931V92.732l5.629-2a2.034,2.034,0,0,0,1.351-1.913V84.447a1.705,1.705,0,0,0-2.276-1.607l-5.01,1.778a3.385,3.385,0,0,0-6.171,0l-5.01-1.778a1.705,1.705,0,0,0-2.276,1.607V88.82a2.034,2.034,0,0,0,1.351,1.913l5.629,2v1.014h-.931a2.846,2.846,0,0,0-2.842,2.842v.79l-3.184-2.769a2.03,2.03,0,0,0-3.358,1.664l.746,11.467-14.715-.59a2.03,2.03,0,0,0-1.255,3.685l10.339,7.327-4.268,3.024H7.328V78.649A1.219,1.219,0,0,1,8.546,77.43h13.88a1.218,1.218,0,1,0,0-2.436H8.546a3.659,3.659,0,0,0-3.655,3.655v42.539H2.842A2.846,2.846,0,0,0,0,124.03v4.484a5.285,5.285,0,0,0,5.279,5.279H60.5a1.218,1.218,0,0,0,0-2.436H5.279a2.846,2.846,0,0,1-2.842-2.842V124.03a.407.407,0,0,1,.406-.406H30.8v2.242a2.846,2.846,0,0,0,2.842,2.842H49.516a2.846,2.846,0,0,0,2.842-2.842v-2.242h27.96a.406.406,0,0,1,.406.406v4.484a2.846,2.846,0,0,1-2.842,2.842H65.809a1.218,1.218,0,1,0,0,2.436H77.882a5.285,5.285,0,0,0,5.279-5.279V124.03a2.846,2.846,0,0,0-2.842-2.842ZM41.58,113.556a4.733,4.733,0,0,1-4.728-4.728v-1.859h9.455v1.859A4.733,4.733,0,0,1,41.58,113.556Zm7.935-25.022-4.544,1.613V87.1l4.544-1.613Zm-15.87,0V85.482L38.19,87.1v3.051Zm3.614,7.648h2.149a1.218,1.218,0,0,0,1.218-1.218V86.017a.955.955,0,0,1,1.909,0v8.947a1.218,1.218,0,0,0,1.218,1.218H45.9a.406.406,0,0,1,.406.406v7.945H36.853V96.588a.407.407,0,0,1,.406-.406Zm12.663,29.684a.406.406,0,0,1-.406.406H33.644a.407.407,0,0,1-.406-.406v-2.242H49.922Z" transform="translate(0 -74.994)"/>
    </g>
  </g>
</svg>
