<svg id="Group_1103683" data-name="Group 1103683" xmlns="http://www.w3.org/2000/svg" width="80" height="80" viewBox="0 0 80 80">
  <rect id="Rectangle_402033" data-name="Rectangle 402033" width="80" height="80" rx="5" transform="translate(0)" fill="#bfa2f7"/>
  <g id="Group_1105074" data-name="Group 1105074" transform="translate(-17.142 8.63)">
    <path id="Path_881689" data-name="Path 881689" d="M80.244,301.29c-.043-.215-2.659-13.357-2.688-13.492a5.093,5.093,0,0,0-2.415-3.437,5.8,5.8,0,0,0-1.66-.673l-8.92-3.118a1.3,1.3,0,0,1-.88-1.232v-2.732a11.207,11.207,0,0,1-10.18.049v2.683a1.3,1.3,0,0,1-.88,1.232l-3.667,1.257h0l-5.246,1.859-.69.2a5.279,5.279,0,0,0-2.937,2.585c-.42.851-.3.552-2.332,10.778-.754,3.906-.921,4.19-.826,5.063.262,2.439,2.771,2.185,2.839,2.214H77.428A2.583,2.583,0,0,0,80.244,301.29Z" transform="translate(-6.602 -242.711)" fill="#6c7d87"/>
    <path id="Path_881690" data-name="Path 881690" d="M40,348.929l2.688-14.718a5.13,5.13,0,0,1,2.22-3.313c-2.256.8-1.557.48-2.251.777a5.142,5.142,0,0,0-2.825,3.012c-.2.569-.07.069-2.092,10.207-.754,3.906-.921,4.191-.826,5.063.262,2.439,2.771,2.185,2.839,2.214h3.064C40.659,352.171,39.725,350.907,40,348.929Z" transform="translate(-6.601 -290.35)" fill="#566a75"/>
    <path id="Path_881691" data-name="Path 881691" d="M45.319,450.827H39.774a2.539,2.539,0,0,1-2.859-2.725,39.452,39.452,0,0,1,.846-4.552l.043-.218h7.515Z" transform="translate(-6.618 -389.006)" fill="#dd9a5e"/>
    <path id="Path_881692" data-name="Path 881692" d="M40.8,443.332H37.806l-.043.218a39.294,39.294,0,0,0-.846,4.552,2.546,2.546,0,0,0,2.859,2.725H42.84c-1.991,0-2.9-1.047-2.859-2.725C39.985,447.908,40.058,447.5,40.8,443.332Z" transform="translate(-6.62 -389.006)" fill="#d18c54"/>
    <path id="Path_881693" data-name="Path 881693" d="M172.409,276.068c0,7.62,0-1.225,0,4.777h0v.183a2.836,2.836,0,0,0,1.935,2.69,10.327,10.327,0,0,0,6.3,0,2.836,2.836,0,0,0,1.935-2.69v-.183h0c0-1.194,0-4.138,0-4.777A10.671,10.671,0,0,1,172.409,276.068Z" transform="translate(-125.51 -242.238)" fill="#dd9a5e"/>
    <path id="Path_881694" data-name="Path 881694" d="M175.477,281.862h0c0-6.379,0-4.254,0-4.7a11.161,11.161,0,0,1-3.064-1.1c0,7.62,0-1.225,0,4.777h0v.183a2.836,2.836,0,0,0,1.935,2.69,9.443,9.443,0,0,0,1.8.41A3.627,3.627,0,0,1,175.477,281.862Z" transform="translate(-125.51 -242.238)" fill="#d18c54"/>
    <path id="Path_881695" data-name="Path 881695" d="M98.93,418.8a.919.919,0,0,0-.919.919V429.3h1.838v-9.583A.919.919,0,0,0,98.93,418.8Z" transform="translate(-60.229 -367.477)" fill="#566a75"/>
    <path id="Path_881696" data-name="Path 881696" d="M227.605,479.174H197.846a2.248,2.248,0,0,1-2.248-2.248h0a1.289,1.289,0,0,1,1.289-1.289h31.678a1.289,1.289,0,0,1,1.288,1.289h0A2.248,2.248,0,0,1,227.605,479.174Z" transform="translate(-145.857 -417.352)" fill="#c6c6c6"/>
    <path id="Path_881697" data-name="Path 881697" d="M201.389,476.927h0a1.289,1.289,0,0,1,1.289-1.289h-5.791a1.289,1.289,0,0,0-1.289,1.289h0a2.248,2.248,0,0,0,2.248,2.248h5.791A2.248,2.248,0,0,1,201.389,476.927Z" transform="translate(-145.857 -417.353)" fill="#b7b7b7"/>
    <path id="Path_881698" data-name="Path 881698" d="M245.181,315.049h-25.86a1.475,1.475,0,0,0-1.471,1.471v16.737a1.475,1.475,0,0,0,1.471,1.471h25.86a1.475,1.475,0,0,0,1.471-1.471V316.52A1.475,1.475,0,0,0,245.181,315.049Z" transform="translate(-165.383 -276.443)" fill="#ededed"/>
    <g id="Group_1105071" data-name="Group 1105071" transform="translate(52.467 38.606)">
      <path id="Path_881699" data-name="Path 881699" d="M220.914,333.257V316.52a1.475,1.475,0,0,1,1.471-1.471h-3.064a1.475,1.475,0,0,0-1.471,1.471v16.737a1.475,1.475,0,0,0,1.471,1.471h3.064A1.475,1.475,0,0,1,220.914,333.257Z" transform="translate(-217.85 -315.049)" fill="#dadada"/>
      <circle id="Ellipse_11777" data-name="Ellipse 11777" cx="2.124" cy="2.124" r="2.124" transform="translate(12.276 7.714)" fill="#dadada"/>
    </g>
    <path id="Path_881700" data-name="Path 881700" d="M320.138,378.02a2.123,2.123,0,1,0,1.838,3.183A2.122,2.122,0,0,1,320.138,378.02Z" transform="translate(-253.268 -331.697)" fill="#c6c6c6"/>
    <path id="Path_881701" data-name="Path 881701" d="M107.127,7.553a14.71,14.71,0,0,0-14.6,14.705v5.573h29.414V19.494c0-5.695-3.5-7.006-3.5-7.006-4.357-5.372-11.3-4.934-11.3-4.934" transform="translate(-55.415 -6.62)" fill="#4c4846"/>
    <path id="Path_881702" data-name="Path 881702" d="M109.109,7.6A14.755,14.755,0,0,0,92.533,21.638c-.023.6-.008.373-.012,6.152h3.5V22.217A14.708,14.708,0,0,1,109.109,7.6Z" transform="translate(-55.41 -6.579)" fill="#3d3938"/>
    <g id="Group_1105072" data-name="Group 1105072" transform="translate(36.766 19.281)">
      <path id="Path_881703" data-name="Path 881703" d="M93.567,157.526a2.641,2.641,0,1,0,0,4.7Z" transform="translate(-89.72 -157.345)" fill="#dd9a5e"/>
      <path id="Path_881704" data-name="Path 881704" d="M303.974,157.526a2.641,2.641,0,1,1,0,4.7Z" transform="translate(-277.719 -157.345)" fill="#dd9a5e"/>
    </g>
    <g id="Group_1105073" data-name="Group 1105073" transform="translate(36.76 20.73)">
      <path id="Path_881705" data-name="Path 881705" d="M89.945,169.17c-1.078,2.046,1.191,4.279,3.578,3.429v-2.16A2.943,2.943,0,0,1,89.945,169.17Z" transform="translate(-89.669 -169.17)" fill="#d18c54"/>
      <path id="Path_881706" data-name="Path 881706" d="M303.974,170.439v2.16c2.387.85,4.655-1.383,3.578-3.429A3.3,3.3,0,0,1,303.974,170.439Z" transform="translate(-277.713 -169.17)" fill="#d18c54"/>
    </g>
    <path id="Path_881707" data-name="Path 881707" d="M143.008,99.911a.556.556,0,0,1,.506.552c0,9.433.006,8.721-.016,9.159a11.2,11.2,0,0,1-22.382-.131c-.016-.422-.01-5.307-.01-5.293a3.6,3.6,0,0,1,4.124-3.559,15.764,15.764,0,0,0,12.784-3.426.926.926,0,0,1,1.414.256A4.527,4.527,0,0,0,143.008,99.911Z" transform="translate(-80.493 -85.104)" fill="#edae6b"/>
    <path id="Path_881708" data-name="Path 881708" d="M124.18,135.647c-.014-.362-.011-6.98-.01-8.849a3.6,3.6,0,0,0-3.065,3.556c0-.014-.007,4.872.01,5.293a11.254,11.254,0,0,0,12.825,10.667A11.181,11.181,0,0,1,124.18,135.647Z" transform="translate(-80.491 -111.26)" fill="#dd9a5e"/>
    <path id="Path_881709" data-name="Path 881709" d="M310.522,373.549a3.044,3.044,0,1,0,3.044-3.044A3.047,3.047,0,0,0,310.522,373.549Zm4.249,0a1.205,1.205,0,1,1-1.205-1.205A1.207,1.207,0,0,1,314.771,373.549Z" transform="translate(-246.699 -325.103)"/>
    <path id="Path_881710" data-name="Path 881710" d="M82.706,57.366H82.12c.126-.529.042-.142.067-9.507a.919.919,0,0,0-1.838,0v8.956a.559.559,0,0,1-.552.552H53.937a.559.559,0,0,1-.552-.552V40.077a.559.559,0,0,1,.552-.552H79.8a.559.559,0,0,1,.552.552v3.492a.919.919,0,0,0,1.838,0V40.077a2.393,2.393,0,0,0-2.39-2.39H60.305l-2.05-.7A.383.383,0,0,1,58,36.627V34.374a12.111,12.111,0,0,0,5.872-9.122,3.49,3.49,0,0,0,3.574-4.885V12.874c0-5.419-2.947-7.3-3.848-7.754-5.193-6.2-15.9-7.1-22.474-.871a.92.92,0,0,0,.629,1.589c.677,0,.574-.474,2.666-1.834.155-.1.455-.278.443-.271C50.28.48,58.275,1.477,62.306,6.447a.883.883,0,0,0,.382.278c.119.048,2.916,1.225,2.916,6.149v5.8a3.957,3.957,0,0,0-1.665-.31V15.359A1.47,1.47,0,0,0,62.6,13.893a3.631,3.631,0,0,1-2.865-1.974,1.845,1.845,0,0,0-2.815-.509,14.87,14.87,0,0,1-12.055,3.215,4.522,4.522,0,0,0-5.115,3.742,3.974,3.974,0,0,0-1.724.309c.058-2.863-.429-5.961,1.839-9.915a.919.919,0,1,0-1.595-.915,15.73,15.73,0,0,0-2.07,7.178c-.023.593-.009.376-.013,5.344a3.491,3.491,0,0,0,3.574,4.885,12.13,12.13,0,0,0,6.215,9.32v2.055a.383.383,0,0,1-.258.362c-3.643,1.274.65-.275-8.9,3.112a6.3,6.3,0,0,0-.978.317,6.091,6.091,0,0,0-3.724,4.53c-2.867,14.4-2.758,13.585-2.739,14.368h0c.089,2.27,1.541,3.423,3.778,3.423H55A.919.919,0,1,0,55,60.9H51.987c-1.285,0-1.71-1.7-.96-1.7H82.706c.752,0,.322,1.7-.96,1.7H59.289a.919.919,0,1,0,0,1.838H81.746a3.171,3.171,0,0,0,3.167-3.167A2.21,2.21,0,0,0,82.706,57.366ZM47.817,35.391a12.06,12.06,0,0,0,7.148.263l0-.007.012,0,0,.007a11.322,11.322,0,0,0,1.181-.386v2.422H53.937a2.393,2.393,0,0,0-2.39,2.39v.966a8.6,8.6,0,0,1-2.419-.436,1.915,1.915,0,0,1-1.307-1.818C47.818,36.559,47.824,37.921,47.817,35.391ZM65.948,21.81a1.792,1.792,0,0,1-2.009,1.605V20.2A1.793,1.793,0,0,1,65.948,21.81Zm-3.522-6.088ZM37.684,21.81A1.792,1.792,0,0,1,39.693,20.2v3.211A1.792,1.792,0,0,1,37.684,21.81Zm3.862,2.66c-.023-.425-.012-.272-.015-5.009a2.837,2.837,0,0,1,.923-2.388,2.7,2.7,0,0,1,2.151-.629,16.658,16.658,0,0,0,13.512-3.637l.014,0h0a5.454,5.454,0,0,0,3.97,2.87c0,8.309.108,9.119-.305,10.763a10.481,10.481,0,0,1-1.226,2.9C55.175,37.874,42.049,34.523,41.546,24.471ZM33.155,60.9c-1.574,0-1.856-.745-1.925-1.394-.073-.676.077-.98.71-4.264h5.841V60.9Zm17.873-3.537A2.287,2.287,0,0,0,49,60.623c.026.075.071.189.113.28H39.619V52.239a.919.919,0,0,0-1.838,0v1.168H32.306c1.734-8.7,1.634-8.339,1.824-8.84a4.123,4.123,0,0,1,1.751-2.109,4.793,4.793,0,0,1,1.476-.6c.049-.014-.276.1,5.3-1.876h0l3.329-1.142a3.75,3.75,0,0,0,2.56,3.508,10.45,10.45,0,0,0,3,.53c.058,13.987-.084,13.86.064,14.484h-.583Z" transform="translate(0 0)"/>
  </g>
</svg>
