<svg xmlns="http://www.w3.org/2000/svg" width="40" height="40" viewBox="0 0 40 40">
  <path id="Path_882142" data-name="Path 882142" d="M39.542,37.333l-3.549-3.549a7.112,7.112,0,1,0-2.262,2.157l3.6,3.6a1.563,1.563,0,1,0,2.21-2.21Zm-9.464-3.5a3.984,3.984,0,1,1,3.984-3.984A3.989,3.989,0,0,1,30.078,33.828Zm-7.891,3.047h-3.2V28.516a1.562,1.562,0,1,0-3.125,0v3.827L7.186,21.474l2.362-1.96a9.3,9.3,0,0,0,16.9-6.951,28.992,28.992,0,0,0,3.506-.667,1.562,1.562,0,0,0-.844-3.009,25.246,25.246,0,0,1-2.55.5,38.475,38.475,0,0,0-1.145-3.9C24.57,3.13,23.159,0,20.663,0a4.732,4.732,0,0,0-2.487.858,1.879,1.879,0,0,1-.64.314h-.043a1.882,1.882,0,0,1-.64-.314A4.733,4.733,0,0,0,14.365,0c-2.5,0-3.907,3.13-4.752,5.485A38.469,38.469,0,0,0,8.47,9.376c-1.757-.254-2.738-.491-2.779-.5a1.563,1.563,0,0,0-.759,3.031c.1.024,1.26.31,3.318.6a9.353,9.353,0,0,0,.025,4l-4.265,3.54a1.563,1.563,0,0,0-.223,2.177l2.156,2.7A17.709,17.709,0,0,0,.091,34.8,4.308,4.308,0,0,0,4.3,40h17.89a1.562,1.562,0,1,0,0-3.125ZM12.422,6.919c1.026-3.006,1.814-3.667,1.994-3.785a2.664,2.664,0,0,1,.773.37,4.384,4.384,0,0,0,2.3.794h.025A4.4,4.4,0,0,0,19.839,3.5a2.667,2.667,0,0,1,.773-.37c.179.117.967.778,1.994,3.785.363,1.064.645,2.1.828,2.837-1.6.142-3.528.244-5.756.244-2.322,0-4.366-.111-6.079-.262.183-.731.463-1.764.823-2.819Zm-1.224,7.1a2.387,2.387,0,0,0,2.248,1.691c2.02,0,2.061-2.338,3.631-2.658l.521,0h.017c1.562.326,1.606,2.656,3.623,2.656a2.387,2.387,0,0,0,2.248-1.691c.018.192.027.386.027.581a6.172,6.172,0,1,1-12.344,0c0-.2.009-.389.027-.581ZM4.3,36.875a1.148,1.148,0,0,1-.9-.43,1.2,1.2,0,0,1-.243-1.006A14.588,14.588,0,0,1,7.894,27.37l7.585,9.5Z" transform="translate(0.001)" fill="#4dceff"/>
</svg>
