<svg xmlns="http://www.w3.org/2000/svg" xmlns:xlink="http://www.w3.org/1999/xlink" width="80" height="80" viewBox="0 0 80 80">
  <defs>
    <clipPath id="clip-path">
      <path id="path5157" d="M0-682.665H52.034v52.034H0Z" transform="translate(0 682.665)"/>
    </clipPath>
  </defs>
  <g id="Group_1103053" data-name="Group 1103053" transform="translate(-199.711 -651)">
    <rect id="Rectangle_403232" data-name="Rectangle 403232" width="80" height="80" rx="10" transform="translate(199.711 651)" fill="#6018ec"/>
    <g id="g5151" transform="translate(213.694 1347.648)">
      <g id="g5153" transform="translate(0 -682.665)">
        <g id="g5155" clip-path="url(#clip-path)">
          <g id="g5161" transform="translate(0.809 8.224)">
            <path id="path5163" d="M-583.756-410.617h-45.918a2.249,2.249,0,0,1-2.249-2.249v-29.383a2.249,2.249,0,0,1,2.249-2.249h45.918a2.249,2.249,0,0,1,2.249,2.249v29.383a2.249,2.249,0,0,1-2.249,2.249" transform="translate(631.922 444.498)" fill="#d3e1f5"/>
          </g>
          <g id="g5165" transform="translate(45.953 8.224)">
            <path id="path5167" d="M-63.89-27.251V2.132a2.249,2.249,0,0,1-2.25,2.249h-3.022a2.249,2.249,0,0,0,2.249-2.249V-27.251A2.249,2.249,0,0,0-69.161-29.5h3.022a2.249,2.249,0,0,1,2.25,2.249" transform="translate(69.161 29.5)" fill="#c0d6f1"/>
          </g>
          <g id="g5169" transform="translate(12.358 47.35)">
            <path id="path5171" d="M-322.727-47.542h-25.94a.689.689,0,0,1-.689-.689v-1.755a1.479,1.479,0,0,1,1.479-1.479h24.359a1.479,1.479,0,0,1,1.479,1.479v1.755a.689.689,0,0,1-.689.689" transform="translate(349.355 51.465)" fill="#7a6d79"/>
          </g>
          <g id="g5173" transform="translate(35.762 47.351)">
            <path id="path5175" d="M-47.428-17.926v1.754a.689.689,0,0,1-.689.689H-50.55a.688.688,0,0,0,.688-.689v-1.754a1.479,1.479,0,0,0-1.479-1.479h2.434a1.479,1.479,0,0,1,1.479,1.479" transform="translate(51.341 19.405)" fill="#685e68"/>
          </g>
          <g id="g5177" transform="translate(18.117 42.104)">
            <path id="path5179" d="M-179.126,0h-13.761s.306,1.75-1.019,5.251h15.8C-179.432,1.75-179.126,0-179.126,0" transform="translate(193.906 0)" fill="#433f43"/>
          </g>
          <g id="g5181" transform="translate(19.054 42.003)">
            <path id="path5183" d="M0-22.49a6.4,6.4,0,0,0,.083-1.856H13.844a6.368,6.368,0,0,0,.082,1.856Z" transform="translate(0 24.345)" fill="#383538"/>
          </g>
          <g id="g5185" transform="translate(0.809 36.448)">
            <path id="path5187" d="M-583.756-68.559h-45.918a2.249,2.249,0,0,1-2.249-2.249v-3.408h50.416v3.408a2.249,2.249,0,0,1-2.249,2.249" transform="translate(631.922 74.216)" fill="#7a6d79"/>
          </g>
          <g id="g5189" transform="translate(45.953 36.448)">
            <path id="path5191" d="M-63.89,0V3.408a2.249,2.249,0,0,1-2.25,2.249h-3.022a2.249,2.249,0,0,0,2.249-2.249V0Z" transform="translate(69.161)" fill="#685e68"/>
          </g>
          <g id="g5193" transform="translate(7.695 0.761)">
            <path id="path5195" d="M-444.106-432.5h-36.644v-34.4a1.284,1.284,0,0,1,1.283-1.284h34.077a1.284,1.284,0,0,1,1.283,1.284Z" transform="translate(480.749 468.188)" fill="#e2dee2"/>
          </g>
          <g id="g5197" transform="translate(40.687 0.761)">
            <path id="path5199" d="M-44.266-15.564v34.4h-2.369v-34.4a1.284,1.284,0,0,0-1.283-1.284h2.368a1.284,1.284,0,0,1,1.284,1.284" transform="translate(47.919 16.848)" fill="#cbc4cb"/>
          </g>
          <g id="g5201" transform="translate(7.695 0.761)">
            <path id="path5203" d="M-444.106-53.62h-36.644V-56.76a1.283,1.283,0,0,1,1.283-1.284h34.077a1.284,1.284,0,0,1,1.283,1.284Z" transform="translate(480.749 58.044)" fill="#7a6d79"/>
          </g>
          <g id="g5205" transform="translate(40.687 0.761)">
            <path id="path5207" d="M-44.266-15.564v3.141h-2.368v-3.141a1.284,1.284,0,0,0-1.284-1.284h2.368a1.284,1.284,0,0,1,1.284,1.284" transform="translate(47.919 16.848)" fill="#685e68"/>
          </g>
          <g id="g5209" transform="translate(10.761 2.262)">
            <path id="path5211" d="M-8.692,0a.717.717,0,0,0-.717.717.717.717,0,0,0,.717.717A.717.717,0,0,0-7.975.717.717.717,0,0,0-8.692,0" transform="translate(9.409)"/>
          </g>
          <g id="g5213" transform="translate(13.742 2.262)">
            <path id="path5215" d="M-8.692,0a.717.717,0,0,0-.717.717.717.717,0,0,0,.717.717A.717.717,0,0,0-7.975.717.717.717,0,0,0-8.692,0" transform="translate(9.409)"/>
          </g>
          <g id="g5217" transform="translate(16.723 2.262)">
            <path id="path5219" d="M-8.692,0a.717.717,0,0,0-.717.717.717.717,0,0,0,.717.717A.717.717,0,0,0-7.975.717.717.717,0,0,0-8.692,0" transform="translate(9.409)"/>
          </g>
          <g id="g5221" transform="translate(0.048 0)">
            <path id="path5223" d="M-462.342-583.09a.719.719,0,0,1,.718.718v1.682h-25.795v-1.682a.719.719,0,0,1,.718-.718Zm-18.274-5.246h12.188c.006.182.019.392.043.629a15.169,15.169,0,0,0,.688,3.094h-13.647a13.828,13.828,0,0,0,.729-3.723m23.656-38.442h-35.121v-2.379a.523.523,0,0,1,.522-.522h34.077a.523.523,0,0,1,.522.522Zm0,31.262h-35.121v-29.739h35.121Zm-36.644,0h-5.363v-25.213a1.489,1.489,0,0,1,1.488-1.487h3.876Zm44.291-9.36a.761.761,0,0,0,.761-.762v-15.092a3.014,3.014,0,0,0-3.01-3.01h-3.875v-5.418a2.047,2.047,0,0,0-2.045-2.045H-491.56a2.047,2.047,0,0,0-2.045,2.045v5.418h-3.876a3.014,3.014,0,0,0-3.01,3.01v29.383a3.014,3.014,0,0,0,3.01,3.01h2.893a.761.761,0,0,0,.761-.761.762.762,0,0,0-.761-.762h-2.893a1.489,1.489,0,0,1-1.488-1.487v-2.647h48.893v2.647a1.489,1.489,0,0,1-1.488,1.487h-39.573a.761.761,0,0,0-.761.762.761.761,0,0,0,.761.761h9a13.139,13.139,0,0,1-.812,3.723H-486.7a2.243,2.243,0,0,0-2.241,2.241v1.754a1.452,1.452,0,0,0,1.45,1.45h25.94a1.452,1.452,0,0,0,1.45-1.45v-1.754a2.243,2.243,0,0,0-2.241-2.241h-3.749a13.137,13.137,0,0,1-.813-3.723h15.341a3.014,3.014,0,0,0,3.01-3.01V-602.16a.761.761,0,0,0-.761-.761.761.761,0,0,0-.761.761v6.645h-5.363v-26.7h3.875a1.489,1.489,0,0,1,1.488,1.487v15.092a.761.761,0,0,0,.761.762" transform="translate(500.491 631.201)"/>
          </g>
          <g id="g5225" transform="translate(23.512 38.515)">
            <path id="path5227" d="M-51.495-18.453a.761.761,0,0,0,.761-.761.761.761,0,0,0-.761-.761h-3.488a.761.761,0,0,0-.761.761.761.761,0,0,0,.761.761Z" transform="translate(55.744 19.976)"/>
          </g>
          <g id="g5229" transform="translate(17.636 13.199)">
            <path id="path5231" d="M-73.2-16.382l-5.674,9.828A2.7,2.7,0,0,0-76.537-2.5h11.348a2.7,2.7,0,0,0,2.341-4.055l-5.674-9.828a2.7,2.7,0,0,0-4.682,0" transform="translate(79.245 17.734)" fill="#fdb541"/>
          </g>
          <g id="g5233" transform="translate(17.939 13.2)">
            <path id="path5235" d="M-166.669-184.628h-11.347a2.681,2.681,0,0,1-2.4-1.468h12.635a1.635,1.635,0,0,0,1.416-2.453l-6.5-11.262a2.692,2.692,0,0,1,2.871,1.3l5.675,9.828a2.7,2.7,0,0,1-2.342,4.055" transform="translate(180.421 199.861)" fill="#fea713"/>
          </g>
          <g id="g5237" transform="translate(16.873 12.438)">
            <path id="path5239" d="M-42.059-203.09h11.348a3.429,3.429,0,0,0,3-1.732,3.429,3.429,0,0,0,0-3.465l-5.674-9.828a3.43,3.43,0,0,0-3-1.732,3.43,3.43,0,0,0-3,1.732l-1.055,1.827a.761.761,0,0,0,.279,1.04.762.762,0,0,0,1.04-.279l1.055-1.827a1.922,1.922,0,0,1,1.682-.971,1.922,1.922,0,0,1,1.682.971l5.674,9.828a1.922,1.922,0,0,1,0,1.942,1.922,1.922,0,0,1-1.682.971H-42.059a1.922,1.922,0,0,1-1.682-.971,1.923,1.923,0,0,1,0-1.942l2.864-4.96a.761.761,0,0,0-.279-1.04.761.761,0,0,0-1.04.279l-2.864,4.96a3.429,3.429,0,0,0,0,3.465,3.429,3.429,0,0,0,3,1.732" transform="translate(45.529 219.847)"/>
          </g>
          <g id="g5241" transform="translate(25.256 17.613)">
            <path id="path5243" d="M-9.227-67.667a.761.761,0,0,0,.761-.761v-4.061a.761.761,0,0,0-.761-.761.761.761,0,0,0-.761.761v4.061a.761.761,0,0,0,.761.761" transform="translate(9.988 73.251)"/>
          </g>
          <g id="g5245" transform="translate(25.066 23.965)">
            <path id="path5247" d="M-11.532-23.064a.951.951,0,0,0,.952-.951.952.952,0,0,0-.952-.952.952.952,0,0,0-.952.952.951.951,0,0,0,.952.951" transform="translate(12.484 24.967)"/>
          </g>
          <g id="g5249" transform="translate(14.052 19.523)">
            <path id="path5251" d="M-11.376-49.155a.758.758,0,0,0,.479.17.76.76,0,0,0,.592-.282.762.762,0,0,0-.112-1.071.975.975,0,0,1-.375-.754.966.966,0,0,1,.368-.761.761.761,0,0,0,.124-1.07.761.761,0,0,0-1.07-.124,2.48,2.48,0,0,0-.945,1.954,2.49,2.49,0,0,0,.939,1.937" transform="translate(12.315 53.21)"/>
          </g>
          <g id="g5253" transform="translate(11.2 16.846)">
            <path id="path5255" d="M-27.134-114.044a.758.758,0,0,0,.479.17.76.76,0,0,0,.592-.282.762.762,0,0,0-.112-1.071,4.407,4.407,0,0,1-1.675-3.42,4.379,4.379,0,0,1,1.668-3.449.761.761,0,0,0,.123-1.07.761.761,0,0,0-1.07-.124,5.893,5.893,0,0,0-2.245,4.642,5.923,5.923,0,0,0,2.239,4.6" transform="translate(29.373 123.454)"/>
          </g>
          <g id="g5257" transform="translate(35.803 19.523)">
            <path id="path5259" d="M-3.419-34.817a.761.761,0,0,0-.112,1.071.76.76,0,0,0,.592.282.758.758,0,0,0,.479-.17,2.49,2.49,0,0,0,.939-1.937,2.48,2.48,0,0,0-.945-1.954.761.761,0,0,0-1.07.123.761.761,0,0,0,.124,1.07.966.966,0,0,1,.368.761.975.975,0,0,1-.375.754" transform="translate(3.701 37.69)"/>
          </g>
          <g id="g5261" transform="translate(37.355 16.846)">
            <path id="path5263" d="M-3.5-16.458a4.379,4.379,0,0,1,1.668,3.449A4.407,4.407,0,0,1-3.5-9.589a.761.761,0,0,0-.112,1.071.76.76,0,0,0,.592.282.759.759,0,0,0,.479-.17A5.923,5.923,0,0,0-.3-13.009a5.893,5.893,0,0,0-2.245-4.642.761.761,0,0,0-1.07.124.761.761,0,0,0,.124,1.07" transform="translate(3.784 17.816)"/>
          </g>
        </g>
      </g>
    </g>
  </g>
</svg>
