<svg id="Group_1101046" data-name="Group 1101046" xmlns="http://www.w3.org/2000/svg" width="110" height="110" viewBox="0 0 110 110">
  <rect id="Rectangle_402033" data-name="Rectangle 402033" width="110" height="110" rx="5" transform="translate(0)" fill="#bfa2f7"/>
  <g id="Group_1105203" data-name="Group 1105203" transform="translate(17.816 18.104)">
    <g id="Group_1105201" data-name="Group 1105201" transform="translate(1.199 13.194)">
      <g id="Group_1105193" data-name="Group 1105193" transform="translate(4.798 7.197)">
        <path id="Path_882023" data-name="Path 882023" d="M62.575,57.783H5V21.8A4.8,4.8,0,0,1,9.8,17H57.777a4.8,4.8,0,0,1,4.8,4.8Z" transform="translate(-5 -17)" fill="#ccd1d9"/>
      </g>
      <g id="Group_1105194" data-name="Group 1105194" transform="translate(0 47.979)">
        <path id="Path_882024" data-name="Path 882024" d="M47.144,51l-2.687,6.525a3.751,3.751,0,0,0-.276,1.4V59.3a3.6,3.6,0,0,0,.24,1.3H8.2A7.2,7.2,0,0,1,1,53.4V51H24.99v2.4a2.406,2.406,0,0,0,2.4,2.4h9.6a2.406,2.406,0,0,0,2.4-2.4V51Z" transform="translate(-1 -51)" fill="#aab2bd"/>
      </g>
      <g id="Group_1105195" data-name="Group 1105195" transform="translate(23.99 47.979)">
        <path id="Path_882025" data-name="Path 882025" d="M35.394,51v2.4a2.406,2.406,0,0,1-2.4,2.4H23.4A2.406,2.406,0,0,1,21,53.4V51Z" transform="translate(-21 -51)" fill="#fcd770"/>
      </g>
      <g id="Group_1105196" data-name="Group 1105196" transform="translate(9.596 11.995)">
        <path id="Path_882026" data-name="Path 882026" d="M56.979,52.187H10.2a1.2,1.2,0,0,1-1.2-1.2V22.2A1.2,1.2,0,0,1,10.2,21H55.78a1.2,1.2,0,0,1,1.2,1.2Z" transform="translate(-9 -21)" fill="#69d6f4"/>
      </g>
      <g id="Group_1105197" data-name="Group 1105197" transform="translate(14.394)">
        <path id="Path_882027" data-name="Path 882027" d="M49.98,22.995a18.908,18.908,0,0,1,1.4,7.2,19.192,19.192,0,1,1-38.384,0,18.907,18.907,0,0,1,1.4-7.2,18.655,18.655,0,0,1,2.807-4.8,19.192,19.192,0,0,1,29.963,0,18.655,18.655,0,0,1,2.807,4.8Z" transform="translate(-13 -11)" fill="#4fc1e9"/>
      </g>
      <g id="Group_1105198" data-name="Group 1105198" transform="translate(43.182 26.389)">
        <path id="Path_882028" data-name="Path 882028" d="M56.192,38.758,65.5,61.1a3.657,3.657,0,0,1,.288,1.427v.36a3.7,3.7,0,0,1-3.694,3.694h-21.4a3.677,3.677,0,0,1-3.455-2.4,3.6,3.6,0,0,1-.24-1.3v-.372a3.751,3.751,0,0,1,.276-1.4l2.687-6.525,1.967-4.8,5.973-14.5A3.708,3.708,0,0,1,51.31,33h.084a3.71,3.71,0,0,1,3.347,2.267Z" transform="translate(-37 -33)" fill="#ffeaa7"/>
      </g>
      <g id="Group_1105199" data-name="Group 1105199" transform="translate(55.037 50.451)">
        <circle id="Ellipse_11790" data-name="Ellipse 11790" cx="2.5" cy="2.5" r="2.5" transform="translate(-0.052 -0.461)" fill="#ff826e"/>
      </g>
      <g id="Group_1105200" data-name="Group 1105200" transform="translate(55.176 33.586)">
        <path id="Path_882029" data-name="Path 882029" d="M51.8,41.255a2.312,2.312,0,0,1-.012.288l-1.044,8.264a1.354,1.354,0,0,1-2.687,0l-1.044-8.264A2.311,2.311,0,0,1,47,41.255,2.252,2.252,0,0,1,49.255,39h.288A2.252,2.252,0,0,1,51.8,41.255Z" transform="translate(-47 -39)" fill="#ff826e"/>
      </g>
    </g>
    <g id="Group_1105202" data-name="Group 1105202">
      <path id="Path_882030" data-name="Path 882030" d="M73.992,66.827,64.772,44.7V24.79a6,6,0,0,0-6-6H50.3a20.334,20.334,0,0,0-14.319-7.136V5.6a1.2,1.2,0,0,1,1.2-1.2H62.373V2H37.184a3.6,3.6,0,0,0-3.6,3.6v6.059a20.338,20.338,0,0,0-14.319,7.136H10.8a6,6,0,0,0-6,6V59.575H0v3.6a8.406,8.406,0,0,0,8.4,8.4H43.89a4.885,4.885,0,0,0,4.19,2.4H69.468a4.905,4.905,0,0,0,4.9-4.9v-.359A4.884,4.884,0,0,0,73.992,66.827ZM58.775,21.192a3.6,3.6,0,0,1,3.6,3.6V39.641a4.867,4.867,0,0,0-2.4-1.486V25.99a2.4,2.4,0,0,0-2.4-2.4H53.346a20.487,20.487,0,0,0-1.293-2.4ZM48.512,54.777H11.995V25.99h3.3a20.391,20.391,0,1,0,38.976,0h3.3V38.123a4.866,4.866,0,0,0-3.4,2.891ZM18.885,23.591h6.038a36.483,36.483,0,0,0-.9,7.2H16.854A17.846,17.846,0,0,1,18.885,23.591Zm15.9-9.6c2.677,0,5.1,2.863,6.652,7.2h-13.3C29.682,16.858,32.108,13.995,34.785,13.995Zm7.388,9.6a34.021,34.021,0,0,1,.979,7.2H26.417a34.021,34.021,0,0,1,.979-7.2Zm10.543,7.2H45.549a36.483,36.483,0,0,0-.9-7.2h6.038a17.846,17.846,0,0,1,2.031,7.2Zm-28.7,2.4a36.483,36.483,0,0,0,.9,7.2H18.885a17.846,17.846,0,0,1-2.031-7.2Zm2.4,0H43.152a34.021,34.021,0,0,1-.979,7.2H27.4a34.019,34.019,0,0,1-.98-7.2Zm-.825,9.6a19.977,19.977,0,0,0,3.078,6.1,18.049,18.049,0,0,1-8.245-6.1Zm2.541,0H41.439c-1.55,4.334-3.975,7.2-6.652,7.2s-5.1-2.863-6.654-7.2Zm15.845,0h5.167a18.043,18.043,0,0,1-8.245,6.1A19.977,19.977,0,0,0,43.978,42.783Zm6.708-2.4H44.647a36.483,36.483,0,0,0,.9-7.2h7.167a17.846,17.846,0,0,1-2.031,7.2Zm-1.54-19.192H43.978a19.977,19.977,0,0,0-3.078-6.1A18.049,18.049,0,0,1,49.145,21.192Zm-20.475-6.1a19.977,19.977,0,0,0-3.078,6.1H20.425A18.049,18.049,0,0,1,28.67,15.088ZM7.2,24.79a3.6,3.6,0,0,1,3.6-3.6h6.722a20.311,20.311,0,0,0-1.293,2.4H11.995a2.4,2.4,0,0,0-2.4,2.4V54.777a2.4,2.4,0,0,0,2.4,2.4h35.53l-.987,2.4H7.2ZM26.389,61.974H38.384v1.2a1.2,1.2,0,0,1-1.2,1.2h-9.6a1.2,1.2,0,0,1-1.2-1.2ZM8.4,69.171a6,6,0,0,1-6-6v-1.2H23.99v1.2a3.6,3.6,0,0,0,3.6,3.6h9.6a3.6,3.6,0,0,0,3.6-3.6v-1.2h4.769l-2,4.865a4.863,4.863,0,0,0-.369,1.863v.368c0,.035.01.066.01.1Zm63.573-.1a2.5,2.5,0,0,1-2.5,2.5H48.08a2.5,2.5,0,0,1-2.5-2.5V68.7a2.481,2.481,0,0,1,.188-.95L56.393,41.927a2.491,2.491,0,0,1,2.311-1.55h.006a2.5,2.5,0,0,1,2.3,1.539L71.777,67.75a2.5,2.5,0,0,1,.192.962Z" transform="translate(0 0.399)"/>
      <path id="Path_882031" data-name="Path 882031" d="M49.739,38h-.281A3.462,3.462,0,0,0,46,41.458a3.379,3.379,0,0,0,.026.428l1.033,8.267a2.559,2.559,0,0,0,5.077,0l1.033-8.264a3.231,3.231,0,0,0,.028-.431A3.462,3.462,0,0,0,49.739,38Zm1.051,3.589-1.033,8.267a.165.165,0,0,1-.317,0l-1.033-8.269a.91.91,0,0,1-.008-.128A1.06,1.06,0,0,1,49.458,40.4h.281A1.06,1.06,0,0,1,50.8,41.458a.97.97,0,0,1-.008.131Z" transform="translate(9.176 7.58)"/>
      <path id="Path_882032" data-name="Path 882032" d="M49.6,52a3.6,3.6,0,1,0,3.6,3.6A3.6,3.6,0,0,0,49.6,52Zm0,4.8a1.2,1.2,0,1,1,1.2-1.2A1.2,1.2,0,0,1,49.6,56.8Z" transform="translate(9.176 10.373)"/>
      <path id="Path_882033" data-name="Path 882033" d="M52,0h2.4V2.4H52Z" transform="translate(10.373)"/>
      <path id="Path_882034" data-name="Path 882034" d="M52,4h2.4V6.4H52Z" transform="translate(10.373 0.798)"/>
      <path id="Path_882035" data-name="Path 882035" d="M54,2h2.4V4.4H54Z" transform="translate(10.772 0.399)"/>
    </g>
  </g>
</svg>
