<svg xmlns="http://www.w3.org/2000/svg" width="40" height="40" viewBox="0 0 40 40">
  <path id="Path_882144" data-name="Path 882144" d="M40,35.313a1.562,1.562,0,0,1-1.562,1.563H22.344a1.562,1.562,0,0,1-1.562-1.562,1.563,1.563,0,1,0-1.562,1.563,1.563,1.563,0,0,1,0,3.125A4.7,4.7,0,0,1,14.8,36.875H1.563a1.563,1.563,0,0,1,0-3.125H14.8a4.71,4.71,0,0,1,2.856-2.856V28.2H6.25A6.257,6.257,0,0,1,0,21.956V5.469A5.475,5.475,0,0,1,5.469,0H10a5.479,5.479,0,0,1,5.264,3.983h2.471a1.562,1.562,0,0,1,0,3.125H13.906a1.563,1.563,0,0,1-1.562-1.562V5.469A2.346,2.346,0,0,0,10,3.125H5.469A2.346,2.346,0,0,0,3.125,5.469v4.922H13.75a1.563,1.563,0,0,1,0,3.125H3.125v8.44A3.129,3.129,0,0,0,6.25,25.081l25.7,0a1.563,1.563,0,0,1,0,3.125H20.781v2.689a4.71,4.71,0,0,1,2.857,2.856h14.8A1.562,1.562,0,0,1,40,35.313ZM28.048,22.031a1.563,1.563,0,0,0,0-3.125h0a1.563,1.563,0,0,0,0,3.125Zm1.562-6.25V9.922a1.563,1.563,0,0,0-3.125,0v5.859a1.563,1.563,0,1,0,3.125,0ZM16.5,19.8a4.3,4.3,0,0,0,3.8,2.232h2.216a1.563,1.563,0,0,0,0-3.125H20.3a1.2,1.2,0,0,1-1.071-.63,1.218,1.218,0,0,1,.027-1.257l7.674-12.45a1.224,1.224,0,0,1,2.087,0L36.823,17.32a1.238,1.238,0,0,1-.169,1.051,1.192,1.192,0,0,1-1.012.535H33.5a1.563,1.563,0,1,0,0,3.125h2.138a4.362,4.362,0,0,0,4.051-5.963L31.673,2.929a4.349,4.349,0,0,0-7.408,0l-7.674,12.45a4.315,4.315,0,0,0-.1,4.42Z" fill="#4dceff"/>
</svg>
