<svg id="Group_1105695" data-name="Group 1105695" xmlns="http://www.w3.org/2000/svg" width="122.486" height="122.486" viewBox="0 0 122.486 122.486">
  <rect id="Rectangle_402033" data-name="Rectangle 402033" width="122.486" height="122.486" rx="5" transform="translate(0)" fill="#bfa2f7"/>
  <g id="Group_1104946" data-name="Group 1104946" transform="translate(19.937 19.064)">
    <g id="Group_1104944" data-name="Group 1104944" transform="translate(1.207 2.247)">
      <path id="Path_881323" data-name="Path 881323" d="M56.987,80.564a7.84,7.84,0,0,1-7.84,7.84H15.339a7.84,7.84,0,0,1-7.84-7.84V16.38a7.84,7.84,0,0,1,7.84-7.84H49.147a7.84,7.84,0,0,1,7.84,7.84Z" transform="translate(-7.499 -8.54)" fill="#b3dafe"/>
      <path id="Path_881324" data-name="Path 881324" d="M164.226,184.706H141.01a5.708,5.708,0,0,0,0,11.416h23.216Z" transform="translate(-114.738 -156.359)" fill="#8ac9fe"/>
      <path id="Path_881325" data-name="Path 881325" d="M77.333,105.737a3.013,3.013,0,0,1-3.013,3.013H40.512a3.013,3.013,0,0,1-3.013-3.013V41.553a3.013,3.013,0,0,1,3.013-3.013h4.043a1.454,1.454,0,0,1,1.379.993,2.583,2.583,0,0,0,2.45,1.763h18.2a2.583,2.583,0,0,0,2.45-1.763,1.454,1.454,0,0,1,1.379-.993h3.9a3.013,3.013,0,0,1,3.013,3.013v64.184Z" transform="translate(-32.672 -33.713)" fill="#f9f7f8"/>
      <path id="Path_881326" data-name="Path 881326" d="M159.4,184.706H141.01a5.708,5.708,0,0,0,0,11.416H159.4Z" transform="translate(-114.738 -156.359)" fill="#efedef"/>
      <path id="Path_881327" data-name="Path 881327" d="M133.583,183.6a7.725,7.725,0,0,1-3.493,4.387l1.6,4.507a2.124,2.124,0,0,1-2,2.835H122.76a2.124,2.124,0,0,1-2-2.835l1.6-4.507a7.705,7.705,0,1,1,11.082-9.367Z" transform="translate(-100.655 -147.053)" fill="#d7d0d6"/>
      <g id="XMLID_501_" transform="translate(23.783 24.393)">
        <g id="Group_1104943" data-name="Group 1104943" transform="translate(0)">
          <path id="Path_881328" data-name="Path 881328" d="M211.719,167.407v4.781a7.272,7.272,0,0,1-14.543.1H157.792a2.49,2.49,0,0,1,0-4.98h39.384a7.272,7.272,0,0,1,14.543.1Zm-4.827,4.781v-4.781a2.446,2.446,0,0,0-4.892,0v4.781a2.446,2.446,0,0,0,4.892,0Z" transform="translate(-155.303 -160.136)" fill="#fee97d"/>
        </g>
      </g>
      <path id="Path_881329" data-name="Path 881329" d="M99.715,371.881H74.674a1.686,1.686,0,0,1-1.686-1.686v-7.638a1.686,1.686,0,0,1,1.686-1.686H99.715a1.686,1.686,0,0,1,1.686,1.686V370.2A1.686,1.686,0,0,1,99.715,371.881Z" transform="translate(-62.45 -304.179)" fill="#efedef"/>
    </g>
    <g id="Group_1104945" data-name="Group 1104945" transform="translate(0 1.04)">
      <path id="Path_881330" data-name="Path 881330" d="M50.7,146.318a1.207,1.207,0,0,0-1.207,1.207v30.1a6.641,6.641,0,0,1-6.633,6.633H9.047a6.641,6.641,0,0,1-6.633-6.633v-52.2a1.207,1.207,0,0,0-2.414,0v52.2a9.057,9.057,0,0,0,9.047,9.047H42.855a9.057,9.057,0,0,0,9.047-9.047v-30.1A1.207,1.207,0,0,0,50.7,146.318Z" transform="translate(0 -104.393)"/>
      <path id="Path_881331" data-name="Path 881331" d="M1.207,18.13a1.207,1.207,0,0,0,1.207-1.207V10.087A6.641,6.641,0,0,1,9.047,3.454H42.855a6.641,6.641,0,0,1,6.633,6.633V28.809a1.207,1.207,0,0,0,2.414,0V10.087A9.057,9.057,0,0,0,42.855,1.04H9.047A9.057,9.057,0,0,0,0,10.087v6.836A1.207,1.207,0,0,0,1.207,18.13Z" transform="translate(0 -1.04)"/>
      <path id="Path_881332" data-name="Path 881332" d="M71.041,55.188a1.207,1.207,0,0,0,1.207-1.207V35.26a4.224,4.224,0,0,0-4.22-4.22h-3.9A2.658,2.658,0,0,0,61.6,32.857a1.375,1.375,0,0,1-1.305.939h-18.2a1.375,1.375,0,0,1-1.305-.939,2.658,2.658,0,0,0-2.524-1.817H34.219A4.224,4.224,0,0,0,30,35.26V99.444a4.224,4.224,0,0,0,4.22,4.22H59.838a1.207,1.207,0,1,0,0-2.414H34.219a1.808,1.808,0,0,1-1.806-1.806V35.26a1.808,1.808,0,0,1,1.806-1.806h4.043a.247.247,0,0,1,.235.169,3.786,3.786,0,0,0,3.594,2.587H60.3a3.786,3.786,0,0,0,3.594-2.587.247.247,0,0,1,.235-.169h3.9a1.808,1.808,0,0,1,1.806,1.806V53.982a1.206,1.206,0,0,0,1.207,1.207Z" transform="translate(-25.173 -26.213)"/>
      <path id="Path_881333" data-name="Path 881333" d="M239.895,295.914a1.207,1.207,0,0,0,1.207,1.207h3.047a4.224,4.224,0,0,0,4.219-4.22V262.8a1.207,1.207,0,0,0-2.414,0v30.1a1.808,1.808,0,0,1-1.806,1.806H241.1A1.207,1.207,0,0,0,239.895,295.914Z" transform="translate(-201.294 -219.67)"/>
      <path id="Path_881334" data-name="Path 881334" d="M167.287,152.632a8.52,8.52,0,0,0-8.377,7.173h-3.525a1.207,1.207,0,0,0,0,2.414h4.631a1.207,1.207,0,0,0,1.207-1.19,6.065,6.065,0,0,1,12.13.084v4.78a6.065,6.065,0,0,1-12.13.084,1.207,1.207,0,0,0-1.207-1.19H120.633a1.283,1.283,0,0,1,0-2.566h29.609a1.207,1.207,0,0,0,0-2.414h-22.3a8.911,8.911,0,1,0-13.326,11.058l-1.285,3.619a3.331,3.331,0,0,0,3.139,4.446h6.928a3.331,3.331,0,0,0,3.139-4.446l-1.285-3.618a8.88,8.88,0,0,0,2.88-3.666h30.782a8.479,8.479,0,0,0,16.856-1.307v-4.78A8.489,8.489,0,0,0,167.287,152.632Zm-44.1,16.7a1.207,1.207,0,0,0-.531,1.447l1.6,4.508a.918.918,0,0,1-.865,1.225h-6.928a.918.918,0,0,1-.865-1.225l1.6-4.508a1.207,1.207,0,0,0-.531-1.447,6.5,6.5,0,1,1,8.442-9.53h-4.48a3.7,3.7,0,1,0,0,7.393h4.774A6.492,6.492,0,0,1,123.189,169.335Z" transform="translate(-93.154 -128.24)"/>
      <path id="Path_881335" data-name="Path 881335" d="M445.319,191.064v-4.78a3.652,3.652,0,1,0-7.3,0v4.78a3.652,3.652,0,1,0,7.3,0Zm-4.891,0v-4.78a1.239,1.239,0,1,1,2.477,0v4.78a1.239,1.239,0,1,1-2.477,0Z" transform="translate(-367.534 -153.412)"/>
      <path id="Path_881336" data-name="Path 881336" d="M93.422,353.372H68.38a2.9,2.9,0,0,0-2.892,2.893V363.9A2.9,2.9,0,0,0,68.38,366.8H93.422a2.9,2.9,0,0,0,2.892-2.892v-7.638A2.9,2.9,0,0,0,93.422,353.372ZM93.9,363.9a.479.479,0,0,1-.479.479H68.38a.479.479,0,0,1-.479-.479v-7.638a.479.479,0,0,1,.479-.479H93.422a.479.479,0,0,1,.479.479Z" transform="translate(-54.95 -296.679)"/>
      <path id="Path_881337" data-name="Path 881337" d="M155.73,387.582H155.1a1.207,1.207,0,1,0,0,2.414h.633a1.207,1.207,0,1,0,0-2.414Z" transform="translate(-129.128 -325.384)"/>
      <path id="Path_881338" data-name="Path 881338" d="M112.858,387.582h-.633a1.207,1.207,0,1,0,0,2.414h.633a1.207,1.207,0,1,0,0-2.414Z" transform="translate(-93.154 -325.384)"/>
      <path id="Path_881339" data-name="Path 881339" d="M202.538,387.582H201.9a1.207,1.207,0,1,0,0,2.414h.634a1.207,1.207,0,1,0,0-2.414Z" transform="translate(-168.404 -325.384)"/>
    </g>
  </g>
</svg>
