<svg id="Group_1105693" data-name="Group 1105693" xmlns="http://www.w3.org/2000/svg" width="122.486" height="122.486" viewBox="0 0 122.486 122.486">
  <rect id="Rectangle_402033" data-name="Rectangle 402033" width="122.486" height="122.486" rx="5" transform="translate(0)" fill="#bfa2f7"/>
  <g id="Group_1104935" data-name="Group 1104935" transform="translate(-20.994 14.122)">
    <g id="Group_1104934" data-name="Group 1104934" transform="translate(44.45 1.389)">
      <path id="Path_881293" data-name="Path 881293" d="M284.253,201.771l-17.692-12.235-11.774-8.258-9.581,45.92,1.864,13.481a1.459,1.459,0,0,0,.847-.268l26.55-18.7a1.521,1.521,0,0,0,.509-1.87l-4.171-9.215,13.261-6.432A1.406,1.406,0,0,0,284.253,201.771Z" transform="translate(-209.283 -149.21)" fill="#d7d0d6"/>
      <path id="Path_881294" data-name="Path 881294" d="M99.528,244.064l-24.48-40.783-5.536,3.75L51.174,219.713a1.405,1.405,0,0,0,.186,2.42l13.261,6.432L60.45,237.78a1.521,1.521,0,0,0,.509,1.87l26.55,18.7a1.451,1.451,0,0,0,.834.268h.013V258.6Z" transform="translate(-50.569 -167.152)" fill="#d7d0d6"/>
      <g id="Group_1104930" data-name="Group 1104930" transform="translate(22.988 50.458)">
        <path id="Path_881295" data-name="Path 881295" d="M175.119,280.917l3.427,8.965,11.373,32.046,11.373-32.046,3.811-8.965Z" transform="translate(-175.119 -280.917)" fill="#b5adb6"/>
      </g>
      <path id="Path_881296" data-name="Path 881296" d="M202.8,175.4a9.4,9.4,0,0,1-3.989,7.685l-2.964,2.086a11.515,11.515,0,0,1-6.627,2.1h-3.564a11.517,11.517,0,0,1-6.627-2.1l-2.964-2.086a9.4,9.4,0,0,1-3.989-7.685V150.169H202.8Z" transform="translate(-149.648 -123.842)" fill="#fff3de"/>
      <path id="Path_881297" data-name="Path 881297" d="M186.391,23.582A18.835,18.835,0,0,0,180.284,9.7l-.509-.466a6.484,6.484,0,0,0-7.142-1.087l-5.521,2.6a2.073,2.073,0,0,1-1.765,0l-5.521-2.6a6.484,6.484,0,0,0-7.142,1.087l-.509.466a18.836,18.836,0,0,0-6.107,13.884V39.137h40.324Z" transform="translate(-128.441 -7.527)" fill="#d7d0d6"/>
      <g id="Group_1104932" data-name="Group 1104932" transform="translate(20.101 26.327)">
        <path id="Path_881298" data-name="Path 881298" d="M188.122,150.964h-9.637v-.8h-6.409V175.4a9.4,9.4,0,0,0,3.989,7.685l2.964,2.086a11.515,11.515,0,0,0,6.627,2.1h3.564a11.478,11.478,0,0,0,1.422-.09,11.514,11.514,0,0,1-5.2-2.008l-2.964-2.085a9.4,9.4,0,0,1-3.989-7.685v-2.691a1.931,1.931,0,0,1,1.543-1.89,10.172,10.172,0,0,0,6.6-4.645,1.058,1.058,0,0,1,1.8-.008,10.148,10.148,0,0,0,8.658,4.863h1.768a10.116,10.116,0,0,0,3.946-.8V150.964Z" transform="translate(-169.751 -150.169)" fill="#ffe5c2"/>
        <path id="Path_881299" data-name="Path 881299" d="M165.935,187.156H167.7a6.455,6.455,0,0,0,6.455-6.455v-6.224H159.48V180.7A6.455,6.455,0,0,0,165.935,187.156Z" transform="translate(-159.48 -169.991)" fill="#b5adb6"/>
        <path id="Path_881300" data-name="Path 881300" d="M280.827,187.156h-1.768A6.455,6.455,0,0,1,272.6,180.7v-6.224h14.679V180.7A6.456,6.456,0,0,1,280.827,187.156Z" transform="translate(-251.724 -169.991)" fill="#b5adb6"/>
        <g id="Group_1104931" data-name="Group 1104931" transform="translate(0 4.486)">
          <path id="Path_881301" data-name="Path 881301" d="M165.143,180.7v-6.224h-5.662V180.7a6.455,6.455,0,0,0,6.455,6.455H167.7a6.47,6.47,0,0,0,1.949-.3A6.46,6.46,0,0,1,165.143,180.7Z" transform="translate(-159.481 -174.477)" fill="#a79ba7"/>
          <path id="Path_881302" data-name="Path 881302" d="M278.264,180.7v-6.224H272.6V180.7a6.455,6.455,0,0,0,6.455,6.455h1.769a6.466,6.466,0,0,0,1.949-.3,6.46,6.46,0,0,1-4.511-6.156Z" transform="translate(-251.724 -174.477)" fill="#a79ba7"/>
        </g>
      </g>
      <g id="Group_1104933" data-name="Group 1104933" transform="translate(4.648 0)">
        <path id="Path_881303" data-name="Path 881303" d="M185.544,30.957h-23.7a6.85,6.85,0,0,1-6.85-6.85v-.526A18.836,18.836,0,0,1,161.1,9.7l.509-.467c.06-.055.124-.105.186-.158l-1.974-.929a6.484,6.484,0,0,0-7.143,1.087l-.509.466a18.836,18.836,0,0,0-6.107,13.884V39.137H186.39V30.909A7.675,7.675,0,0,1,185.544,30.957Z" transform="translate(-133.089 -7.527)" fill="#c9bfc8"/>
        <path id="Path_881304" data-name="Path 881304" d="M129.239,138.169H88.73a14.6,14.6,0,0,1-9.87-3.829l-2.242-2.049a2.658,2.658,0,0,1-.17-3.755l.4-.436a2.658,2.658,0,0,1,3.755-.17l2.243,2.048a8.708,8.708,0,0,0,5.886,2.284h39.477a11.386,11.386,0,0,0,7.679-2.979l1.481-1.353a2.658,2.658,0,0,1,3.755.17l.4.436a2.658,2.658,0,0,1-.17,3.755l-2.243,2.049A14.6,14.6,0,0,1,129.239,138.169Z" transform="translate(-75.753 -105.141)" fill="#d7d0d6"/>
      </g>
    </g>
    <path id="Path_881305" data-name="Path 881305" d="M120.207,52.812,101.372,39.787a7.841,7.841,0,0,0,.121-1.361V35.8h1.092a15.981,15.981,0,0,0,10.8-4.191l2.243-2.049a4.047,4.047,0,0,0,.258-5.71l-.4-.436a4.042,4.042,0,0,0-5.711-.258L108.3,24.51a9.979,9.979,0,0,1-4.514,2.365V17.444a20.254,20.254,0,0,0-.335-3.663,1.384,1.384,0,0,0-2.723.5,17.5,17.5,0,0,1,.289,3.162v9.682H63.46V17.444A17.494,17.494,0,0,1,69.118,4.58l.509-.466a5.082,5.082,0,0,1,5.618-.855l5.521,2.6a3.446,3.446,0,0,0,2.944,0l5.521-2.6a5.082,5.082,0,0,1,5.618.855l.509.466a17.416,17.416,0,0,1,3.549,4.549A1.384,1.384,0,0,0,101.34,7.81a20.178,20.178,0,0,0-4.112-5.27l-.509-.466A7.841,7.841,0,0,0,88.052.754l-5.521,2.6a.685.685,0,0,1-.586,0L76.423.754a7.84,7.84,0,0,0-8.667,1.319l-.509.466a20.269,20.269,0,0,0-6.556,14.9V27a7.326,7.326,0,0,1-3.568-1.79L54.88,23.156a4.042,4.042,0,0,0-5.71.258l-.4.436a4.046,4.046,0,0,0,.258,5.71l2.242,2.049a15.982,15.982,0,0,0,10.8,4.191h1.092v2.625a7.856,7.856,0,0,0,.1,1.248L52.839,46.885a1.384,1.384,0,1,0,1.575,2.277l9.822-6.792a7.887,7.887,0,0,0,1.256,1.621v8.952a10.793,10.793,0,0,0,4.12,8.474l10.2,28.364L55.638,72.755a.135.135,0,0,1-.045-.166l4.17-9.216a1.384,1.384,0,0,0-.657-1.816L45.837,55.12a.03.03,0,0,1,.006-.032l3.639-2.516A1.384,1.384,0,0,0,47.907,50.3l-3.639,2.516a2.789,2.789,0,0,0,.369,4.8l12.047,5.844L53.07,71.447a2.907,2.907,0,0,0,.973,3.571l26.55,18.7a2.86,2.86,0,0,0,3.287,0l26.55-18.7a2.907,2.907,0,0,0,.973-3.571l-3.615-7.988,12.047-5.844a2.789,2.789,0,0,0,.37-4.8ZM98.724,38.426A5.077,5.077,0,0,1,93.653,43.5H91.884a5.077,5.077,0,0,1-5.071-5.071V35.8h11.91v2.625Zm-14.679-.738a8.389,8.389,0,0,0-3.431.02V35.8h3.431ZM53.139,29.566,50.9,27.517a1.275,1.275,0,0,1-.081-1.8l.4-.436a1.265,1.265,0,0,1,.883-.413h.059a1.264,1.264,0,0,1,.857.333l2.243,2.048a10.088,10.088,0,0,0,6.82,2.646h39.478a12.742,12.742,0,0,0,8.612-3.341l1.481-1.353a1.273,1.273,0,0,1,1.8.082l.4.436a1.275,1.275,0,0,1-.081,1.8l-2.243,2.049a13.219,13.219,0,0,1-8.936,3.467H62.075a13.22,13.22,0,0,1-8.936-3.467ZM77.846,35.8v2.625A5.077,5.077,0,0,1,72.775,43.5H71.006a5.077,5.077,0,0,1-5.071-5.071V35.8ZM73.55,64.19A12.826,12.826,0,0,0,80.456,66.2h3.564a12.827,12.827,0,0,0,6.906-2.006L82.238,88.357Zm45.079-9.065-13.26,6.432a1.384,1.384,0,0,0-.657,1.816l4.17,9.216a.136.136,0,0,1-.045.166L84.667,89.782l10.2-28.363a10.785,10.785,0,0,0,3.8-5.854,1.384,1.384,0,1,0-2.685-.673,8.017,8.017,0,0,1-3.16,4.605l-2.964,2.086a10.08,10.08,0,0,1-5.83,1.846H80.455a10.08,10.08,0,0,1-5.83-1.846L71.662,59.5a8.022,8.022,0,0,1-3.4-6.553V45.768a7.8,7.8,0,0,0,2.746.5h1.769a7.853,7.853,0,0,0,7.5-5.568,5.652,5.652,0,0,1,4.091-.047,7.852,7.852,0,0,0,7.516,5.614h1.769a7.8,7.8,0,0,0,2.562-.432v3.495a1.384,1.384,0,0,0,2.768,0V44.168a7.9,7.9,0,0,0,1.388-1.706L118.64,55.095a.029.029,0,0,1-.011.03Z"/>
  </g>
</svg>
