<svg id="Group_1103685" data-name="Group 1103685" xmlns="http://www.w3.org/2000/svg" width="80" height="80" viewBox="0 0 80 80">
  <rect id="Rectangle_402033" data-name="Rectangle 402033" width="80" height="80" rx="5" transform="translate(0)" fill="#bfa2f7"/>
  <g id="Group_1105080" data-name="Group 1105080" transform="translate(-15.981 11.558)">
    <g id="Group_1105078" data-name="Group 1105078" transform="translate(31.815 0.833)">
      <g id="Group_1105077" data-name="Group 1105077">
        <path id="Path_881711" data-name="Path 881711" d="M105.315,223.634l-16.339,1.111-21.328-1.111a1.667,1.667,0,0,1-1.667-1.667v-8.441a1.667,1.667,0,0,1,1.667-1.667l20.931-1.111,16.736,1.111a1.667,1.667,0,0,1,1.667,1.667v8.441A1.666,1.666,0,0,1,105.315,223.634Z" transform="translate(-62.926 -188.168)" fill="#978ecb"/>
        <path id="Path_881712" data-name="Path 881712" d="M404.351,211.86l-1.222-1.111-2.111,1.111a1.667,1.667,0,0,1,1.667,1.667v8.441a1.667,1.667,0,0,1-1.667,1.667l2.111,1.111,1.222-1.111a1.667,1.667,0,0,0,1.667-1.667v-8.441A1.666,1.666,0,0,0,404.351,211.86Z" transform="translate(-360.74 -188.168)" fill="#6e61b6"/>
        <g id="Group_1105075" data-name="Group 1105075" transform="translate(22.222 40.18)">
          <path id="Path_881713" data-name="Path 881713" d="M240.444,383.973a1.944,1.944,0,0,1-1.944-1.944V371.1a1.944,1.944,0,0,1,1.944-1.944c1.074,0,1.611.87,1.611,1.944v10.926C242.055,383.1,241.518,383.973,240.444,383.973Z" transform="translate(-238.5 -369.159)" fill="#ffe282"/>
        </g>
        <path id="Path_881714" data-name="Path 881714" d="M250.667,369.159a1.936,1.936,0,0,0-.667.12,1.943,1.943,0,0,1,1.278,1.824v10.926A1.943,1.943,0,0,1,250,383.853a1.94,1.94,0,0,0,2.611-1.824V371.1A1.944,1.944,0,0,0,250.667,369.159Z" transform="translate(-226.5 -328.979)" fill="#ffd368"/>
        <path id="Path_881715" data-name="Path 881715" d="M105.315,338.5H67.648a1.667,1.667,0,0,1-1.667-1.667V328.4a1.667,1.667,0,0,1,1.667-1.667h37.667a1.667,1.667,0,0,1,1.667,1.667v8.441A1.667,1.667,0,0,1,105.315,338.5Z" transform="translate(-62.927 -291.263)" fill="#f7f9fa"/>
        <path id="Path_881716" data-name="Path 881716" d="M105.315,126.543H67.648a1.667,1.667,0,0,1-1.667-1.667v-8.441a1.667,1.667,0,0,1,1.667-1.667h37.667a1.667,1.667,0,0,1,1.667,1.667v8.441A1.667,1.667,0,0,1,105.315,126.543Z" transform="translate(-62.927 -102.851)" fill="#f7f9fa"/>
        <g id="Group_1105076" data-name="Group 1105076" transform="translate(0 51.328)">
          <path id="Path_881717" data-name="Path 881717" d="M83.759,473.388H40.425a1.944,1.944,0,1,1,0-3.888H83.758a1.944,1.944,0,0,1,0,3.888Z" transform="translate(-38.481 -469.5)" fill="#978ecb"/>
        </g>
        <path id="Path_881718" data-name="Path 881718" d="M429.352,469.5h-3.333a1.944,1.944,0,1,1,0,3.888h3.333a1.944,1.944,0,1,0,0-3.888Z" transform="translate(-382.963 -418.172)" fill="#6e61b6"/>
        <path id="Path_881719" data-name="Path 881719" d="M404.351,114.769h-3.333a1.667,1.667,0,0,1,1.667,1.667v8.441a1.667,1.667,0,0,1-1.667,1.667h3.333a1.667,1.667,0,0,0,1.667-1.667v-8.441A1.666,1.666,0,0,0,404.351,114.769Z" transform="translate(-360.74 -102.851)" fill="#e9edf1"/>
        <path id="Path_881720" data-name="Path 881720" d="M371.375,152.718a1.792,1.792,0,0,1-1.865,1.865,1.886,1.886,0,1,1,0-3.731A1.792,1.792,0,0,1,371.375,152.718Z" transform="translate(-330.975 -134.913)" fill="#6cf5c2"/>
        <path id="Path_881721" data-name="Path 881721" d="M379.1,149.968a1.969,1.969,0,0,0-.778.159,1.977,1.977,0,0,1,0,3.635,1.977,1.977,0,1,0,.778-3.794Z" transform="translate(-340.566 -134.14)" fill="#05e39c"/>
        <path id="Path_881722" data-name="Path 881722" d="M371.375,258.7a1.792,1.792,0,0,1-1.865,1.865,1.886,1.886,0,1,1,0-3.731A1.792,1.792,0,0,1,371.375,258.7Z" transform="translate(-330.975 -229.119)" fill="#6cf5c2"/>
        <path id="Path_881723" data-name="Path 881723" d="M379.1,255.948a1.969,1.969,0,0,0-.778.159,1.977,1.977,0,0,1,0,3.634,1.977,1.977,0,1,0,.778-3.794Z" transform="translate(-340.566 -228.345)" fill="#05e39c"/>
        <path id="Path_881724" data-name="Path 881724" d="M404.351,326.729h-3.333a1.667,1.667,0,0,1,1.667,1.667v8.441a1.667,1.667,0,0,1-1.667,1.667h3.333a1.667,1.667,0,0,0,1.667-1.667V328.4A1.666,1.666,0,0,0,404.351,326.729Z" transform="translate(-360.74 -291.263)" fill="#e9edf1"/>
        <path id="Path_881725" data-name="Path 881725" d="M371.375,364.678a1.792,1.792,0,0,1-1.865,1.865,1.886,1.886,0,1,1,0-3.731A1.792,1.792,0,0,1,371.375,364.678Z" transform="translate(-330.975 -323.324)" fill="#6cf5c2"/>
        <path id="Path_881726" data-name="Path 881726" d="M379.1,361.928a1.969,1.969,0,0,0-.778.159,1.977,1.977,0,0,1,0,3.635,1.977,1.977,0,1,0,.778-3.794Z" transform="translate(-340.566 -322.551)" fill="#05e39c"/>
        <path id="Path_881727" data-name="Path 881727" d="M181.851,18.315c0,5.778-3.773,10.37-9.551,10.37-.354,0-.7.074-1.047.039a10.462,10.462,0,0,1-.022-20.817c.352-.036.708.037,1.07.037C178.078,7.945,181.851,12.537,181.851,18.315Z" transform="translate(-148.134 -7.854)" fill="#978ecb"/>
        <path id="Path_881728" data-name="Path 881728" d="M247.619,7.5q-.53,0-1.047.052a10.462,10.462,0,0,1,0,20.819q.517.051,1.047.052a10.461,10.461,0,1,0,0-20.923Z" transform="translate(-223.453 -7.5)" fill="#6e61b6"/>
        <path id="Path_881729" data-name="Path 881729" d="M220.24,88.861a4.624,4.624,0,0,1-.736.031,4.471,4.471,0,0,1-3.734-4.409v-4.47a.736.736,0,0,1,.736-.736h6.557a.736.736,0,0,1,.736.736v4.47C223.8,86.951,222.709,88.861,220.24,88.861Z" transform="translate(-196.074 -71.303)" fill="#fd8087"/>
        <path id="Path_881730" data-name="Path 881730" d="M253.847,79.277h-1.472a.736.736,0,0,1,.736.736v4.47a4.47,4.47,0,0,1-3.734,4.408,4.468,4.468,0,0,0,5.205-4.408V80.013A.736.736,0,0,0,253.847,79.277Z" transform="translate(-225.947 -71.303)" fill="#fd4755"/>
      </g>
    </g>
    <g id="Group_1105079" data-name="Group 1105079" transform="translate(30.982 0)">
      <path id="Path_881731" data-name="Path 881731" d="M362.842,148.088a2.81,2.81,0,1,0-2.81-2.81A2.813,2.813,0,0,0,362.842,148.088Zm0-3.953a1.143,1.143,0,1,1-1.143,1.143A1.145,1.145,0,0,1,362.842,144.135Z" transform="translate(-323.474 -126.64)"/>
      <path id="Path_881732" data-name="Path 881732" d="M102.219,148.764a.833.833,0,0,0,.833-.833V144.17a.833.833,0,1,0-1.667,0v3.761A.833.833,0,0,0,102.219,148.764Z" transform="translate(-93.564 -127.412)"/>
      <path id="Path_881733" data-name="Path 881733" d="M128.37,148.764a.833.833,0,0,0,.833-.833V144.17a.833.833,0,1,0-1.667,0v3.761A.833.833,0,0,0,128.37,148.764Z" transform="translate(-116.81 -127.412)"/>
      <path id="Path_881734" data-name="Path 881734" d="M154.521,163.806a.833.833,0,0,0,.833-.833v-1.881a.833.833,0,1,0-1.667,0v1.881A.833.833,0,0,0,154.521,163.806Z" transform="translate(-140.055 -142.453)"/>
      <path id="Path_881735" data-name="Path 881735" d="M362.842,248.448a2.81,2.81,0,1,0,2.81,2.81A2.813,2.813,0,0,0,362.842,248.448Zm0,3.953a1.143,1.143,0,1,1,1.143-1.143,1.145,1.145,0,0,1-1.143,1.143Z" transform="translate(-323.474 -220.845)"/>
      <path id="Path_881736" data-name="Path 881736" d="M102.219,249.317a.833.833,0,0,0-.833.833v3.761a.833.833,0,0,0,1.667,0V250.15A.833.833,0,0,0,102.219,249.317Z" transform="translate(-93.564 -221.618)"/>
      <path id="Path_881737" data-name="Path 881737" d="M128.37,249.317a.833.833,0,0,0-.833.833v3.761a.833.833,0,0,0,1.667,0V250.15A.833.833,0,0,0,128.37,249.317Z" transform="translate(-116.81 -221.618)"/>
      <path id="Path_881738" data-name="Path 881738" d="M154.521,249.317a.833.833,0,0,0-.833.833v3.761a.833.833,0,1,0,1.667,0V250.15A.833.833,0,0,0,154.521,249.317Z" transform="translate(-140.055 -221.618)"/>
      <path id="Path_881739" data-name="Path 881739" d="M362.842,360.048a2.81,2.81,0,1,0-2.81-2.81A2.813,2.813,0,0,0,362.842,360.048Zm0-3.953a1.143,1.143,0,1,1-1.143,1.143A1.145,1.145,0,0,1,362.842,356.094Z" transform="translate(-323.474 -315.051)"/>
      <path id="Path_881740" data-name="Path 881740" d="M102.219,355.3a.833.833,0,0,0-.833.833v3.761a.833.833,0,0,0,1.667,0v-3.761A.833.833,0,0,0,102.219,355.3Z" transform="translate(-93.564 -315.824)"/>
      <path id="Path_881741" data-name="Path 881741" d="M128.37,355.3a.833.833,0,0,0-.833.833v3.761a.833.833,0,0,0,1.667,0v-3.761A.833.833,0,0,0,128.37,355.3Z" transform="translate(-116.81 -315.824)"/>
      <path id="Path_881742" data-name="Path 881742" d="M154.521,355.3a.833.833,0,0,0-.833.833v3.761a.833.833,0,1,0,1.667,0v-3.761A.833.833,0,0,0,154.521,355.3Z" transform="translate(-140.055 -315.824)"/>
      <path id="Path_881743" data-name="Path 881743" d="M201.613,373.052a.833.833,0,0,0-.833-.833H184.521a.833.833,0,0,0,0,1.667H200.78A.833.833,0,0,0,201.613,373.052Z" transform="translate(-166.722 -330.865)"/>
      <path id="Path_881744" data-name="Path 881744" d="M302.514,266.239H298.97a.833.833,0,0,0,0,1.667h3.544a.833.833,0,0,0,0-1.667Z" transform="translate(-268.456 -236.66)"/>
      <path id="Path_881745" data-name="Path 881745" d="M193.6,266.239H184.52a.833.833,0,0,0,0,1.667H193.6a.833.833,0,1,0,0-1.667Z" transform="translate(-166.721 -236.66)"/>
      <path id="Path_881746" data-name="Path 881746" d="M78.2,51.328H70.188a.833.833,0,1,0,0,1.667H78.2a1.111,1.111,0,1,1,0,2.222H33.759a1.111,1.111,0,1,1,0-2.222h32.8a.833.833,0,1,0,0-1.667h-7.8V48.907H75.426a2.5,2.5,0,0,0,2.5-2.5V37.966a2.49,2.49,0,0,0-.638-1.667,2.489,2.489,0,0,0,.638-1.667V26.192a2.49,2.49,0,0,0-.638-1.667,2.489,2.489,0,0,0,.638-1.667V14.417a2.5,2.5,0,0,0-2.5-2.5H67.259c.011-.206.017-.414.017-.623A11.295,11.295,0,0,0,48.8,2.579a.833.833,0,1,0,1.061,1.285A9.616,9.616,0,1,1,47.808,6.2a.833.833,0,1,0-1.414-.882,11.266,11.266,0,0,0-1.707,5.973q0,.314.017.623H36.537a2.5,2.5,0,0,0-2.5,2.5v8.441a2.489,2.489,0,0,0,.639,1.667,2.489,2.489,0,0,0-.639,1.667v8.441a2.489,2.489,0,0,0,.639,1.667,2.489,2.489,0,0,0-.639,1.667v8.442a2.5,2.5,0,0,0,2.5,2.5H53.2v2.421H33.759a2.778,2.778,0,0,0,0,5.555H78.2a2.778,2.778,0,1,0,0-5.555ZM36.537,35.466a.834.834,0,0,1-.833-.833V26.192a.834.834,0,0,1,.833-.833H75.426a.834.834,0,0,1,.833.833v8.441a.834.834,0,0,1-.833.833ZM35.7,14.417a.834.834,0,0,1,.833-.833H44.92a11.3,11.3,0,0,0,22.122,0h8.383a.834.834,0,0,1,.833.833v8.441a.834.834,0,0,1-.833.833H36.537a.834.834,0,0,1-.833-.833Zm0,31.99V37.966a.834.834,0,0,1,.833-.833H75.426a.834.834,0,0,1,.833.833v8.442a.834.834,0,0,1-.833.833H36.537A.834.834,0,0,1,35.7,46.408Zm19.167,2.5h2.222v2.421H54.871Z" transform="translate(-30.982 0)"/>
      <path id="Path_881747" data-name="Path 881747" d="M213.574,29.463a3.906,3.906,0,0,0-3.9,3.9v.808a1.571,1.571,0,0,0-1.4,1.56V40.2a5.3,5.3,0,1,0,10.605,0V35.733a1.571,1.571,0,0,0-1.4-1.56v-.808A3.906,3.906,0,0,0,213.574,29.463Zm0,1.667a2.238,2.238,0,0,1,2.235,2.235v.8h-4.471v-.8A2.238,2.238,0,0,1,213.574,31.129ZM217.21,40.2a3.636,3.636,0,1,1-7.272,0V35.831h7.273V40.2Z" transform="translate(-188.574 -26.19)"/>
      <path id="Path_881748" data-name="Path 881748" d="M248.5,107.359a.956.956,0,1,0-.924,0l-.52,1.209a.156.156,0,0,0,.144.218h1.676a.156.156,0,0,0,.144-.218Z" transform="translate(-223.043 -93.836)"/>
    </g>
  </g>
</svg>
