<svg id="Group_1103680" data-name="Group 1103680" xmlns="http://www.w3.org/2000/svg" width="80" height="80" viewBox="0 0 80 80">
  <rect id="Rectangle_402033" data-name="Rectangle 402033" width="80" height="80" rx="5" transform="translate(0)" fill="#bfa2f7"/>
  <g id="Group_1105057" data-name="Group 1105057" transform="translate(9.915 10.15)">
    <g id="Group_1105055" data-name="Group 1105055" transform="translate(1.142 0.874)">
      <path id="Path_881624" data-name="Path 881624" d="M61.764,31.179l-.31-1.4.256-.323h0a27,27,0,0,0-1.8-5.736l-1.984-2.676.207-.682a27.363,27.363,0,0,0-8.778-8.778l-.13.318L46.7,10.549l-1.114-.912a26.971,26.971,0,0,0-5.334-1.631l-.078.163L38.7,8.016l-.539-.337a27.682,27.682,0,0,0-6.36,0l-.326.274L30,8.272l-.27-.266A27,27,0,0,0,24.11,9.761l-.528.54L21,11.881l-.366-.295a27.365,27.365,0,0,0-8.779,8.779l.223.141-.66,1.724-1.308,1.426a26.987,26.987,0,0,0-1.835,5.8l.2.1-.153,1.255-.367.684a27.668,27.668,0,0,0,0,6.481l.279.207.247,1.264-.21.531a27,27,0,0,0,1.862,5.865h0l1.106,1.171.967,1.839-.354.219a27.364,27.364,0,0,0,8.779,8.779l.3-.223,2.623,1.543.524.493a27,27,0,0,0,5.652,1.768l.151-.157,1.7.263.182.213a27.609,27.609,0,0,0,6.323.016l.469-.269,1.532-.182.034.142a27.235,27.235,0,0,0,22.1-26.743,27.531,27.531,0,0,0-.189-3.21Z" transform="translate(-7.77 -7.498)" fill="#b3dafe"/>
      <g id="Group_1105054" data-name="Group 1105054" transform="translate(0 0.757)">
        <path id="Path_881625" data-name="Path 881625" d="M266.914,197.593a3.563,3.563,0,0,0-4.335,0l-.851.652a16.918,16.918,0,0,1-7.911,3.318l-2.5.352a3.088,3.088,0,0,0-2.644,3.043V215.1a20.1,20.1,0,0,0,5.17,13.463,27.235,27.235,0,0,0,21.2-26.554c0-.184,0-.367-.008-.551a16.922,16.922,0,0,1-7.272-3.214Z" transform="translate(-220.595 -175.541)" fill="#8ac9fe"/>
        <path id="Path_881626" data-name="Path 881626" d="M17.765,41.486C17.765,30.35,22,20.426,28.6,13.994A27,27,0,0,0,24.11,15.5l-.528.54L21,17.62l-.366-.295A27.365,27.365,0,0,0,11.859,26.1l.223.141-.66,1.724-1.308,1.426a26.987,26.987,0,0,0-1.835,5.8l.2.1-.153,1.255-.367.684a27.668,27.668,0,0,0,0,6.481l.279.207.247,1.264-.21.531a27,27,0,0,0,1.862,5.865h0l1.106,1.171.967,1.839-.354.219A27.364,27.364,0,0,0,20.638,63.6l.3-.223,2.623,1.543.524.493q.971.425,1.98.775a39.347,39.347,0,0,1-8.3-24.7Z" transform="translate(-7.77 -13.994)" fill="#8ac9fe"/>
        <path id="Path_881627" data-name="Path 881627" d="M282.389,250.392l-3.035-1.323a17.781,17.781,0,0,1-10.675-16.3V222.627a.742.742,0,0,1,.638-.735l2.5-.352a19.217,19.217,0,0,0,9-3.776l.85-.652a1.232,1.232,0,0,1,1.5,0l.85.652a19.218,19.218,0,0,0,9,3.776l2.5.352a.742.742,0,0,1,.638.735v10.142a17.781,17.781,0,0,1-10.675,16.3l-3.035,1.323A.066.066,0,0,1,282.389,250.392Z" transform="translate(-238.264 -193.21)" fill="#d7d0d6"/>
        <circle id="Ellipse_11776" data-name="Ellipse 11776" cx="9.652" cy="9.652" r="9.652" transform="translate(34.499 30.485)" fill="#bbec6c"/>
      </g>
    </g>
    <g id="Group_1105056" data-name="Group 1105056" transform="translate(0.267)">
      <path id="Path_881628" data-name="Path 881628" d="M58.513,29.448l-2.069-.292c.014-.359.022-.713.022-1.057A28.1,28.1,0,0,0,2.49,17.128a.874.874,0,1,0,1.61.683q.369-.87.8-1.7a29.613,29.613,0,0,1,5.276-3.1,45.037,45.037,0,0,0-1.859,7.864,43.64,43.64,0,0,0-5.69,1.593q.121-.556.266-1.106A.874.874,0,1,0,1.2,20.912,28.116,28.116,0,0,0,36.721,54.933a18.638,18.638,0,0,0,5.16,3.358l3.062,1.335a.874.874,0,0,0,.7,0L48.7,58.291a18.669,18.669,0,0,0,4.158-2.5.874.874,0,1,0-1.089-1.368,16.918,16.918,0,0,1-3.768,2.267l-2.712,1.183-2.712-1.183a16.886,16.886,0,0,1-5.024-3.371l-.021-.02A16.9,16.9,0,0,1,32.43,41.19V31.163l2.382-.336a20.133,20.133,0,0,0,9.413-3.948l.85-.652a.358.358,0,0,1,.435,0l.85.652a20.131,20.131,0,0,0,9.413,3.948l2.382.336V41.19A16.952,16.952,0,0,1,54.3,51.938a.874.874,0,0,0,1.35,1.111A18.7,18.7,0,0,0,59.9,41.19V31.048a1.624,1.624,0,0,0-1.39-1.6Zm-9.861-6.725a37.235,37.235,0,0,1,5.817,1.753,26.74,26.74,0,0,1,.247,3.624c0,.248,0,.5-.012.76a18.4,18.4,0,0,1-5.791-2.34q-.059-1.918-.262-3.8ZM35.957,9.865a42.051,42.051,0,0,1,8.411,2.217,42.283,42.283,0,0,1,2.225,8.425,88.98,88.98,0,0,0-9.447-1.187,88.92,88.92,0,0,0-1.189-9.454ZM35.376,19.2c-2.268-.134-4.615-.2-7.01-.2s-4.742.069-7.01.2a86.972,86.972,0,0,1,1.257-9.589,49.108,49.108,0,0,1,11.5,0A87.009,87.009,0,0,1,35.376,19.2ZM40.349,4.618a29.488,29.488,0,0,1,3.1,5.283,45.034,45.034,0,0,0-7.858-1.856A43.674,43.674,0,0,0,34,2.35,26.029,26.029,0,0,1,40.349,4.618ZM46.553,13a29.6,29.6,0,0,1,5.295,3.114,26.038,26.038,0,0,1,2.268,6.351,43.647,43.647,0,0,0-5.7-1.6A45.235,45.235,0,0,0,46.553,13Zm3.178-.335a35.073,35.073,0,0,0-4.014-1.927,35.171,35.171,0,0,0-1.924-4.01,26.667,26.667,0,0,1,5.938,5.937ZM31.99,2a37.228,37.228,0,0,1,1.752,5.815,50.657,50.657,0,0,0-10.752,0A37.251,37.251,0,0,1,24.742,2,26.566,26.566,0,0,1,31.99,2Zm-9.257.358a43.651,43.651,0,0,0-1.593,5.69A45.026,45.026,0,0,0,13.274,9.9a29.611,29.611,0,0,1,3.1-5.28A26.282,26.282,0,0,1,22.733,2.355ZM6.994,12.672a26.3,26.3,0,0,1,5.947-5.948,35.057,35.057,0,0,0-1.931,4.019A35.016,35.016,0,0,0,6.994,12.672Zm5.36-.585a42.033,42.033,0,0,1,8.422-2.221,88.95,88.95,0,0,0-1.189,9.454,88.927,88.927,0,0,0-9.454,1.189,42.031,42.031,0,0,1,2.221-8.422Zm19.2,34.732c-1.058.069-2.125.107-3.187.107a48.927,48.927,0,0,1-5.752-.338A87,87,0,0,1,21.357,37c2.268.134,4.615.2,7.01.2.769,0,1.545-.008,2.316-.022V41.19a18.642,18.642,0,0,0,.871,5.628Zm-10.778-.485a42.039,42.039,0,0,1-8.422-2.221,42.045,42.045,0,0,1-2.221-8.421,88.955,88.955,0,0,0,9.454,1.189A88.982,88.982,0,0,0,20.775,46.333Zm-4.392,5.248A29.6,29.6,0,0,1,13.275,46.3a45.045,45.045,0,0,0,7.865,1.859,43.625,43.625,0,0,0,1.594,5.694A26.033,26.033,0,0,1,16.383,51.581ZM2.617,33.731a43.658,43.658,0,0,0,5.695,1.595,45.023,45.023,0,0,0,1.859,7.865,29.594,29.594,0,0,1-5.286-3.109,26.031,26.031,0,0,1-2.268-6.351Zm7.262.12a49.108,49.108,0,0,1,0-11.5,86.979,86.979,0,0,1,9.589-1.257c-.134,2.268-.2,4.615-.2,7.01s.07,4.742.2,7.01a87,87,0,0,1-9.589-1.257Zm-1.8-11.128a50.657,50.657,0,0,0,0,10.752,37.245,37.245,0,0,1-5.815-1.752,26.566,26.566,0,0,1,0-7.248,37.247,37.247,0,0,1,5.813-1.751ZM7,43.532a35.052,35.052,0,0,0,4.008,1.924,35.055,35.055,0,0,0,1.924,4.007A26.679,26.679,0,0,1,7,43.532ZM24.743,54.2a37.241,37.241,0,0,1-1.752-5.815,50.62,50.62,0,0,0,5.376.286c1.272,0,2.554-.051,3.819-.146A18.658,18.658,0,0,0,33.2,50.553,32.4,32.4,0,0,1,31.99,54.2a26.618,26.618,0,0,1-7.248,0Zm9.725-1.747q.413.546.866,1.062-.663.181-1.335.328.24-.663.468-1.39Zm.1-23.359-2.5.352a1.624,1.624,0,0,0-1.39,1.6V35.43c-.771.015-1.546.022-2.316.022-2.426,0-4.818-.076-7.134-.22-.144-2.315-.22-4.708-.22-7.134s.076-4.818.22-7.134c2.315-.144,4.708-.22,7.134-.22s4.818.076,7.134.22c.144,2.315.22,4.708.22,7.134,0,.254,0,.516,0,.8q-.57.118-1.149.2Zm9.444-4.256-.85.652a18.377,18.377,0,0,1-5.694,2.95q0-.174,0-.342c0-2.394-.069-4.742-.2-7.01a87.018,87.018,0,0,1,9.584,1.256q.171,1.435.257,2.9l-.532-.408a2.11,2.11,0,0,0-2.562,0Z" transform="translate(-0.267)"/>
      <path id="Path_881629" data-name="Path 881629" d="M313.855,271.95a.874.874,0,0,0-.064-1.235,10.5,10.5,0,1,0,2.44,3.249.874.874,0,0,0-1.575.761,8.692,8.692,0,0,1,.869,3.813,8.78,8.78,0,1,1-2.905-6.523A.874.874,0,0,0,313.855,271.95Z" transform="translate(-261.722 -236.769)"/>
      <path id="Path_881630" data-name="Path 881630" d="M359,318.966l-5.051,6.677-1.195-.955a.874.874,0,0,0-1.092,1.365l1.9,1.517a.874.874,0,0,0,1.243-.155l5.593-7.394A.874.874,0,1,0,359,318.966Z" transform="translate(-310.411 -281.477)"/>
    </g>
  </g>
</svg>
