<svg xmlns="http://www.w3.org/2000/svg" width="130" height="137.884" viewBox="0 0 130 137.884">
  <g id="Group_1103692" data-name="Group 1103692" transform="translate(-280.01 -5846.501)">
    <path id="Path_873448" data-name="Path 873448" d="M130,133.973A3.976,3.976,0,0,0,126.024,130H3.976A3.976,3.976,0,0,0,0,133.973v73.452c0,.055,0,.109,0,.163a7.565,7.565,0,0,0,3.453,6.532l57.4,29.89a7.6,7.6,0,0,0,8.277,0l57.4-29.89A7.565,7.565,0,0,0,130,207.589c0-.054,0-.109,0-.163Z" transform="translate(280.01 5739.148)" fill="#fff"/>
    <path id="Path_873449" data-name="Path 873449" d="M121.194,83.7A3.707,3.707,0,0,0,117.487,80H3.707A3.707,3.707,0,0,0,0,83.7V169c0,.051,0,.1,0,.152a7.053,7.053,0,0,0,3.219,6.09l53.516,27.865a7.083,7.083,0,0,0,7.716,0l53.516-27.865a7.053,7.053,0,0,0,3.219-6.09c0-.051,0-.1,0-.152Z" transform="translate(284.343 5774.085)" fill="#6018ec"/>
    <path id="Path_873665" data-name="Path 873665" d="M108.068,12.3A3.305,3.305,0,0,0,104.763,9H3.305A3.305,3.305,0,0,0,0,12.3v89.87c0,.046,0,.091,0,.136a6.289,6.289,0,0,0,2.87,5.43l47.72,24.847a6.316,6.316,0,0,0,6.881,0l47.72-24.847a6.289,6.289,0,0,0,2.87-5.43c0-.045,0-.09,0-.136Z" transform="translate(290.843 5838.004)" fill="none" stroke="#fff" stroke-width="1"/>
    <path id="Path_881784" data-name="Path 881784" d="M135.567-.01H112.1A6.314,6.314,0,0,0,105.79,6.3V55.186a6.312,6.312,0,0,0,6.307,6.3h23.47a6.312,6.312,0,0,0,6.307-6.3V6.3A6.315,6.315,0,0,0,135.567-.01Zm4.383,55.2a4.387,4.387,0,0,1-4.384,4.38H112.1a4.388,4.388,0,0,1-4.384-4.38V6.3A4.388,4.388,0,0,1,112.1,1.913h23.47A4.389,4.389,0,0,1,139.951,6.3V55.186ZM115.126,7.23a.962.962,0,0,1,.962-.962h15.488a.962.962,0,1,1,0,1.924H116.088A.962.962,0,0,1,115.126,7.23Zm10.289,47.022a.962.962,0,0,1-.962.962h-1.246a.962.962,0,0,1,0-1.924h1.246A.962.962,0,0,1,125.415,54.252Zm7.91-17.811H129.1a2.221,2.221,0,0,0-2.218,2.218v2.611a2.223,2.223,0,0,0,.243,1.011,8.972,8.972,0,0,1-6.581,0,2.21,2.21,0,0,0,.244-1.013V38.658a2.221,2.221,0,0,0-2.218-2.218h-4.229a2.1,2.1,0,0,0-1.543.584,3.232,3.232,0,0,0-.675,2.4v.085c0,.02,0,.042,0,.062a9.65,9.65,0,0,0,3.946,7.346,13,13,0,0,0,7.718,2.393,13.149,13.149,0,0,0,7.776-2.4,9.622,9.622,0,0,0,3.98-7.334c0-.02,0-.042,0-.062v-.085a3.233,3.233,0,0,0-.675-2.4,2.09,2.09,0,0,0-1.542-.583Zm.3,2.981v.055c-.371,5.434-5.355,7.909-9.835,7.91-4.585,0-9.369-2.447-9.742-7.91v-.055a2.994,2.994,0,0,1,.1-1.032.477.477,0,0,1,.19-.025h4.229a.3.3,0,0,1,.294.294v2.611a.3.3,0,0,1-.184.271.961.961,0,0,0-.3,1.588,8.169,8.169,0,0,0,5.4,1.709,8.008,8.008,0,0,0,5.5-1.709.963.963,0,0,0-.294-1.59.3.3,0,0,1-.184-.271V38.657a.3.3,0,0,1,.294-.294h4.229a.631.631,0,0,1,.181.019,2.864,2.864,0,0,1,.113,1.04Zm-6.8-25.526a3.45,3.45,0,0,0-5.974,0l-8.947,15.5a3.45,3.45,0,0,0,2.985,5.174h17.9a3.451,3.451,0,0,0,2.985-5.174Zm7.28,17.984a1.469,1.469,0,0,1-1.318.764h-17.9a1.527,1.527,0,0,1-1.319-2.288l8.948-15.5a1.525,1.525,0,0,1,2.639,0,0,0,0,0,0,0,0l8.948,15.5A1.47,1.47,0,0,1,134.1,31.881ZM123.857,16.3H123.8a2.144,2.144,0,0,0-2.142,2.252l.286,5.726a1.865,1.865,0,0,0,1.863,1.776h.041a1.868,1.868,0,0,0,1.867-1.775L126,18.548a2.15,2.15,0,0,0-2.146-2.253Zm-.025,7.157-.25-5a.181.181,0,0,1,.058-.161.193.193,0,0,1,.163-.071h.054a.183.183,0,0,1,.159.066l.01.01a.171.171,0,0,1,.055.156Zm0,2.921a2.035,2.035,0,1,0,2.038,2.035A2.037,2.037,0,0,0,123.831,26.373Zm0,2.144a.112.112,0,0,1-.11-.111.112.112,0,1,1,.11.111Z" transform="translate(221.178 5875.566)" fill="#fff"/>
  </g>
</svg>
