<svg id="Group_1105694" data-name="Group 1105694" xmlns="http://www.w3.org/2000/svg" width="122.487" height="122.486" viewBox="0 0 122.487 122.486">
  <rect id="Rectangle_402033" data-name="Rectangle 402033" width="122.486" height="122.486" rx="5" transform="translate(0)" fill="#bfa2f7"/>
  <g id="Group_1104942" data-name="Group 1104942" transform="translate(19.479 18.124)">
    <g id="Group_1104940" data-name="Group 1104940" transform="translate(1.222 15.141)">
      <path id="Path_881306" data-name="Path 881306" d="M81.921,96.262H14.159A6.663,6.663,0,0,0,7.5,102.924v33.322h.1l5.394,5.331H84.336l4.2-5.331.049-33.322A6.663,6.663,0,0,0,81.921,96.262Z" transform="translate(-7.497 -94.361)" fill="#f9f7f8"/>
      <g id="Group_1104939" data-name="Group 1104939">
        <path id="Path_881307" data-name="Path 881307" d="M191.268,404.548V392.165h-19.91v12.383l-4.64,5.75h29.191Z" transform="translate(-140.77 -342.042)" fill="#baafb9"/>
        <g id="XMLID_167_" transform="translate(0 41.885)">
          <g id="Group_1104936" data-name="Group 1104936">
            <path id="Path_881308" data-name="Path 881308" d="M191.268,392.165h-19.91v12.384l-4.64,5.75h4.64l3.752-4.65a4,4,0,0,0,.888-2.515v-3a2.594,2.594,0,0,1,2.594-2.594h12.675Z" transform="translate(-140.77 -383.927)" fill="#aa9ea9"/>
            <path id="Path_881309" data-name="Path 881309" d="M88.534,341.612l0,3.719a6.662,6.662,0,0,1-6.662,6.638H14.159A6.663,6.663,0,0,1,7.5,345.306v-3.694H88.534Z" transform="translate(-7.497 -341.612)" fill="#baafb9"/>
          </g>
        </g>
        <path id="Path_881310" data-name="Path 881310" d="M324.463,175.241h-20.7a3.411,3.411,0,0,1-3.411-3.411v-6.272a3.411,3.411,0,0,1,3.411-3.411h20.7a3.411,3.411,0,0,1,3.411,3.411v6.272a3.411,3.411,0,0,1-3.411,3.411Z" transform="translate(-252.625 -149.508)" fill="#efedef"/>
        <g id="Group_1104938" data-name="Group 1104938" transform="translate(7.824 6.862)">
          <g id="XMLID_168_">
            <g id="Group_1104937" data-name="Group 1104937">
              <path id="Path_881311" data-name="Path 881311" d="M174.135,156.434l-.006-.013-.024-.029a15.212,15.212,0,0,0-1.645-1.96h0l-4.491,7.224-4.01,8.021v10l.854.515a15.3,15.3,0,0,0,3.956-1.442l.021-.007,0,0a15.315,15.315,0,0,0,5.345-22.306Z" transform="translate(-146.285 -149.914)" fill="#b3dafe"/>
              <path id="Path_881312" data-name="Path 881312" d="M76.486,127.789l-.012-.006-.018-.005a15.206,15.206,0,0,0-2.725-.794l-.023-.007H73.7A15.313,15.313,0,0,0,55.79,144.951h0l0,0,5.627.919,17.225-13.814.469-2.907A29.076,29.076,0,0,0,76.486,127.789Z" transform="translate(-55.506 -126.706)" fill="#b3dafe"/>
              <path id="Path_881313" data-name="Path 881313" d="M78.894,205.8l-1.468-4.394-6.939-5.075L65.149,196l-.792.209a11.937,11.937,0,0,0-6.618,5.7c-.181.342-.492,1.045-.492,1.045a15.314,15.314,0,0,0,18.244,12.035s.523-.557.766-.86a11.923,11.923,0,0,0,2.637-8.324Z" transform="translate(-56.963 -184.709)" fill="#efedef"/>
              <path id="Path_881314" data-name="Path 881314" d="M105.735,143.53a10.3,10.3,0,0,1,15.423-8.854,14.962,14.962,0,0,1,1.335.966,15.177,15.177,0,0,1,1.232,1.113,10.3,10.3,0,1,1-17.99,6.775Z" transform="translate(-97.549 -132.237)" fill="#f9f7f8"/>
            </g>
          </g>
        </g>
        <circle id="Ellipse_11767" data-name="Ellipse 11767" cx="2.742" cy="2.742" r="2.742" transform="translate(33.877)" fill="#b3dafe"/>
      </g>
    </g>
    <g id="Group_1104941" data-name="Group 1104941" transform="translate(0 1.618)">
      <path id="Path_881315" data-name="Path 881315" d="M268.863,91.208h23.112a1.222,1.222,0,1,0,0-2.445H268.863a1.222,1.222,0,1,0,0,2.445Z" transform="translate(-224.024 -74.561)"/>
      <path id="Path_881316" data-name="Path 881316" d="M75.645,88.763H73.16a1.222,1.222,0,0,0,0,2.445h2.485a5.446,5.446,0,0,1,5.44,5.438l-.046,32.1H12.887a1.222,1.222,0,1,0,0,2.445H81.036l0,2.492a5.45,5.45,0,0,1-5.44,5.42H7.885a5.446,5.446,0,0,1-5.44-5.44v-2.472H7.678a1.222,1.222,0,0,0,0-2.445H2.445v-32.1a5.446,5.446,0,0,1,5.44-5.44h22.63a1.222,1.222,0,0,0,0-2.445H7.885A7.893,7.893,0,0,0,0,96.647v37.016a7.893,7.893,0,0,0,7.885,7.885h22.7v8.611l-4,4.96H24.863a1.222,1.222,0,1,0,0,2.444H58.526a1.222,1.222,0,1,0,0-2.444H56.944l-4-4.96v-8.611h22.65a7.9,7.9,0,0,0,7.885-7.859l.053-37.042a7.893,7.893,0,0,0-7.885-7.885ZM50.5,149.369H46.175a1.222,1.222,0,1,0,0,2.444h4.961l2.668,3.306H29.727l2.668-3.306h8.28a1.222,1.222,0,1,0,0-2.444H33.032v-7.82H50.5Z" transform="translate(0 -74.561)"/>
      <path id="Path_881317" data-name="Path 881317" d="M251.222,363.338v-1.023a1.222,1.222,0,1,0-2.445,0v1.023a1.222,1.222,0,1,0,2.445,0Z" transform="translate(-208.235 -302.51)"/>
      <path id="Path_881318" data-name="Path 881318" d="M300.009,154.647h-2.525a4.639,4.639,0,0,0-4.633,4.633v6.272a4.639,4.639,0,0,0,4.633,4.633h20.7a4.639,4.639,0,0,0,4.633-4.633V159.28a4.639,4.639,0,0,0-4.633-4.633H305.218a1.222,1.222,0,1,0,0,2.445h12.967a2.191,2.191,0,0,1,2.189,2.189v6.272a2.191,2.191,0,0,1-2.189,2.189h-20.7a2.191,2.191,0,0,1-2.189-2.189V159.28a2.191,2.191,0,0,1,2.189-2.189h2.525a1.222,1.222,0,0,0,0-2.445Z" transform="translate(-245.125 -129.708)"/>
      <path id="Path_881319" data-name="Path 881319" d="M376.872,197.268a1.222,1.222,0,0,0,0-2.445h-.9a1.222,1.222,0,1,0,0,2.445Z" transform="translate(-313.675 -163.337)"/>
      <path id="Path_881320" data-name="Path 881320" d="M335.361,196.045a1.222,1.222,0,0,0,1.222,1.222h.9a1.222,1.222,0,0,0,0-2.445h-.9A1.222,1.222,0,0,0,335.361,196.045Z" transform="translate(-280.708 -163.337)"/>
      <path id="Path_881321" data-name="Path 881321" d="M417.661,197.268a1.222,1.222,0,1,0,0-2.445h-.9a1.222,1.222,0,0,0,0,2.445Z" transform="translate(-347.816 -163.337)"/>
      <path id="Path_881322" data-name="Path 881322" d="M76.8,21.655v3.838a2.718,2.718,0,0,1-.078.637,16.754,16.754,0,0,0-5.37-3.888V21.212a1.222,1.222,0,0,0-2.445,0v.146a16.539,16.539,0,1,0-4.4,32.491,16.864,16.864,0,0,0,1.767-.093A16.547,16.547,0,0,0,78.408,28.3a5.137,5.137,0,0,0,.834-2.809V21.655a3.964,3.964,0,0,0,0-7.542V2.84a1.222,1.222,0,1,0-2.445,0V14.113a3.964,3.964,0,0,0,0,7.542ZM74.775,39.1a9.077,9.077,0,1,1-2.626-13.639,13.927,13.927,0,0,1,2.364,1.906q.286.323.538.667a2.706,2.706,0,0,1-.978.185,1.222,1.222,0,0,0,0,2.445,5.136,5.136,0,0,0,2.141-.466,9.087,9.087,0,0,1-1.439,8.9ZM53.583,28.451A13.982,13.982,0,0,1,61.8,23.492a11.492,11.492,0,0,0-5.565,8.853l-.026.008a13.151,13.151,0,0,0-5.73,3.961A13.982,13.982,0,0,1,53.583,28.451ZM66.015,51.324A14.086,14.086,0,0,1,50.787,40.382c.094-.209.191-.414.293-.608A10.707,10.707,0,0,1,56.3,34.944a11.5,11.5,0,0,0,11.4,9.963,11.626,11.626,0,0,0,2.227-.22,10.707,10.707,0,0,1-2.362,5.968c-.136.168-.285.336-.438.5-.368.068-.739.127-1.115.166Zm9.475-5.149a14.053,14.053,0,0,1-4.5,3.669A13.135,13.135,0,0,0,72.4,43.911a11.448,11.448,0,0,0,4.275-3.275h0A11.451,11.451,0,0,0,78.623,37.1,13.983,13.983,0,0,1,75.49,46.175Zm2.529-29.811a1.52,1.52,0,1,1-1.52,1.52A1.522,1.522,0,0,1,78.019,16.363Z" transform="translate(-40.178 -1.618)"/>
    </g>
  </g>
</svg>
