<svg id="Group_1103684" data-name="Group 1103684" xmlns="http://www.w3.org/2000/svg" width="80" height="80" viewBox="0 0 80 80">
  <rect id="Rectangle_402033" data-name="Rectangle 402033" width="80" height="80" rx="5" transform="translate(0)" fill="#bfa2f7"/>
  <g id="Group_1105066" data-name="Group 1105066" transform="translate(11.479 11.479)">
    <g id="Group_1105064" data-name="Group 1105064" transform="translate(0.835 0.849)">
      <g id="Group_1105063" data-name="Group 1105063">
        <path id="Path_881664" data-name="Path 881664" d="M220.993,226.134l.608-2.269a.557.557,0,0,0-.144-.538l-1.434-1.434a.557.557,0,0,0-.356-.162l-2.316-.159a.315.315,0,0,1-.293-.293l-.159-2.316a.558.558,0,0,0-.162-.356l-2.405-2.4a.557.557,0,0,0-.356-.162l-2.316-.159a.315.315,0,0,1-.293-.293l-.159-2.316a.557.557,0,0,0-.162-.356l-11.234-11.234-5.2,5.2L221.6,233.872a1.052,1.052,0,0,0,.541.288l5.079,1,1.134.1a.525.525,0,0,0,.617-.617l-1.88-5.425a1.052,1.052,0,0,0-.288-.541l-2.614-2.614a.557.557,0,0,0-.538-.144l-2.269.608a.315.315,0,0,1-.386-.386Z" transform="translate(-173.766 -180.063)" fill="#ffe282"/>
        <path id="Path_881665" data-name="Path 881665" d="M246.411,205.846l-11.234-11.234-1.654,1.654L244.9,207.648l.173,2.524a.315.315,0,0,0,.293.293l2.524.173,2.7,2.7.173,2.524a.315.315,0,0,0,.293.293l2.524.173,1.809,1.809-.691,2.58a.315.315,0,0,0,.386.386l2.58-.691,2.842,2.842a1.051,1.051,0,0,1,.288.541l1,5.079,1.291.253a.525.525,0,0,0,.617-.617l-1.25-6.37a1.051,1.051,0,0,0-.288-.54l-2.614-2.614a.557.557,0,0,0-.538-.144l-2.269.608a.315.315,0,0,1-.386-.386l.608-2.269a.557.557,0,0,0-.144-.538l-1.434-1.434a.557.557,0,0,0-.356-.162l-2.316-.159a.315.315,0,0,1-.293-.293l-.159-2.316a.557.557,0,0,0-.162-.356l-2.405-2.405a.557.557,0,0,0-.356-.162l-2.316-.159a.315.315,0,0,1-.293-.293l-.159-2.316A.556.556,0,0,0,246.411,205.846Z" transform="translate(-208.341 -173.779)" fill="#ffd368"/>
        <path id="Path_881666" data-name="Path 881666" d="M11.454,14.766a13.534,13.534,0,0,0-1.187,1.177A13.237,13.237,0,0,0,23.558,36.977l3.483,3.483a1.051,1.051,0,0,0,1.486,0l7.834-7.834a1.051,1.051,0,0,0,0-1.486l-3.483-3.483A13.224,13.224,0,0,0,29.3,15.475c-5.168-5.168-12.682-5.877-17.85-.709Zm6.276,6.276a2.393,2.393,0,1,1,0-3.384A2.393,2.393,0,0,1,17.73,21.042Z" transform="translate(-7.499 -10.824)" fill="#978ecb"/>
        <g id="Group_1105062" data-name="Group 1105062" transform="translate(2.769)">
          <path id="Path_881667" data-name="Path 881667" d="M33.785,11.17a13.38,13.38,0,0,0-1.434,1.571A13.237,13.237,0,0,1,53.5,25.466a1.12,1.12,0,0,0,.308.984l3.065,3.065a1.051,1.051,0,0,1,0,1.486l2.363-2.363a1.051,1.051,0,0,0,0-1.486l-3.483-3.483a13.236,13.236,0,0,0-21.964-12.5Z" transform="translate(-32.351 -7.623)" fill="#6e61b6"/>
        </g>
      </g>
    </g>
    <g id="Group_1105065" data-name="Group 1105065" transform="translate(0 0)">
      <path id="Path_881668" data-name="Path 881668" d="M61.641,58.413A3.228,3.228,0,1,0,60.7,60.7,3.208,3.208,0,0,0,61.641,58.413Zm-2.127,1.1a1.557,1.557,0,1,1,0-2.2A1.559,1.559,0,0,1,59.514,59.514Z" transform="translate(-49.038 -49.038)"/>
      <path id="Path_881669" data-name="Path 881669" d="M344.748,295.381l-1.25-6.37a1.88,1.88,0,0,0-.517-.971l-2.614-2.615a1.4,1.4,0,0,0-1.345-.36l-1.4.375.375-1.4a1.4,1.4,0,0,0-.361-1.345l-1.434-1.434a1.393,1.393,0,0,0-.889-.4l-1.863-.128-.128-1.863a1.391,1.391,0,0,0-.4-.89l-2.405-2.405a1.393,1.393,0,0,0-.889-.4l-1.863-.128-.128-1.863a1.392,1.392,0,0,0-.4-.89l-1.994-1.994a.836.836,0,0,0-1.182,1.182l1.921,1.921.152,2.212a1.156,1.156,0,0,0,1.069,1.069l2.212.152,2.258,2.258.152,2.212a1.156,1.156,0,0,0,1.069,1.069l2.212.152,1.247,1.247-.566,2.114a1.151,1.151,0,0,0,1.409,1.409l2.114-.566,2.5,2.5a.213.213,0,0,1,.059.111l1.161,5.917-5.917-1.161a.212.212,0,0,1-.11-.059l-7.621-7.62a.836.836,0,1,0-1.182,1.182l7.621,7.621a1.881,1.881,0,0,0,.97.517l6.37,1.25a1.36,1.36,0,0,0,1.6-1.6Z" transform="translate(-287.732 -239.962)"/>
      <path id="Path_881670" data-name="Path 881670" d="M21.272,29.894a.215.215,0,0,1-.3,0l-3.483-3.483a.836.836,0,0,0-.768-.226,12.427,12.427,0,0,1-4.29.176.836.836,0,0,0-.22,1.657,14.1,14.1,0,0,0,4.413-.109l3.167,3.167a1.91,1.91,0,0,0,2.667,0l.725-.725,14.7,14.7a.836.836,0,0,0,1.182-1.182l-14.7-14.7,1.813-1.813L34.321,35.5A.836.836,0,0,0,35.5,34.321l-8.147-8.147,1.813-1.813,4.577,4.577a.836.836,0,0,0,1.182-1.182L30.35,23.179l.725-.725a1.889,1.889,0,0,0,0-2.667L27.909,16.62A14.071,14.071,0,0,0,4.121,4.121,14.079,14.079,0,0,0,8.36,26.934a.836.836,0,0,0,.678-1.528,12.4,12.4,0,1,1,17.148-8.689.836.836,0,0,0,.226.768l3.483,3.483a.215.215,0,0,1,0,.3Z" transform="translate(0 0)"/>
    </g>
  </g>
</svg>
