<svg id="Group_1103681" data-name="Group 1103681" xmlns="http://www.w3.org/2000/svg" width="80" height="80" viewBox="0 0 80 80">
  <rect id="Rectangle_402033" data-name="Rectangle 402033" width="80" height="80" rx="5" transform="translate(0)" fill="#bfa2f7"/>
  <g id="Group_1105070" data-name="Group 1105070" transform="translate(11.68 -13.704)">
    <g id="Group_1105068" data-name="Group 1105068" transform="translate(0.83 29.372)">
      <g id="Group_1105067" data-name="Group 1105067">
        <path id="Path_881671" data-name="Path 881671" d="M170.72,337.891l6.884-2.212,6.884,2.212-.733,1.052,1.518,1.16,2.082,5.864-9.751,2.212-9.751-2.212,2.082-5.864,1.5-1.112Z" transform="translate(-150.114 -302.531)" fill="#978ecb"/>
        <path id="Path_881672" data-name="Path 881672" d="M186.669,340.1h15.339l-.785-2.212-6.884-2.212-6.884,2.212Z" transform="translate(-166.849 -302.531)" fill="#6e61b6"/>
        <path id="Path_881673" data-name="Path 881673" d="M135.207,433.914H104.836a1.106,1.106,0,0,1-1.106-1.106V431.45a2.766,2.766,0,0,1,2.766-2.766h27.052a2.766,2.766,0,0,1,2.766,2.766v1.358a1.106,1.106,0,0,1-1.106,1.106Z" transform="translate(-93.085 -385.248)" fill="#f7f9fa"/>
        <path id="Path_881674" data-name="Path 881674" d="M356.589,428.684H353.27a2.766,2.766,0,0,1,2.766,2.766v1.358a1.106,1.106,0,0,1-1.106,1.106h3.319a1.106,1.106,0,0,0,1.106-1.106V431.45A2.766,2.766,0,0,0,356.589,428.684Z" transform="translate(-315.019 -385.248)" fill="#e9edf1"/>
        <path id="Path_881675" data-name="Path 881675" d="M59.327,71.4a1.659,1.659,0,0,0,1.659-1.659V37.7a1.659,1.659,0,0,0-1.659-1.659H9.159A1.659,1.659,0,0,0,7.5,37.7V69.742A1.659,1.659,0,0,0,9.159,71.4Z" transform="translate(-7.5 -36.042)" fill="#80b6fc"/>
        <path id="Path_881676" data-name="Path 881676" d="M462.819,36.042H459.5a1.659,1.659,0,0,1,1.659,1.659V69.742A1.659,1.659,0,0,1,459.5,71.4h3.319a1.659,1.659,0,0,0,1.659-1.659V37.7A1.659,1.659,0,0,0,462.819,36.042Z" transform="translate(-409.498 -36.042)" fill="#62a4fb"/>
        <path id="Path_881677" data-name="Path 881677" d="M165.449,94.14c0,7.017-4.582,12.6-11.6,12.6-.429,0-.854.089-1.272.048a12.707,12.707,0,0,1-.027-25.283c.427-.043.861.045,1.3.045C160.867,81.545,165.449,87.123,165.449,94.14Z" transform="translate(-126.36 -76.46)" fill="#978ecb"/>
        <path id="Path_881678" data-name="Path 881678" d="M245.772,81q-.644,0-1.272.063a12.707,12.707,0,0,1,0,25.285q.628.062,1.272.063a12.706,12.706,0,0,0,0-25.412Z" transform="translate(-218.282 -76.029)" fill="#6e61b6"/>
        <path id="Path_881679" data-name="Path 881679" d="M212.357,180.2a5.624,5.624,0,0,1-.894.037,5.43,5.43,0,0,1-4.535-5.355v-5.428a.894.894,0,0,1,.894-.894h7.964a.894.894,0,0,1,.894.894v5.428C216.68,177.877,215.355,180.2,212.357,180.2Z" transform="translate(-184.867 -153.898)" fill="#fd8087"/>
        <path id="Path_881680" data-name="Path 881680" d="M253.35,168.556h-1.787a.894.894,0,0,1,.894.894v5.428a5.429,5.429,0,0,1-4.535,5.354,5.426,5.426,0,0,0,6.322-5.354V169.45A.894.894,0,0,0,253.35,168.556Z" transform="translate(-221.325 -153.897)" fill="#fd4755"/>
        <path id="Path_881681" data-name="Path 881681" d="M400.154,131.594h1.114v9.855a.52.52,0,0,0,.52.52h2.6a.52.52,0,0,0,.52-.52v-9.855h1.114a.52.52,0,0,0,.415-.832l-1.361-1.807-1.573-2.088a.52.52,0,0,0-.83,0l-1.573,2.088-1.361,1.807a.52.52,0,0,0,.415.832Z" transform="translate(-356.254 -116.635)" fill="#ffe282"/>
        <path id="Path_881682" data-name="Path 881682" d="M56.3,137.035H55.189V127.18a.52.52,0,0,0-.52-.52h-2.6a.52.52,0,0,0-.52.52v9.855H50.436a.52.52,0,0,0-.415.832l1.361,1.807,1.573,2.088a.52.52,0,0,0,.83,0l1.573-2.088,1.361-1.807A.52.52,0,0,0,56.3,137.035Z" transform="translate(-45.223 -116.635)" fill="#fd8087"/>
      </g>
    </g>
    <g id="Group_1105069" data-name="Group 1105069" transform="translate(0 28.542)">
      <path id="Path_881683" data-name="Path 881683" d="M42.4,73.637a1.938,1.938,0,0,1,1.936,1.936v1.358a.277.277,0,0,1-.277.277H39.789a.83.83,0,0,0,0,1.659h4.269a1.938,1.938,0,0,0,1.936-1.936V75.573a3.6,3.6,0,0,0-3.6-3.6H38.657l-2.278-6.417H54.151a2.492,2.492,0,0,0,2.489-2.489V31.031a2.492,2.492,0,0,0-2.489-2.489H45.767a.83.83,0,0,0,0,1.659h8.384a.831.831,0,0,1,.83.83V63.072a.831.831,0,0,1-.83.83H2.489a.831.831,0,0,1-.83-.83V31.031a.831.831,0,0,1,.83-.83H42.123a.83.83,0,0,0,0-1.659H2.489A2.492,2.492,0,0,0,0,31.031V63.072a2.492,2.492,0,0,0,2.489,2.489H20.261l-2.278,6.417H14.241a3.6,3.6,0,0,0-3.6,3.6v1.358a1.938,1.938,0,0,0,1.936,1.936H36.173a.83.83,0,1,0,0-1.659H12.581a.277.277,0,0,1-.277-.277V75.573a1.938,1.938,0,0,1,1.936-1.936Zm-5.5-1.659H19.744l2.278-6.417h12.6Z" transform="translate(0 -28.542)"/>
      <path id="Path_881684" data-name="Path 881684" d="M205.687,109.442A4.562,4.562,0,0,0,201.131,114v1.154a1.725,1.725,0,0,0-1.7,1.722V122.3a6.258,6.258,0,1,0,12.516,0v-5.428a1.725,1.725,0,0,0-1.7-1.722V114A4.562,4.562,0,0,0,205.687,109.442Zm0,1.659a2.9,2.9,0,0,1,2.9,2.9v1.153H202.79V114A2.9,2.9,0,0,1,205.687,111.1Zm4.6,5.774V122.3a4.6,4.6,0,1,1-9.2,0v-5.428a.064.064,0,0,1,.064-.064h9.07A.064.064,0,0,1,210.286,116.875Z" transform="translate(-177.367 -100.492)"/>
      <path id="Path_881685" data-name="Path 881685" d="M246.85,202.8a1.162,1.162,0,1,0-1.122,0l-.631,1.469a.19.19,0,0,0,.174.265h2.035a.19.19,0,0,0,.174-.265Z" transform="translate(-217.97 -181.585)"/>
      <path id="Path_881686" data-name="Path 881686" d="M138.719,96.554a.83.83,0,0,0,.144,1.164,13.4,13.4,0,0,0,8.317,2.856,13.533,13.533,0,1,0-10.988-5.63.83.83,0,1,0,1.346-.97,11.877,11.877,0,1,1,2.346,2.436A.829.829,0,0,0,138.719,96.554Z" transform="translate(-118.86 -68.529)"/>
      <path id="Path_881687" data-name="Path 881687" d="M393.482,125.754h.285v9.026a1.351,1.351,0,0,0,1.349,1.349h2.6a1.351,1.351,0,0,0,1.349-1.349v-9.026h.285a1.349,1.349,0,0,0,1.078-2.161l-2.933-3.9a1.349,1.349,0,0,0-2.156,0l-2.934,3.9a1.349,1.349,0,0,0,1.078,2.161Zm2.934-4.73,2.312,3.071h-.493a.83.83,0,0,0-.83.83v9.545h-1.979v-9.545a.83.83,0,0,0-.83-.83H394.1Z" transform="translate(-348.752 -109.135)"/>
      <path id="Path_881688" data-name="Path 881688" d="M48,119.159H45.4a1.351,1.351,0,0,0-1.349,1.349v9.025h-.285a1.349,1.349,0,0,0-1.078,2.161l2.934,3.9a1.338,1.338,0,0,0,1.078.538h0a1.339,1.339,0,0,0,1.078-.538l2.934-3.9a1.349,1.349,0,0,0-1.078-2.161h-.285v-9.026A1.351,1.351,0,0,0,48,119.159Zm-1.3,15.105-2.312-3.071h.493a.83.83,0,0,0,.83-.83v-9.545h1.979v9.545a.83.83,0,0,0,.83.83h.493Z" transform="translate(-37.721 -109.135)"/>
    </g>
  </g>
</svg>
