<svg xmlns="http://www.w3.org/2000/svg" width="40" height="40.078" viewBox="0 0 40 40.078">
  <path id="Path_882145" data-name="Path 882145" d="M9.719,7.734A1.563,1.563,0,1,1,8.156,6.172,1.562,1.562,0,0,1,9.719,7.734ZM22.844,26.172a1.562,1.562,0,0,1-1.562,1.563h-5.7v5.234a1.563,1.563,0,0,1-3.125,0V27.734H6.75a3.129,3.129,0,0,0-3.125,3.125V33.75A3.129,3.129,0,0,0,6.75,36.875H19.875a1.563,1.563,0,0,1,0,3.125H6.75A6.257,6.257,0,0,1,.5,33.75V30.859a6.236,6.236,0,0,1,2.123-4.687A6.236,6.236,0,0,1,.5,21.484V18.516a6.236,6.236,0,0,1,2.123-4.687A6.236,6.236,0,0,1,.5,9.141V6.25A6.257,6.257,0,0,1,6.75,0H31.125a6.257,6.257,0,0,1,6.25,6.25V10.7a4.678,4.678,0,0,1-1.657,3.572,6.278,6.278,0,0,1,.936,1.323,1.563,1.563,0,0,1-2.763,1.461,3.122,3.122,0,0,0-2.766-1.668H15.578V20.7a1.562,1.562,0,0,1-3.125,0V15.391H6.75a3.129,3.129,0,0,0-3.125,3.125v2.969A3.129,3.129,0,0,0,6.75,24.609H21.281a1.562,1.562,0,0,1,1.563,1.563ZM6.75,12.266H32.688A1.564,1.564,0,0,0,34.25,10.7V6.25a3.129,3.129,0,0,0-3.125-3.125H15.578V8.359a1.563,1.563,0,0,1-3.125,0V3.125H6.75A3.129,3.129,0,0,0,3.625,6.25V9.141A3.129,3.129,0,0,0,6.75,12.266ZM6.594,32.344a1.563,1.563,0,1,0,1.563-1.562A1.562,1.562,0,0,0,6.594,32.344ZM6.594,20a1.563,1.563,0,1,0,1.563-1.562A1.562,1.562,0,0,0,6.594,20ZM40.5,30.7v7.813a1.562,1.562,0,0,1-1.562,1.563H25.813a1.562,1.562,0,0,1-1.562-1.562V30.7a3.911,3.911,0,0,1,3.438-3.877V24.844a4.688,4.688,0,0,1,9.375,0v1.982A3.911,3.911,0,0,1,40.5,30.7Zm-9.687-5.859V26.8h3.125V24.844a1.563,1.563,0,0,0-3.125,0ZM37.375,30.7a.782.782,0,0,0-.781-.781H28.156a.782.782,0,0,0-.781.781v6.25h10Z" transform="translate(-0.5)" fill="#4dceff"/>
</svg>
