<svg xmlns="http://www.w3.org/2000/svg" width="100" height="100" viewBox="0 0 100 100">
  <g id="Group_1100965" data-name="Group 1100965" transform="translate(0.242)">
    <g id="Group_1098742" data-name="Group 1098742" transform="translate(0)">
      <rect id="Rectangle_400898" data-name="Rectangle 400898" width="100" height="100" rx="50" transform="translate(-0.242)" fill="#fff" opacity="0.859"/>
      <g id="Rectangle_400907" data-name="Rectangle 400907" transform="translate(-0.242)" fill="none" stroke="#6018ec" stroke-linecap="round" stroke-width="2" stroke-dasharray="7">
        <rect width="100" height="100" rx="50" stroke="none"/>
        <rect x="1" y="1" width="98" height="98" rx="49" fill="none"/>
      </g>
    </g>
    <g id="Group_1105040" data-name="Group 1105040" transform="translate(21.586 21.828)">
      <g id="Group_1105031" data-name="Group 1105031" transform="translate(21.447 37.05)">
        <path id="Path_881548" data-name="Path 881548" d="M195.154,349.442l5.188,5.188a1.779,1.779,0,0,0,2.515,0l5.188-5.188a.889.889,0,0,0,0-1.258l-1.258-1.258a.889.889,0,0,0-1.258,0l-2.152,2.152V337.572a.889.889,0,0,0-.889-.889H200.71a.889.889,0,0,0-.889.889v11.505l-2.152-2.152a.889.889,0,0,0-1.258,0l-1.258,1.258A.89.89,0,0,0,195.154,349.442Z" transform="translate(-194.894 -336.683)" fill="#fe5ca7"/>
      </g>
      <g id="Group_1105032" data-name="Group 1105032" transform="translate(39.306 32.84)">
        <path id="Path_881549" data-name="Path 881549" d="M357.439,311.185l5.188,5.188a1.779,1.779,0,0,0,2.515,0l5.188-5.188a.889.889,0,0,0,0-1.258l-1.258-1.258a.889.889,0,0,0-1.258,0l-2.152,2.152V299.315a.889.889,0,0,0-.889-.889H363a.889.889,0,0,0-.889.889v11.505l-2.152-2.152a.889.889,0,0,0-1.258,0l-1.258,1.258A.889.889,0,0,0,357.439,311.185Z" transform="translate(-357.179 -298.426)" fill="#fe3d97"/>
      </g>
      <g id="Group_1105033" data-name="Group 1105033" transform="translate(3.625 32.84)">
        <path id="Path_881550" data-name="Path 881550" d="M46.095,311.185l-5.188,5.188a1.779,1.779,0,0,1-2.515,0L33.2,311.185a.889.889,0,0,1,0-1.258l1.258-1.258a.889.889,0,0,1,1.258,0l2.152,2.152V299.315a.889.889,0,0,1,.889-.889h1.779a.889.889,0,0,1,.889.889v11.505l2.152-2.152a.889.889,0,0,1,1.258,0l1.258,1.258A.889.889,0,0,1,46.095,311.185Z" transform="translate(-32.943 -298.426)" fill="#fe7ab6"/>
      </g>
      <g id="Group_1105039" data-name="Group 1105039" transform="translate(0 0)">
        <g id="Group_1105034" data-name="Group 1105034" transform="translate(0.825 0.825)">
          <path id="Path_881551" data-name="Path 881551" d="M59.969,39.515H9.723A2.223,2.223,0,0,1,7.5,37.292V9.723A2.223,2.223,0,0,1,9.723,7.5H59.969a2.223,2.223,0,0,1,2.223,2.223V37.292a2.223,2.223,0,0,1-2.223,2.223Z" transform="translate(-7.5 -7.5)" fill="#bbec6c"/>
        </g>
        <g id="Group_1105035" data-name="Group 1105035" transform="translate(50.182 0.825)">
          <path id="Path_881552" data-name="Path 881552" d="M459.125,7.5h-3.113a2.223,2.223,0,0,1,2.223,2.223V37.292a2.223,2.223,0,0,1-2.223,2.223h3.113a2.223,2.223,0,0,0,2.223-2.223V9.723A2.223,2.223,0,0,0,459.125,7.5Z" transform="translate(-456.012 -7.5)" fill="#a2e62e"/>
        </g>
        <g id="Group_1105036" data-name="Group 1105036" transform="translate(4.383 4.383)">
          <path id="Path_881553" data-name="Path 881553" d="M44.716,64.726a4.891,4.891,0,0,0-4.891-4.891V44.716a4.891,4.891,0,0,0,4.891-4.891H82.475a4.891,4.891,0,0,0,4.891,4.891V59.834a4.891,4.891,0,0,0-4.891,4.891H44.716Z" transform="translate(-39.825 -39.825)" fill="#8bc727"/>
        </g>
        <g id="Group_1105037" data-name="Group 1105037" transform="translate(17.722 6.383)">
          <circle id="Ellipse_11774" data-name="Ellipse 11774" cx="10.449" cy="10.449" r="10.449" fill="#d1f19e"/>
        </g>
        <g id="Group_1105038" data-name="Group 1105038" transform="translate(0)">
          <path id="Path_881554" data-name="Path 881554" d="M339.341,57.226h-9.2a.825.825,0,1,0,0,1.651h9.968a.825.825,0,0,0,.825-.825A4.07,4.07,0,0,1,345,53.985a.825.825,0,0,0,.825-.825V38.041a.825.825,0,0,0-.825-.825,4.07,4.07,0,0,1-4.066-4.066.825.825,0,0,0-.825-.825h-9.968a.825.825,0,1,0,0,1.651h9.2a5.731,5.731,0,0,0,4.832,4.832V52.394A5.73,5.73,0,0,0,339.341,57.226Z" transform="translate(-293.075 -28.768)"/>
          <path id="Path_881555" data-name="Path 881555" d="M48.343,32.325H38.374a.825.825,0,0,0-.825.825,4.07,4.07,0,0,1-4.066,4.066.825.825,0,0,0-.825.825V53.16a.825.825,0,0,0,.825.825,4.07,4.07,0,0,1,4.066,4.066.825.825,0,0,0,.825.825h9.968a.825.825,0,0,0,0-1.651h-9.2a5.731,5.731,0,0,0-4.832-4.832V38.807a5.731,5.731,0,0,0,4.832-4.832h9.2a.825.825,0,0,0,0-1.651Z" transform="translate(-29.064 -28.768)"/>
          <path id="Path_881556" data-name="Path 881556" d="M226.519,87.911c-.2-.072-.4-.147-.595-.223V84.045a2.845,2.845,0,0,1,.839.452.825.825,0,0,0,1.08-1.248,4.641,4.641,0,0,0-1.919-.914v-.7a.825.825,0,1,0-1.651,0v.655a4.534,4.534,0,0,0-.562.13,3.139,3.139,0,0,0-2.3,2.608,2.9,2.9,0,0,0,1.25,2.87,14.574,14.574,0,0,0,1.607.875v4.634a3.123,3.123,0,0,1-1.718-.638.825.825,0,0,0-.9,1.381,4.745,4.745,0,0,0,2.622.909v.8a.825.825,0,0,0,1.651,0v-.892a3.886,3.886,0,0,0,2.943-3.161A3.411,3.411,0,0,0,226.519,87.911Zm-2.245-.982q-.376-.2-.726-.423a1.272,1.272,0,0,1-.5-1.251A1.5,1.5,0,0,1,224.187,84l.087-.024Zm2.966,4.612a2.275,2.275,0,0,1-1.315,1.7V89.451l.045.016A1.789,1.789,0,0,1,227.239,91.541Z" transform="translate(-196.928 -71.92)"/>
          <path id="Path_881557" data-name="Path 881557" d="M164.82,50.508a11.275,11.275,0,1,0,11.275,11.275A11.287,11.287,0,0,0,164.82,50.508Zm0,20.9a9.624,9.624,0,1,1,9.624-9.624A9.635,9.635,0,0,1,164.82,71.407Z" transform="translate(-136.648 -44.95)"/>
          <path id="Path_881558" data-name="Path 881558" d="M53.295,0H13.015a.825.825,0,0,0,0,1.651h40.28a1.4,1.4,0,0,1,1.4,1.4V30.617a1.4,1.4,0,0,1-1.4,1.4H3.048a1.4,1.4,0,0,1-1.4-1.4V3.048a1.4,1.4,0,0,1,1.4-1.4H9.163A.825.825,0,0,0,9.163,0H3.048A3.052,3.052,0,0,0,0,3.048V30.617a3.052,3.052,0,0,0,3.048,3.049H7.73c0,.021,0,.042,0,.064v9.513L6.985,42.5A1.7,1.7,0,0,0,5.772,42h0a1.7,1.7,0,0,0-1.211.5L3.3,43.757a1.714,1.714,0,0,0,0,2.426L8.49,51.371a2.608,2.608,0,0,0,3.682,0l5.188-5.187a1.714,1.714,0,0,0,0-2.425L16.1,42.5A1.7,1.7,0,0,0,14.89,42h0a1.7,1.7,0,0,0-1.211.5l-.744.743V41.677a.825.825,0,0,0-1.651,0v3.558a.825.825,0,0,0,1.409.584l2.153-2.152a.059.059,0,0,1,.044-.018h0a.062.062,0,0,1,.045.019l1.258,1.259a.059.059,0,0,1,.018.044.062.062,0,0,1-.019.046L11,50.2a.955.955,0,0,1-1.348,0L4.469,45.015a.062.062,0,0,1-.019-.046.059.059,0,0,1,.019-.045l1.259-1.259a.059.059,0,0,1,.044-.018h0a.062.062,0,0,1,.046.019l2.151,2.151a.825.825,0,0,0,1.409-.584V33.73a.063.063,0,0,1,.064-.064H11.22a.063.063,0,0,1,.064.064v4.1a.825.825,0,0,0,1.651,0v-4.1c0-.022,0-.042,0-.064h30.48c0,.021,0,.042,0,.064v2.794a.825.825,0,1,0,1.651,0V33.73a.063.063,0,0,1,.064-.064H46.9a.063.063,0,0,1,.064.064V45.235a.825.825,0,0,0,1.409.584l2.151-2.151a.062.062,0,0,1,.046-.019h0a.059.059,0,0,1,.045.019l1.259,1.259a.059.059,0,0,1,.018.044.061.061,0,0,1-.019.046L46.686,50.2a.955.955,0,0,1-1.349,0L40.15,45.015a.062.062,0,0,1-.019-.046.06.06,0,0,1,.019-.045l1.256-1.258a.062.062,0,0,1,.046-.019h0a.06.06,0,0,1,.045.019l2.152,2.151a.825.825,0,0,0,1.409-.584V40.375a.825.825,0,1,0-1.651,0v2.868l-.743-.742a1.7,1.7,0,0,0-1.212-.5h0a1.7,1.7,0,0,0-1.213.5l-1.255,1.257a1.714,1.714,0,0,0,0,2.426L44.17,51.37a2.608,2.608,0,0,0,3.683,0l5.188-5.188a1.714,1.714,0,0,0,0-2.425L51.784,42.5a1.7,1.7,0,0,0-1.212-.5h0a1.7,1.7,0,0,0-1.213.5l-.742.742V33.73c0-.022,0-.042,0-.064h4.682a3.052,3.052,0,0,0,3.048-3.049V3.048A3.052,3.052,0,0,0,53.295,0Z" transform="translate(0 0)"/>
          <path id="Path_881559" data-name="Path 881559" d="M200.7,339.669a1.717,1.717,0,0,0-2.425,0l-.743.743V330.9a1.716,1.716,0,0,0-1.715-1.715h-1.779a1.716,1.716,0,0,0-1.715,1.715v9.513l-.743-.743a1.715,1.715,0,0,0-2.425,0l-1.258,1.258a1.715,1.715,0,0,0,0,2.425l5.188,5.188a2.6,2.6,0,0,0,3.683,0l5.188-5.188a1.715,1.715,0,0,0,0-2.425Zm.09,2.515-5.188,5.188a.953.953,0,0,1-1.348,0l-5.188-5.188a.064.064,0,0,1,0-.09l1.258-1.258a.064.064,0,0,1,.09,0l2.152,2.152a.825.825,0,0,0,1.409-.584V330.9a.064.064,0,0,1,.064-.064h1.779a.064.064,0,0,1,.064.064V342.4a.825.825,0,0,0,1.409.584l2.152-2.152a.064.064,0,0,1,.09,0l1.258,1.258a.064.064,0,0,1,0,.09Z" transform="translate(-166.772 -292.959)"/>
        </g>
      </g>
    </g>
  </g>
</svg>
