<svg id="Group_1103624" data-name="Group 1103624" xmlns="http://www.w3.org/2000/svg" width="122.486" height="122.486" viewBox="0 0 122.486 122.486">
  <rect id="Rectangle_402033" data-name="Rectangle 402033" width="122.486" height="122.486" rx="5" transform="translate(0)" fill="#bfa2f7"/>
  <g id="Group_1104970" data-name="Group 1104970" transform="translate(18.824 12.104)">
    <g id="Group_1104968" data-name="Group 1104968" transform="translate(1.241 9.295)">
      <g id="Group_1104967" data-name="Group 1104967" transform="translate(0 0)">
        <path id="Path_881382" data-name="Path 881382" d="M191.653,387.458V372.729H171.431v14.729l-4.713,5.84h29.648Z" transform="translate(-140.364 -313.609)" fill="#baafb9"/>
        <g id="XMLID_222_" transform="translate(0 12.295)">
          <g id="Group_1104965" data-name="Group 1104965">
            <path id="Path_881383" data-name="Path 881383" d="M191.653,372.729H171.431v14.729l-4.713,5.84h5.088l3.638-4.508a4.847,4.847,0,0,0,1.075-3.044v-2.881a2.521,2.521,0,0,1,2.521-2.521h12.613v-7.615Z" transform="translate(-140.364 -325.904)" fill="#aa9ea9"/>
            <path id="Path_881384" data-name="Path 881384" d="M89.776,293.668l-7.541-8.235H17.718L7.5,293.668v3.752a6.768,6.768,0,0,0,6.766,6.766H83.033a6.767,6.767,0,0,0,6.766-6.743l0-3.776Z" transform="translate(-7.498 -253.057)" fill="#baafb9"/>
            <path id="Path_881385" data-name="Path 881385" d="M89.853,96.6l-.05,33.844H7.5V96.6a6.767,6.767,0,0,1,6.766-6.766H83.087A6.767,6.767,0,0,1,89.853,96.6Z" transform="translate(-7.497 -89.833)" fill="#f9f7f8"/>
          </g>
        </g>
        <path id="Path_881386" data-name="Path 881386" d="M115.931,129.806A27.782,27.782,0,0,0,140.9,89.832H90.96a27.782,27.782,0,0,0,24.971,39.974Z" transform="translate(-74.794 -77.537)" fill="#efedef"/>
        <circle id="Ellipse_11769" data-name="Ellipse 11769" cx="24.479" cy="24.479" r="24.479" transform="translate(16.659)" fill="#b3dafe"/>
        <path id="Path_881387" data-name="Path 881387" d="M218.609,89.356h3.513a1.792,1.792,0,0,0,1.792-1.792V85.684A28.125,28.125,0,0,0,209.93,61.355a2.115,2.115,0,0,0-1.639-.2l-5.3,1.5-4.469,7.011,14.571,17.8Z" transform="translate(-166.901 -53.536)" fill="#e5e1e5"/>
        <g id="XMLID_224_" transform="translate(22.362 6.914)">
          <g id="Group_1104966" data-name="Group 1104966">
            <path id="Path_881388" data-name="Path 881388" d="M172.284,82.559v3.673H148.416a5.593,5.593,0,0,1,2.845-4.871l2.14-1.21a.975.975,0,0,0,.338-.314l2.029-3.079a.3.3,0,0,0-.215-.467l-5.48-.677a.7.7,0,0,0-.291.028l-2.337.756a3.5,3.5,0,0,1-3.964-1.346l-.263-.382a3.5,3.5,0,0,1,.432-4.486l7.616-7.48,1.678-4.835a.81.81,0,0,1,1.326-.318l3.443,3.305,2.405,1.3a23.194,23.194,0,0,1,12.167,20.4Z" transform="translate(-142.6 -57.326)" fill="#f9f7f8"/>
          </g>
        </g>
      </g>
    </g>
    <g id="Group_1104969" data-name="Group 1104969" transform="translate(0 8.053)">
      <path id="Path_881389" data-name="Path 881389" d="M76.83,82.328H69.181a1.241,1.241,0,0,0,0,2.483H76.83a5.531,5.531,0,0,1,5.525,5.523l-.047,32.6H75.623a1.241,1.241,0,1,0,0,2.483h6.682l0,2.531a5.536,5.536,0,0,1-5.525,5.506H8.008a5.531,5.531,0,0,1-5.525-5.525v-2.511h67.85a1.241,1.241,0,1,0,0-2.483H2.483v-32.6a5.531,5.531,0,0,1,5.525-5.525h7.568a1.241,1.241,0,1,0,0-2.483H8.008A8.017,8.017,0,0,0,0,90.336v37.6a8.017,8.017,0,0,0,8.008,8.008H31.067v8.746L27,149.724H25.253a1.241,1.241,0,1,0,0,2.483H59.443a1.241,1.241,0,1,0,0-2.483H57.837l-4.065-5.037V135.94H76.777a8.024,8.024,0,0,0,8.008-7.982l.054-37.622a8.017,8.017,0,0,0-8.008-8.008ZM51.289,143.883H46.9a1.241,1.241,0,1,0,0,2.483h5.038l2.71,3.357H30.192l2.71-3.357h8.41a1.241,1.241,0,1,0,0-2.483H33.55V135.94H51.289v7.943Z" transform="translate(0 -70.034)"/>
      <path id="Path_881390" data-name="Path 881390" d="M248.777,355.9v1.038a1.241,1.241,0,0,0,2.483,0V355.9a1.241,1.241,0,0,0-2.483,0Z" transform="translate(-207.599 -297.288)"/>
      <path id="Path_881391" data-name="Path 881391" d="M126.363,59.493A25.72,25.72,0,1,0,109.5,14.356a1.241,1.241,0,0,0,1.629,1.874,23.226,23.226,0,1,1-3.417,3.686,1.241,1.241,0,1,0-1.992-1.482,25.721,25.721,0,0,0,20.646,41.06Z" transform="translate(-83.985 -8.053)"/>
      <path id="Path_881392" data-name="Path 881392" d="M156.177,52.931a26.887,26.887,0,0,1,12.094,14.593,1.241,1.241,0,1,0,2.347-.808,29.369,29.369,0,0,0-13.21-15.941,2.831,2.831,0,0,0-2.162-.267l-4.845,1.37L148.858,50.4a2.052,2.052,0,0,0-3.359.807l-1.584,4.561-7.408,7.275a4.736,4.736,0,0,0-.584,6.075l.263.382a4.774,4.774,0,0,0,5.369,1.824l2.218-.718,3.855.475-1.163,1.764L144.38,74.02a6.839,6.839,0,0,0-3.354,4.711h-.594a1.241,1.241,0,1,0,0,2.483h30.547a1.241,1.241,0,0,0,1.241-1.241V76.3a29.6,29.6,0,0,0-.305-4.212,1.241,1.241,0,1,0-2.457.354,27.139,27.139,0,0,1,.279,3.858v2.431h-2.483V76.3a24.406,24.406,0,0,0-12.82-21.5l-1.806-.976,3.293-.931a.335.335,0,0,1,.255.034Zm8.6,23.369v2.431h-21.2a4.357,4.357,0,0,1,2.03-2.549l2.141-1.209a2.232,2.232,0,0,0,.764-.713l2.03-3.079a1.544,1.544,0,0,0-1.1-2.383l-5.482-.676a1.924,1.924,0,0,0-.824.079l-2.337.756a2.275,2.275,0,0,1-2.559-.87l-.263-.382a2.258,2.258,0,0,1,.278-2.9l7.615-7.479a1.24,1.24,0,0,0,.3-.479l1.458-4.2,2.958,2.839a1.242,1.242,0,0,0,.27.2l2.4,1.3A21.927,21.927,0,0,1,164.772,76.3Z" transform="translate(-112.726 -42.911)"/>
      <path id="Path_881393" data-name="Path 881393" d="M192.314,115.123l-.756.52a1.242,1.242,0,1,0,1.407,2.046l.756-.52a1.241,1.241,0,1,0-1.407-2.046Z" transform="translate(-159.402 -97.218)"/>
    </g>
  </g>
</svg>
