<svg xmlns="http://www.w3.org/2000/svg" width="100" height="100" viewBox="0 0 100 100">
  <g id="Group_1100965" data-name="Group 1100965" transform="translate(0.242)">
    <g id="Group_1098742" data-name="Group 1098742" transform="translate(0)">
      <rect id="Rectangle_400898" data-name="Rectangle 400898" width="100" height="100" rx="50" transform="translate(-0.242)" fill="#fff" opacity="0.859"/>
      <g id="Rectangle_400907" data-name="Rectangle 400907" transform="translate(-0.242)" fill="none" stroke="#6018ec" stroke-linecap="round" stroke-width="2" stroke-dasharray="7">
        <rect width="100" height="100" rx="50" stroke="none"/>
        <rect x="1" y="1" width="98" height="98" rx="49" fill="none"/>
      </g>
    </g>
    <g id="Page-1" transform="translate(21.749 21.491)">
      <g id="_019---Confidential-Documents" data-name="019---Confidential-Documents" transform="translate(0 0)">
        <g id="Icons_copy" transform="translate(0.95 0.95)">
          <path id="Shape" d="M6,36.111V1.9A1.906,1.906,0,0,1,7.9,0H32.608l11.4,11.4V36.111Z" transform="translate(-0.298)" fill="#9e9e9e"/>
          <path id="Shape-2" data-name="Shape" d="M33.851,0H31L42.4,11.4V36.111h2.851V11.4Z" transform="translate(-1.541)" fill="#707070"/>
          <path id="Shape-3" data-name="Shape" d="M38.012,55.415V17.4L26.608,6H1.9A1.906,1.906,0,0,0,0,7.9V53.515a1.906,1.906,0,0,0,1.9,1.9Z" transform="translate(0 -0.298)" fill="#f5f5f5"/>
          <path id="Shape-4" data-name="Shape" d="M27.851,6H25L36.4,17.4V55.415h2.851V17.4Z" transform="translate(-1.243 -0.298)" fill="#cfd8dc"/>
          <path id="Shape-5" data-name="Shape" d="M28,15.5V6L39.4,17.4H29.9A1.9,1.9,0,0,1,28,15.5Z" transform="translate(-1.392 -0.298)" fill="#cfd8dc"/>
          <path id="Shape-6" data-name="Shape" d="M56.807,40.851v13.3a2.851,2.851,0,0,1-2.851,2.851H36.851A2.851,2.851,0,0,1,34,54.155v-13.3a2.82,2.82,0,0,1,1.9-2.68,2.634,2.634,0,0,1,.95-.171H53.956a2.634,2.634,0,0,1,.95.171A2.82,2.82,0,0,1,56.807,40.851Z" transform="translate(-1.69 -1.889)" fill="#ffeb3a"/>
          <path id="Shape-7" data-name="Shape" d="M55.8,38.171a2.634,2.634,0,0,0-.95-.171H52a2.634,2.634,0,0,1,.95.171,2.82,2.82,0,0,1,1.9,2.68v13.3A2.851,2.851,0,0,1,52,57.006h2.851A2.851,2.851,0,0,0,57.7,54.155v-13.3A2.82,2.82,0,0,0,55.8,38.171Z" transform="translate(-2.585 -1.889)" fill="#fdd834"/>
          <path id="Shape-8" data-name="Shape" d="M48.661,45.358a2.823,2.823,0,0,1-.909,2.611V50.6a1.9,1.9,0,1,1-3.8,0V47.969A2.794,2.794,0,0,1,43,45.85a2.851,2.851,0,0,1,5.661-.492Z" transform="translate(-2.137 -2.137)" fill="sienna"/>
          <path id="Shape-9" data-name="Shape" d="M55.006,33.5v3.972a2.634,2.634,0,0,0-.95-.171H51.2V33.5a5.7,5.7,0,1,0-11.4,0v3.8H36.95a2.634,2.634,0,0,0-.95.171V33.5a9.5,9.5,0,1,1,19.006,0Z" transform="translate(-1.789 -1.193)" fill="#9e9e9e"/>
          <path id="Shape-10" data-name="Shape" d="M52.644,26.785A9.35,9.35,0,0,0,44.5,24.124,9.482,9.482,0,0,1,52.577,33.5v3.8h1.9a2.634,2.634,0,0,1,.95.171V33.5A9.473,9.473,0,0,0,52.644,26.785Z" transform="translate(-2.212 -1.193)" fill="#707070"/>
          <path id="Shape-11" data-name="Shape" d="M23.006,20.5A9.462,9.462,0,0,1,19.2,28.1a5.7,5.7,0,0,0-3.687-5.322,3.8,3.8,0,1,0-4.029,0A5.7,5.7,0,0,0,7.8,28.1a9.5,9.5,0,1,1,15.2-7.593Z" transform="translate(-0.199 -0.546)" fill="#0377bc"/>
          <path id="Shape-12" data-name="Shape" d="M19.4,28.712v.01a9.5,9.5,0,0,1-11.4,0v-.01a5.7,5.7,0,0,1,3.687-5.322,3.791,3.791,0,0,0,4.029,0A5.7,5.7,0,0,1,19.4,28.712Z" transform="translate(-0.398 -1.163)" fill="#60a917"/>
          <path id="Shape-13" data-name="Shape" d="M17.6,19.8a3.8,3.8,0,1,1-3.1-3.737A3.8,3.8,0,0,1,17.6,19.8Z" transform="translate(-0.497 -0.795)" fill="#ffe0b2"/>
        </g>
        <g id="Icons">
          <path id="Shape-14" data-name="Shape" d="M2.851,57.018H30.105a.95.95,0,0,0,0-1.9H2.851a.95.95,0,0,1-.95-.95V8.553a.95.95,0,0,1,.95-.95H26.608v8.553a2.851,2.851,0,0,0,2.851,2.851h8.553v2.233a.95.95,0,1,0,1.9,0V18.056a1.039,1.039,0,0,0-.278-.672L28.23,5.98a1.04,1.04,0,0,0-.672-.278H7.6V2.851a.95.95,0,0,1,.95-.95H32.867L43.713,12.747v7.209a.95.95,0,1,0,1.9,0v-7.6a.95.95,0,0,0-.278-.672L33.932.278A.95.95,0,0,0,33.26,0H8.553A2.851,2.851,0,0,0,5.7,2.851V5.7H2.851A2.851,2.851,0,0,0,0,8.553V54.167A2.851,2.851,0,0,0,2.851,57.018ZM36.668,17.105H29.459a.95.95,0,0,1-.95-.95V8.946Z" transform="translate(0 0)"/>
          <path id="Shape-15" data-name="Shape" d="M56.807,37.832V34.453a10.453,10.453,0,1,0-20.906,0v3.379A3.789,3.789,0,0,0,34,41.105v13.3a3.8,3.8,0,0,0,3.8,3.8H54.906a3.8,3.8,0,0,0,3.8-3.8v-13.3A3.789,3.789,0,0,0,56.807,37.832ZM37.8,34.453a8.553,8.553,0,1,1,17.105,0V37.3h-1.9V34.453a6.652,6.652,0,1,0-13.3,0V37.3H37.8ZM41.6,37.3V34.453a4.751,4.751,0,1,1,9.5,0V37.3Zm15.2,17.105a1.9,1.9,0,0,1-1.9,1.9H37.8a1.9,1.9,0,0,1-1.9-1.9v-13.3a1.9,1.9,0,0,1,1.9-1.9H54.906a1.9,1.9,0,0,1,1.9,1.9Z" transform="translate(-1.69 -1.193)"/>
          <path id="Shape-16" data-name="Shape" d="M47.51,43.065a3.8,3.8,0,0,0-3.56,6.25v2.238a2.851,2.851,0,0,0,5.7,0V49.316a3.8,3.8,0,0,0-2.142-6.251Zm.57,5.139a.95.95,0,0,0-.329.717v2.632a.95.95,0,0,1-1.9,0V48.92a.95.95,0,0,0-.326-.717,1.852,1.852,0,0,1-.624-1.4,1.9,1.9,0,0,1,.682-1.461A1.877,1.877,0,0,1,46.8,44.9a2.072,2.072,0,0,1,.372.034,1.907,1.907,0,0,1,1.5,1.527,1.88,1.88,0,0,1-.6,1.742Z" transform="translate(-2.137 -2.137)"/>
          <path id="Shape-17" data-name="Shape" d="M8.072,29.713c.023.023.052.037.078.058a10.379,10.379,0,0,0,12.664-.042l.015-.011a10.453,10.453,0,1,0-12.757,0ZM9.738,28.58a4.751,4.751,0,0,1,2.682-3.8,4.59,4.59,0,0,0,4.067,0,4.751,4.751,0,0,1,2.681,3.8,8.517,8.517,0,0,1-9.43,0Zm4.715-5.227A2.851,2.851,0,1,1,17.3,20.5,2.851,2.851,0,0,1,14.453,23.353Zm0-10.453A8.538,8.538,0,0,1,20.82,27.147,6.684,6.684,0,0,0,18.1,23.515a4.753,4.753,0,1,0-7.29,0,6.684,6.684,0,0,0-2.724,3.632A8.538,8.538,0,0,1,14.453,12.9Z" transform="translate(-0.199 -0.546)"/>
          <path id="Shape-18" data-name="Shape" d="M26.807,36H4.95a.95.95,0,0,0,0,1.9H26.807a.95.95,0,0,0,0-1.9Z" transform="translate(-0.199 -1.789)"/>
          <path id="Shape-19" data-name="Shape" d="M26.807,41H4.95a.95.95,0,0,0,0,1.9H26.807a.95.95,0,0,0,0-1.9Z" transform="translate(-0.199 -2.038)"/>
          <path id="Shape-20" data-name="Shape" d="M27.757,46.95a.95.95,0,0,0-.95-.95H4.95a.95.95,0,1,0,0,1.9H26.807A.95.95,0,0,0,27.757,46.95Z" transform="translate(-0.199 -2.287)"/>
          <path id="Shape-21" data-name="Shape" d="M4.95,51a.95.95,0,1,0,0,1.9H15.4a.95.95,0,1,0,0-1.9Z" transform="translate(-0.199 -2.535)"/>
        </g>
      </g>
    </g>
  </g>
</svg>
