<svg xmlns="http://www.w3.org/2000/svg" width="72" height="72" viewBox="0 0 72 72">
  <g id="Group_1101819" data-name="Group 1101819" transform="translate(-704.721 -6155)">
    <rect id="Rectangle_402033" data-name="Rectangle 402033" width="72" height="72" rx="5" transform="translate(704.721 6155)" fill="#bfa2f7"/>
    <g id="Group_1105086" data-name="Group 1105086" transform="translate(687.432 6165.249)">
      <path id="Path_881767" data-name="Path 881767" d="M121.809,177.678h16.454l3.472-5.289a14.85,14.85,0,0,0,2.369-7.471,34.425,34.425,0,0,0-28.133.056h0a14.838,14.838,0,0,0,2.366,7.415Z" transform="translate(-76.747 -145.623)" fill="#a60042"/>
      <path id="Path_881768" data-name="Path 881768" d="M180.314,106.782v9.2a7,7,0,0,0,7,7h1.158a7,7,0,0,0,7-7v-9.2a2.145,2.145,0,0,0-2.145-2.145H182.459a2.145,2.145,0,0,0-2.145,2.145Z" transform="translate(-134.607 -94.094)" fill="#fed2a4"/>
      <path id="Path_881769" data-name="Path 881769" d="M193.333,104.637H182.459a2.145,2.145,0,0,0-2.145,2.145v6.589a31.287,31.287,0,0,1,15.164-.023v-6.565A2.145,2.145,0,0,0,193.333,104.637Z" transform="translate(-134.607 -94.094)" fill="#ffbd86"/>
      <path id="Path_881770" data-name="Path 881770" d="M143.94,26.042a15.556,15.556,0,0,0-.054-2.176,14.962,14.962,0,0,0-1.555-5.389l-2.153-4.215a12.88,12.88,0,0,0-4.364-4.949,10.8,10.8,0,0,0-5.942-1.81,11.741,11.741,0,0,0-10.306,6.759l-2.153,4.215a14.967,14.967,0,0,0-1.562,5.463,15.565,15.565,0,0,0-.044,2.157h0A34.425,34.425,0,0,1,143.94,26.042Z" transform="translate(-76.583 -6.747)" fill="#ff5576"/>
      <path id="Path_881771" data-name="Path 881771" d="M120.889,23.94a14.967,14.967,0,0,1,1.562-5.463l2.153-4.215a12.159,12.159,0,0,1,7.787-6.452,10.514,10.514,0,0,0-2.519-.307,11.741,11.741,0,0,0-10.306,6.759l-2.153,4.215a14.967,14.967,0,0,0-1.562,5.463,15.565,15.565,0,0,0-.044,2.157h0a38.939,38.939,0,0,1,5.053-1.786Q120.872,24.126,120.889,23.94Z" transform="translate(-76.583 -6.747)" fill="#ef0766"/>
      <path id="Path_881772" data-name="Path 881772" d="M69.19,224.068h37.558v25.039H69.19Z" transform="translate(-34.68 -201.491)" fill="#3e4f55"/>
      <path id="Path_881773" data-name="Path 881773" d="M69.19,224.068h5.038v25.039H69.19Z" transform="translate(-34.68 -201.491)" fill="#303d42"/>
      <path id="Path_881774" data-name="Path 881774" d="M193.5,262.9a7.831,7.831,0,1,0-12.526,6.268v3.181a1.511,1.511,0,0,0,1.511,1.511h6.367a1.511,1.511,0,0,0,1.511-1.511v-3.181A7.819,7.819,0,0,0,193.5,262.9Z" transform="translate(-132.384 -229.365)" fill="#e9f1ff"/>
      <path id="Path_881775" data-name="Path 881775" d="M184,272.346v-3.181a7.832,7.832,0,0,1,3.187-13.953,7.832,7.832,0,0,0-6.21,13.953v3.181a1.511,1.511,0,0,0,1.511,1.511h3.023A1.511,1.511,0,0,1,184,272.346Z" transform="translate(-132.384 -229.365)" fill="#d7e4f7"/>
      <circle id="Ellipse_11779" data-name="Ellipse 11779" cx="1.565" cy="1.565" r="1.565" transform="translate(48.594 31.974)" fill="#3e4f55"/>
      <path id="Path_881776" data-name="Path 881776" d="M38.128,472.566H81.946v3.13H38.128Z" transform="translate(-6.748 -424.95)" fill="#e9f1ff"/>
      <path id="Path_881777" data-name="Path 881777" d="M38.128,472.566h5.038v3.13H38.128Z" transform="translate(-6.748 -424.95)" fill="#d7e4f7"/>
      <circle id="Ellipse_11780" data-name="Ellipse 11780" cx="1.565" cy="1.565" r="1.565" transform="translate(54.854 31.974)" fill="#3e4f55"/>
      <g id="Group_1105085" data-name="Group 1105085" transform="translate(30.624 0)">
        <path id="Path_881778" data-name="Path 881778" d="M75.2,46.861H72.824V22.578a.756.756,0,0,0-.756-.756H67.806a16.167,16.167,0,0,0-1.384-10.436L64.268,7.171A12.64,12.64,0,0,0,53.289,0,12.53,12.53,0,0,0,42.31,7.171l-2.153,4.215a16.2,16.2,0,0,0-1.385,10.436H34.51a.756.756,0,0,0-.756.756V46.861H31.38a.756.756,0,0,0-.756.756v3.129a.756.756,0,0,0,.756.756H37.9a.756.756,0,0,0,0-1.511H32.136V48.372H64.615a.756.756,0,1,0,0-1.511H35.266V23.333h16.52a.756.756,0,1,0,0-1.511H46.463V17.816A32.855,32.855,0,0,1,60.116,17.8v4.025H55.08a.756.756,0,1,0,0,1.511H71.312V46.861h-3.4a.756.756,0,1,0,0,1.511h6.534V49.99H41.195a.756.756,0,0,0,0,1.511h34a.756.756,0,0,0,.756-.756V47.617a.719.719,0,0,0-.756-.756ZM44.951,21.822H40.318a14.565,14.565,0,0,1-.306-1.984,37.251,37.251,0,0,1,4.939-1.665Zm8.375-6.26a36.153,36.153,0,0,0-13.361,2.663A14.351,14.351,0,0,1,41.5,12.073l2.153-4.215a11.029,11.029,0,0,1,9.633-6.347,11.183,11.183,0,0,1,9.633,6.347l2.153,4.215a14.353,14.353,0,0,1,1.537,6.1,36.47,36.47,0,0,0-13.286-2.613Zm8.3,2.586a37.766,37.766,0,0,1,4.944,1.639,14.553,14.553,0,0,1-.311,2.036H61.627V18.147Z" transform="translate(-30.624 0)"/>
        <path id="Path_881779" data-name="Path 881779" d="M175.746,267.869h6.367a2.27,2.27,0,0,0,2.267-2.267v-2.814a8.514,8.514,0,0,0,3.136-6.636,8.587,8.587,0,1,0-14.038,6.635V265.6A2.27,2.27,0,0,0,175.746,267.869Zm-3.892-11.8a7.076,7.076,0,0,1,14.151.079,7.022,7.022,0,0,1-2.834,5.664.756.756,0,0,0-.3.6V265.6a.756.756,0,0,1-.756.756h-.863v-2.374a.756.756,0,0,0-1.511,0v2.374H178.12v-2.374a.756.756,0,0,0-1.511,0v2.374h-.863a.756.756,0,0,1-.756-.756v-3.181a.755.755,0,0,0-.3-.6A7.109,7.109,0,0,1,171.854,256.074Z" transform="translate(-156.264 -222.621)"/>
        <path id="Path_881780" data-name="Path 881780" d="M203.792,314.465a2.321,2.321,0,1,0-2.321-2.32A2.323,2.323,0,0,0,203.792,314.465Zm0-3.13a.809.809,0,1,1-.809.809A.81.81,0,0,1,203.792,311.335Z" transform="translate(-184.256 -278.606)"/>
        <path id="Path_881781" data-name="Path 881781" d="M265.916,314.465a2.321,2.321,0,1,0-2.321-2.32A2.323,2.323,0,0,0,265.916,314.465Zm0-3.13a.809.809,0,1,1-.809.809A.81.81,0,0,1,265.916,311.335Z" transform="translate(-240.121 -278.606)"/>
      </g>
      <path id="Path_881782" data-name="Path 881782" d="M233.289,373.459a.756.756,0,1,1,.756-.756A.756.756,0,0,1,233.289,373.459Z" transform="translate(-181.564 -334.47)"/>
      <path id="Path_881783" data-name="Path 881783" d="M264.35,373.459a.756.756,0,1,1,.756-.756A.756.756,0,0,1,264.35,373.459Z" transform="translate(-209.496 -334.47)"/>
    </g>
  </g>
</svg>
