<svg xmlns="http://www.w3.org/2000/svg" width="40" height="39.369" viewBox="0 0 40 39.369">
  <path id="Path_882143" data-name="Path 882143" d="M33.821,20.914V11.7a1.562,1.562,0,0,1,3.125,0v9.218a1.562,1.562,0,0,1-3.125,0Zm5.628,20.579a3.879,3.879,0,0,1-3.366,1.916H3.983a3.958,3.958,0,0,1-3.432-1.96,3.824,3.824,0,0,1-.079-3.817L3.2,32.644V11.7a1.562,1.562,0,1,1,3.125,0V31.691h27.5V28.8a1.562,1.562,0,0,1,3.125,0V32.93l2.57,4.7A3.868,3.868,0,0,1,39.449,41.493ZM36.774,39.13l-2.359-4.315H5.572L3.213,39.13a.715.715,0,0,0,.025.724.869.869,0,0,0,.744.429H14.53a1.561,1.561,0,0,1,1.558-1.48h7.734a1.561,1.561,0,0,1,1.558,1.48h10.7a.774.774,0,0,0,.678-.385.753.753,0,0,0,.013-.769ZM9.5,12.516a1.562,1.562,0,0,1,0-1.8c.055-.078.243-.345.36-.492a21.99,21.99,0,0,1,3.452-3.559A10.715,10.715,0,0,1,20,4.04a10.714,10.714,0,0,1,6.684,2.628,21.982,21.982,0,0,1,3.452,3.559c.117.147.305.414.36.492a1.562,1.562,0,0,1,0,1.8c-.055.078-.243.345-.36.492a21.99,21.99,0,0,1-3.452,3.559A10.714,10.714,0,0,1,20,19.2a10.714,10.714,0,0,1-6.684-2.628,21.985,21.985,0,0,1-3.452-3.559c-.117-.147-.306-.414-.361-.492Zm3.259-.9c2.484,2.956,4.917,4.453,7.237,4.453s4.753-1.5,7.237-4.453C24.752,8.662,22.32,7.165,20,7.165S15.246,8.662,12.762,11.618Zm7.315,2.968a2.969,2.969,0,1,0-2.969-2.969A2.969,2.969,0,0,0,20.077,14.586ZM10.625,26.851a1.562,1.562,0,1,0-1.562-1.562A1.562,1.562,0,0,0,10.625,26.851Zm4.687-1.562a1.562,1.562,0,1,0,1.562-1.562A1.562,1.562,0,0,0,15.312,25.289Zm6.25,0a1.562,1.562,0,1,0,1.562-1.562A1.562,1.562,0,0,0,21.562,25.289Zm7.812-1.562a1.562,1.562,0,1,0,1.562,1.562A1.562,1.562,0,0,0,29.374,23.726Z" transform="translate(0 -4.04)" fill="#4dceff"/>
</svg>
