<svg xmlns="http://www.w3.org/2000/svg" width="100" height="100" viewBox="0 0 100 100">
  <g id="Group_1100965" data-name="Group 1100965" transform="translate(0.242)">
    <g id="Group_1098742" data-name="Group 1098742" transform="translate(0)">
      <rect id="Rectangle_400898" data-name="Rectangle 400898" width="100" height="100" rx="50" transform="translate(-0.242)" fill="#fff" opacity="0.859"/>
      <g id="Rectangle_400907" data-name="Rectangle 400907" transform="translate(-0.242)" fill="none" stroke="#6018ec" stroke-linecap="round" stroke-width="2" stroke-dasharray="7">
        <rect width="100" height="100" rx="50" stroke="none"/>
        <rect x="1" y="1" width="98" height="98" rx="49" fill="none"/>
      </g>
    </g>
    <g id="Group_1105047" data-name="Group 1105047" transform="translate(20.228 1.468)">
      <g id="Group_1105045" data-name="Group 1105045" transform="translate(0.869 22.362)">
        <g id="Group_1105043" data-name="Group 1105043" transform="translate(4.142 14.426)">
          <path id="Path_881591" data-name="Path 881591" d="M92.281,155.822a2.333,2.333,0,0,0-2.333-2.333H45.577a2.333,2.333,0,0,0-2.333,2.333v33.563H92.281Z" transform="translate(-43.244 -153.489)" fill="#b5adb6"/>
        </g>
        <g id="Group_1105044" data-name="Group 1105044" transform="translate(8.635 0)">
          <path id="Path_881592" data-name="Path 881592" d="M120.406,91.093a1.547,1.547,0,0,1,1.547,1.547v40.822H82.017V92.64a1.547,1.547,0,0,1,1.547-1.547Z" transform="translate(-82.017 -83.897)" fill="#f9f7f8"/>
          <path id="Path_881593" data-name="Path 881593" d="M115.8,98.336l-4.714-7.243H83.565a1.547,1.547,0,0,0-1.547,1.547v40.822h6.818V106.536a.851.851,0,0,1,1.261-.748,5.251,5.251,0,0,0,2.6.687H111.3a5.354,5.354,0,0,0,4.418-2.268A5.264,5.264,0,0,0,115.8,98.336Z" transform="translate(-82.018 -83.897)" fill="#efedef"/>
          <path id="Path_881594" data-name="Path 881594" d="M170.329,49.254H151.635a2.949,2.949,0,0,1-2.471-4.557l9.347-14.363a2.949,2.949,0,0,1,4.943,0L172.8,44.7A2.949,2.949,0,0,1,170.329,49.254Z" transform="translate(-140.956 -28.994)" fill="#fee97d"/>
          <path id="Path_881595" data-name="Path 881595" d="M153.547,44.7l9.347-14.363a3.016,3.016,0,0,1,.279-.364,2.949,2.949,0,0,0-4.663.364L149.163,44.7a2.949,2.949,0,0,0,2.471,4.557h4.384A2.949,2.949,0,0,1,153.547,44.7Z" transform="translate(-140.956 -28.999)" fill="#fee45a"/>
        </g>
        <path id="Path_881596" data-name="Path 881596" d="M61.782,440.929H10.537A3.038,3.038,0,0,1,7.5,437.89v-1.275a.9.9,0,0,1,.9-.9h55.53a.9.9,0,0,1,.9.9v1.275A3.038,3.038,0,0,1,61.782,440.929Z" transform="translate(-7.499 -388.589)" fill="#aa9ea9"/>
      </g>
      <g id="Group_1105046" data-name="Group 1105046" transform="translate(0 21.493)">
        <path id="Path_881597" data-name="Path 881597" d="M58.19,123.528H54.917v-3.819a.869.869,0,0,0-1.738,0v3.819H50.308V92.562h1.407a1.466,1.466,0,0,1,1.464,1.464v21.98a.869.869,0,1,0,1.738,0V94.026a3.206,3.206,0,0,0-3.2-3.2H50.308V86.009a2.419,2.419,0,0,0-2.416-2.416H39.959a.869.869,0,1,0,0,1.738h7.933a.678.678,0,0,1,.678.678v37.519h-38.2V86.009a.678.678,0,0,1,.678-.678H19.1a.869.869,0,0,0,0-1.738H11.051a2.419,2.419,0,0,0-2.416,2.416v4.815H7.344a3.206,3.206,0,0,0-3.2,3.2v3.5a.869.869,0,1,0,1.738,0v-3.5a1.466,1.466,0,0,1,1.464-1.464H8.635v30.966H5.88v-22.3a.869.869,0,0,0-1.738,0v22.3H.869A.869.869,0,0,0,0,124.4v2.17a3.912,3.912,0,0,0,3.907,3.907H55.152a3.912,3.912,0,0,0,3.907-3.907V124.4A.869.869,0,0,0,58.19,123.528Zm-.869,3.04a2.172,2.172,0,0,1-2.169,2.169H3.907a2.172,2.172,0,0,1-2.169-2.169v-1.3H57.321Z" transform="translate(0 -76.397)"/>
        <path id="Path_881598" data-name="Path 881598" d="M141.619,41.494a3.766,3.766,0,0,0,3.356,2h18.694a3.818,3.818,0,0,0,3.2-5.9l-6.3-9.676a.869.869,0,1,0-1.457.948l6.3,9.676a2.08,2.08,0,0,1-1.743,3.214H144.975a2.08,2.08,0,0,1-1.743-3.214l9.347-14.363a2.08,2.08,0,0,1,3.486,0l1.03,1.583a.869.869,0,1,0,1.457-.948l-1.03-1.583a3.818,3.818,0,0,0-6.4,0l-9.347,14.363A3.766,3.766,0,0,0,141.619,41.494Z" transform="translate(-124.793 -21.493)"/>
        <path id="Path_881599" data-name="Path 881599" d="M248.2,161.981a.869.869,0,0,0-.869.869v1.087a.869.869,0,0,0,1.738,0V162.85A.869.869,0,0,0,248.2,161.981Z" transform="translate(-218.67 -145.701)"/>
        <path id="Path_881600" data-name="Path 881600" d="M249.069,60.571a.869.869,0,0,0-1.738,0V68.9a.869.869,0,0,0,1.738,0Z" transform="translate(-218.67 -55.274)"/>
        <path id="Path_881601" data-name="Path 881601" d="M121.985,257.644h1.1a.869.869,0,0,0,0-1.738h-1.1a.869.869,0,0,0,0,1.738Z" transform="translate(-107.081 -228.742)"/>
        <path id="Path_881602" data-name="Path 881602" d="M366.058,255.906h-1.1a.869.869,0,1,0,0,1.738h1.1a.869.869,0,0,0,0-1.738Z" transform="translate(-321.903 -228.742)"/>
        <path id="Path_881603" data-name="Path 881603" d="M179.281,257.644a.869.869,0,1,0,0-1.738H158.85a.869.869,0,0,0,0,1.738Z" transform="translate(-139.674 -228.742)"/>
        <path id="Path_881604" data-name="Path 881604" d="M151.236,315.48H121.984a.869.869,0,0,0,0,1.738h29.251a.869.869,0,1,0,0-1.738Z" transform="translate(-107.08 -281.413)"/>
        <path id="Path_881605" data-name="Path 881605" d="M151.236,375.053H121.984a.869.869,0,0,0,0,1.738h29.251a.869.869,0,1,0,0-1.738Z" transform="translate(-107.08 -334.083)"/>
      </g>
    </g>
  </g>
</svg>
