<svg xmlns="http://www.w3.org/2000/svg" width="90" height="90" viewBox="0 0 90 90">
  <g id="Group_1103702" data-name="Group 1103702" transform="translate(-704.668 -6155.5)">
    <rect id="Rectangle_402033" data-name="Rectangle 402033" width="90" height="90" rx="45" transform="translate(704.668 6155.5)" fill="#bfa2f7"/>
    <g id="Layer_x0020_1" transform="translate(582.993 6174.468)">
      <path id="Path_881934" data-name="Path 881934" d="M175.293,222.981h-29.04a.6.6,0,0,1,0-1.2h29.04A.6.6,0,0,1,175.293,222.981Z" transform="translate(-0.243 -214.727)" fill-rule="evenodd"/>
      <path id="Path_881935" data-name="Path 881935" d="M175.3,1446.1H146.26a.6.6,0,0,1,0-1.2H175.3A.6.6,0,0,1,175.3,1446.1Z" transform="translate(-0.25 -1401.092)" fill-rule="evenodd"/>
      <path id="Path_881936" data-name="Path 881936" d="M464.122,125.931H453.55a.6.6,0,0,1,0-1.2h10.571A.6.6,0,0,1,464.122,125.931Z" transform="translate(-298.305 -120.594)" fill-rule="evenodd"/>
      <path id="Path_881937" data-name="Path 881937" d="M499.96,1513.845h-6.554c-1.554,0-1.427-1.568-1.427-2.357a1.429,1.429,0,0,1,1.427-1.427h6.554c1.554,0,1.427,1.568,1.427,2.357A1.429,1.429,0,0,1,499.96,1513.845Zm-6.554-2.583c-.335,0-.226.592-.226,1.156a.229.229,0,0,0,.226.225h6.554c.335,0,.226-.591.226-1.155a.228.228,0,0,0-.226-.226h-6.554Z" transform="translate(-336.152 -1464.294)" fill-rule="evenodd"/>
      <path id="Path_881938" data-name="Path 881938" d="M494.794,403.531H470.259c-4.123,0-5.522-3.388-2.711-7.509l12.509-18.341c1.418-2.079,3.522-2.079,4.94,0L497.5,396.022c2.809,4.119,1.413,7.509-2.71,7.509Zm-12.267-26.2a1.967,1.967,0,0,0-1.478,1.032L468.54,396.7c-2.03,2.976-1.729,5.63,1.719,5.63h24.535c3.448,0,3.748-2.654,1.719-5.63L484,378.358a1.968,1.968,0,0,0-1.477-1.032Z" transform="translate(-311.033 -364.432)" fill-rule="evenodd"/>
      <path id="Path_881939" data-name="Path 881939" d="M930.77,946.157h-4.041a.6.6,0,0,1-.487-.954c2.922-4.034,2.091-4.034,5.014,0a.6.6,0,0,1-.487.954Zm-2.863-1.2h1.686l-.843-1.162-.843,1.162Z" transform="translate(-757.257 -913.476)" fill-rule="evenodd"/>
      <path id="Path_881940" data-name="Path 881940" d="M781.985,689.075h-8a.6.6,0,0,1-.6-.6v-2.456a7.3,7.3,0,1,1,9.207,0v2.456a.6.6,0,0,1-.6.6Zm-7.4-1.2h6.8c0-.94-.171-2.322.242-2.63a6.1,6.1,0,1,0-7.286,0c.413.308.242,1.69.242,2.63Z" transform="translate(-606.49 -652.436)" fill-rule="evenodd"/>
      <path id="Path_881941" data-name="Path 881941" d="M927,1114.208c-.828,0-.6-1.187-.6-2.261a.6.6,0,0,1,1.2,0C927.6,1113.02,927.83,1114.208,927,1114.208Z" transform="translate(-757.495 -1077.569)" fill-rule="evenodd"/>
      <path id="Path_881942" data-name="Path 881942" d="M993.062,1114.208c-.828,0-.6-1.187-.6-2.261a.6.6,0,0,1,1.2,0C993.663,1113.022,993.89,1114.208,993.062,1114.208Z" transform="translate(-821.569 -1077.569)" fill-rule="evenodd"/>
      <path id="Path_881943" data-name="Path 881943" d="M1059.132,1114.208c-.828,0-.6-1.187-.6-2.261a.6.6,0,0,1,1.2,0C1059.733,1113.022,1059.96,1114.208,1059.132,1114.208Z" transform="translate(-885.654 -1077.569)" fill-rule="evenodd"/>
      <path id="Path_881944" data-name="Path 881944" d="M1037.489,813.4c-2.755,0-3.45-4.221-.73-4.221C1039.5,809.18,1040.2,813.4,1037.489,813.4Zm-.73-3.019c-1.078,0-.406,1.818.73,1.818C1038.567,812.2,1037.89,810.382,1036.759,810.382Z" transform="translate(-862.892 -784.476)" fill-rule="evenodd"/>
      <path id="Path_881945" data-name="Path 881945" d="M854.728,813.411c-2.717,0-2.008-4.221.73-4.221C858.173,809.19,857.468,813.411,854.728,813.411Zm.73-3.019c-1.13,0-1.808,1.818-.73,1.818C855.859,812.21,856.536,810.392,855.458,810.392Z" transform="translate(-686.338 -784.485)" fill-rule="evenodd"/>
      <path id="Path_881946" data-name="Path 881946" d="M195.283,285.106l12.509-18.341c1.418-2.079,3.522-2.079,4.94,0l.487.714V261.77H185.38v35.554h27.838v-4.709H197.994C193.871,292.615,192.473,289.227,195.283,285.106Z" transform="translate(-38.769 -253.516)" fill="#6dc7de" fill-rule="evenodd"/>
      <path id="Path_881947" data-name="Path 881947" d="M185.39,45.841h27.838V42.705a2.317,2.317,0,0,0-2.315-2.315H187.705a2.318,2.318,0,0,0-2.315,2.315Zm8.634-2.916H204.6a.6.6,0,0,1,0,1.2H194.024A.6.6,0,0,1,194.024,42.924Z" transform="translate(-38.779 -38.788)" fill="#8d9a89" fill-rule="evenodd"/>
      <path id="Path_881948" data-name="Path 881948" d="M519.636,417.222l-12.508,18.341c-2.03,2.976-1.729,5.63,1.719,5.63h24.535c3.448,0,3.748-2.654,1.719-5.63l-12.508-18.341a1.574,1.574,0,0,0-2.955,0Zm1.478,6.688a7.312,7.312,0,0,1,4.6,12.968v2.456a.6.6,0,0,1-.6.6h-8a.6.6,0,0,1-.6-.6v-2.456a7.312,7.312,0,0,1,4.6-12.968Z" transform="translate(-349.621 -403.295)" fill="#ffb800" fill-rule="evenodd"/>
      <path id="Path_881949" data-name="Path 881949" d="M1074.806,849.18c-1.078,0-.406,1.818.73,1.818C1076.614,851,1075.937,849.18,1074.806,849.18Z" transform="translate(-900.939 -823.274)" fill="#4a5254" fill-rule="evenodd"/>
      <path id="Path_881950" data-name="Path 881950" d="M819.75,720.151c-2.755,0-3.45-4.222-.73-4.222C821.759,715.929,822.466,720.151,819.75,720.151Zm-3.1-7.111A6.108,6.108,0,0,0,813,724.032c.413.308.242,1.69.241,2.63h.787c0-.334.028-.7.028-1.059a.6.6,0,0,1,1.2,0c0,.356.025.725.028,1.059h.727c0-.334.028-.7.028-1.059a.6.6,0,0,1,1.2,0c0,.357.025.725.028,1.059H818c0-.334.028-.7.028-1.059a.6.6,0,0,1,1.2,0c0,.357.025.725.028,1.059h.788c0-.94-.171-2.322.242-2.63a6.109,6.109,0,0,0-3.643-10.992Zm-2.507,9.911c2.922-4.034,2.091-4.034,5.014,0a.6.6,0,0,1-.486.954h-4.041a.6.6,0,0,1-.487-.954Zm.134-7.022c2.715,0,2.01,4.221-.73,4.221C810.827,720.15,811.536,715.929,814.273,715.929Z" transform="translate(-645.154 -691.225)" fill="#d7d7d7" fill-rule="evenodd"/>
      <path id="Path_881951" data-name="Path 881951" d="M987.016,997.092l-.843-1.162-.843,1.162Z" transform="translate(-814.68 -965.614)" fill="#4a5254" fill-rule="evenodd"/>
      <path id="Path_881952" data-name="Path 881952" d="M892.584,851c1.132,0,1.808-1.818.73-1.818C892.184,849.18,891.506,851,892.584,851Z" transform="translate(-724.195 -823.274)" fill="#4a5254" fill-rule="evenodd"/>
      <path id="Path_881953" data-name="Path 881953" d="M538.259,1550.06H531.7c-.335,0-.226.592-.226,1.156a.228.228,0,0,0,.226.225h6.554c.335,0,.226-.591.226-1.155a.228.228,0,0,0-.226-.226Z" transform="translate(-374.451 -1503.092)" fill="#fff" fill-rule="evenodd"/>
      <path id="Path_881954" data-name="Path 881954" d="M172.134,51.662H148.927a3.521,3.521,0,0,1-3.517-3.517V3.917A3.521,3.521,0,0,1,148.927.4h23.208a3.521,3.521,0,0,1,3.517,3.517V15.911a.6.6,0,0,1-1.1.339l-1.584-2.322c-.935-1.371-2.02-1.371-2.955,0L157.507,32.268c-2.03,2.976-1.729,5.63,1.719,5.63h15.825a.6.6,0,0,1,.6.6v9.647a3.521,3.521,0,0,1-3.517,3.517ZM148.927,1.6a2.318,2.318,0,0,0-2.315,2.315V48.145a2.318,2.318,0,0,0,2.315,2.315h23.208a2.317,2.317,0,0,0,2.315-2.315V39.1H159.226c-4.123,0-5.522-3.388-2.711-7.509L169.023,13.25c1.418-2.079,3.522-2.079,4.94,0l.487.714V3.917A2.317,2.317,0,0,0,172.135,1.6H148.927Z" fill-rule="evenodd"/>
      <path id="Path_881955" data-name="Path 881955" d="M187.7,1490.341H210.9a2.317,2.317,0,0,0,2.315-2.315v-3.136H185.38v3.136a2.318,2.318,0,0,0,2.315,2.315Zm14.881-4.694c1.554,0,1.427,1.568,1.427,2.357a1.429,1.429,0,0,1-1.427,1.427h-6.554c-1.554,0-1.427-1.567-1.427-2.357a1.428,1.428,0,0,1,1.427-1.427Z" transform="translate(-38.769 -1439.88)" fill="#8d9a89" fill-rule="evenodd"/>
    </g>
  </g>
</svg>
