<svg xmlns="http://www.w3.org/2000/svg" width="90" height="90" viewBox="0 0 90 90">
  <g id="Group_1103704" data-name="Group 1103704" transform="translate(-704.668 -6155.5)">
    <rect id="Rectangle_402033" data-name="Rectangle 402033" width="90" height="90" rx="45" transform="translate(704.668 6155.5)" fill="#bfa2f7"/>
    <g id="Group_1105183" data-name="Group 1105183" transform="translate(689.321 6178.391)">
      <g id="Group_1105181" data-name="Group 1105181" transform="translate(42.509 0.649)">
        <path id="Path_881969" data-name="Path 881969" d="M75.669,45.774a4.646,4.646,0,0,1-4.646,4.646H54.006a4.646,4.646,0,0,1-4.646-4.646V12.146A4.646,4.646,0,0,1,54.006,7.5H71.023a4.646,4.646,0,0,1,4.646,4.646Z" transform="translate(-49.36 -7.5)" fill="#b5acb6"/>
        <path id="Path_881970" data-name="Path 881970" d="M54.575,45.774V12.146A4.646,4.646,0,0,1,59.221,7.5H54.006a4.646,4.646,0,0,0-4.646,4.646V45.774a4.646,4.646,0,0,0,4.646,4.646h5.215A4.646,4.646,0,0,1,54.575,45.774Z" transform="translate(-49.36 -7.5)" fill="#a79ba7"/>
        <path id="Path_881971" data-name="Path 881971" d="M296.318,106.96h4.942v19.322h-4.942Z" transform="translate(-274.95 -98.354)" fill="#a79ba7"/>
        <path id="Path_881972" data-name="Path 881972" d="M100.451,73.178A2.051,2.051,0,0,1,98.4,75.229H81.384a2.051,2.051,0,0,1-2.051-2.051V39.551A2.051,2.051,0,0,1,81.384,37.5h2.054a1.006,1.006,0,0,1,.759.346L85.291,39.1a.508.508,0,0,0,.383.175H94.11a.508.508,0,0,0,.383-.175l1.093-1.258a1.006,1.006,0,0,1,.759-.346H98.4a2.05,2.05,0,0,1,2.051,2.051Z" transform="translate(-76.74 -34.904)" fill="#9be5fb"/>
        <path id="Path_881973" data-name="Path 881973" d="M81.979,73.178V39.551a4.626,4.626,0,0,1,.476-2.051H81.41a2.05,2.05,0,0,0-2.05,2.051V73.178a2.05,2.05,0,0,0,2.051,2.051h1.044A4.623,4.623,0,0,1,81.979,73.178Z" transform="translate(-76.764 -34.904)" fill="#65daf9"/>
        <path id="Path_881974" data-name="Path 881974" d="M184.546,106.96h-5.793a7.368,7.368,0,0,0-7.359,7.359v11.7a2.734,2.734,0,0,0,4.77,1.823l1.4-1.558h6.987Z" transform="translate(-160.835 -98.354)" fill="#65daf9"/>
        <path id="Path_881975" data-name="Path 881975" d="M219.153,151.091H204.2a.875.875,0,0,0-.651.291l-1.908,2.132a.138.138,0,0,1-.241-.092v-11.7a4.764,4.764,0,0,1,4.764-4.764h12.994a4.764,4.764,0,0,1,4.764,4.764v4.6A4.764,4.764,0,0,1,219.153,151.091Z" transform="translate(-188.24 -125.759)" fill="#fee565"/>
        <path id="Path_881976" data-name="Path 881976" d="M203.054,141.724a4.764,4.764,0,0,1,4.764-4.764h-1.659a4.764,4.764,0,0,0-4.764,4.764v11.7a.138.138,0,0,0,.241.092l1.418-1.584Z" transform="translate(-188.24 -125.759)" fill="#fde044"/>
        <path id="Path_881977" data-name="Path 881977" d="M137.117,377.595H126.533a1.3,1.3,0,0,1-1.3-1.3v-2.642a1.3,1.3,0,0,1,1.3-1.3h10.584a1.3,1.3,0,0,1,1.3,1.3V376.3A1.3,1.3,0,0,1,137.117,377.595Z" transform="translate(-118.67 -340.788)" fill="#65daf9"/>
      </g>
      <g id="Group_1105182" data-name="Group 1105182" transform="translate(41.86 0)">
        <path id="Path_881978" data-name="Path 881978" d="M68.818,27.928a.649.649,0,0,0-.649.649V38.923a4,4,0,0,1-4,4H47.155a4,4,0,0,1-4-4V5.3a4,4,0,0,1,4-4H64.172a4,4,0,0,1,4,4V9.255a.649.649,0,1,0,1.3,0V5.3a5.3,5.3,0,0,0-5.3-5.3H47.155a5.3,5.3,0,0,0-5.3,5.3V38.923a5.3,5.3,0,0,0,5.3,5.3H64.172a5.3,5.3,0,0,0,5.3-5.3V28.577a.649.649,0,0,0-.649-.649Z" transform="translate(-41.86 0)"/>
        <path id="Path_881979" data-name="Path 881979" d="M93.627,37.308a.649.649,0,0,0,.649-.649V32.7a2.7,2.7,0,0,0-2.7-2.7H89.522a1.655,1.655,0,0,0-1.249.569l-1.051,1.209H78.914l-1.051-1.209A1.654,1.654,0,0,0,76.614,30H74.559a2.7,2.7,0,0,0-2.7,2.7v5.543a.649.649,0,1,0,1.3,0V32.7a1.4,1.4,0,0,1,1.4-1.4h2.054a.357.357,0,0,1,.27.123l1.093,1.257a1.156,1.156,0,0,0,.873.4h8.436a1.157,1.157,0,0,0,.873-.4l1.094-1.258a.357.357,0,0,1,.27-.123h2.054a1.4,1.4,0,0,1,1.4,1.4v3.959A.649.649,0,0,0,93.627,37.308Z" transform="translate(-69.264 -27.404)"/>
        <path id="Path_881980" data-name="Path 881980" d="M72.509,149.721a.649.649,0,0,0-.649.649v25.319a2.7,2.7,0,0,0,2.7,2.7H91.576a2.7,2.7,0,0,0,2.7-2.7V165.343a.649.649,0,0,0-1.3,0v10.346a1.4,1.4,0,0,1-1.4,1.4H74.559a1.4,1.4,0,0,1-1.4-1.4V150.37A.649.649,0,0,0,72.509,149.721Z" transform="translate(-69.264 -136.766)"/>
        <path id="Path_881981" data-name="Path 881981" d="M212.3,129.46h-1.441a.649.649,0,0,0,0,1.3H212.3a4.119,4.119,0,0,1,4.115,4.115v4.6a4.119,4.119,0,0,1-4.115,4.115H196.953a.649.649,0,0,0-.484.216l-1.277,1.427V134.873a4.119,4.119,0,0,1,4.115-4.115H208.1a.649.649,0,0,0,0-1.3h-8.788a5.419,5.419,0,0,0-5.413,5.413v12.059a.649.649,0,0,0,1.132.433l2.216-2.475H212.3a5.419,5.419,0,0,0,5.413-5.413v-4.6A5.419,5.419,0,0,0,212.3,129.46Z" transform="translate(-180.74 -118.259)"/>
        <path id="Path_881982" data-name="Path 881982" d="M304.74,190.856a.649.649,0,0,0,.649-.649v-5.214a.649.649,0,0,0-1.208-.329l-1.312,2.231-1.312-2.231a.649.649,0,0,0-1.208.329v5.214a.649.649,0,1,0,1.3,0v-2.83l.455.774a.89.89,0,0,0,1.535,0l.455-.774v2.83A.649.649,0,0,0,304.74,190.856Z" transform="translate(-277.983 -168.394)"/>
        <path id="Path_881983" data-name="Path 881983" d="M231.668,185.643a.649.649,0,0,0,0-1.3h-2.71A1.157,1.157,0,0,0,227.8,185.5v1.593a1.157,1.157,0,0,0,1.156,1.156h2.061v1.309h-2.568a.649.649,0,1,0,0,1.3h2.71a1.157,1.157,0,0,0,1.156-1.156v-1.593a1.157,1.157,0,0,0-1.156-1.156H229.1v-1.309h2.568Z" transform="translate(-211.713 -168.395)"/>
        <path id="Path_881984" data-name="Path 881984" d="M381.549,189.558a.649.649,0,1,0,0,1.3h2.71a1.157,1.157,0,0,0,1.156-1.156v-1.593a1.157,1.157,0,0,0-1.156-1.156H382.2v-1.309h2.568a.649.649,0,0,0,0-1.3h-2.71A1.157,1.157,0,0,0,380.9,185.5v1.593a1.157,1.157,0,0,0,1.156,1.156h2.061v1.309h-2.568Z" transform="translate(-351.565 -168.394)"/>
        <path id="Path_881985" data-name="Path 881985" d="M130.266,364.857H119.682a1.949,1.949,0,0,0-1.947,1.947v2.642a1.949,1.949,0,0,0,1.947,1.946h1.653a.649.649,0,0,0,0-1.3h-1.653a.649.649,0,0,1-.649-.649V366.8a.649.649,0,0,1,.649-.649h10.584a.649.649,0,0,1,.649.649v2.642a.649.649,0,0,1-.649.649H124.1a.649.649,0,1,0,0,1.3h6.166a1.949,1.949,0,0,0,1.947-1.946V366.8A1.949,1.949,0,0,0,130.266,364.857Z" transform="translate(-111.17 -333.288)"/>
      </g>
    </g>
  </g>
</svg>
